<?xml version="1.0" encoding="UTF-8"?>
<svg xmlns="http://www.w3.org/2000/svg" xmlns:xlink="http://www.w3.org/1999/xlink" width="600pt" height="599.999999pt" viewBox="0 0 600 599.999999" version="1.2">
<defs>
<clipPath id="clip1">
  <path d="M 68 136 L 529 136 L 529 510 L 68 510 Z M 68 136 "/>
</clipPath>
<clipPath id="clip2">
  <path d="M 409.671875 -12.195312 L 645.808594 295.359375 L 265.082031 587.675781 L 28.945312 280.121094 Z M 409.671875 -12.195312 "/>
</clipPath>
<clipPath id="clip3">
  <path d="M 409.671875 -12.195312 L 645.808594 295.359375 L 265.082031 587.675781 L 28.945312 280.121094 Z M 409.671875 -12.195312 "/>
</clipPath>
<clipPath id="clip4">
  <path d="M 225 153 L 230 153 L 230 160 L 225 160 Z M 225 153 "/>
</clipPath>
<clipPath id="clip5">
  <path d="M 409.671875 -12.195312 L 645.808594 295.359375 L 265.082031 587.675781 L 28.945312 280.121094 Z M 409.671875 -12.195312 "/>
</clipPath>
<clipPath id="clip6">
  <path d="M 409.671875 -12.195312 L 645.808594 295.359375 L 265.082031 587.675781 L 28.945312 280.121094 Z M 409.671875 -12.195312 "/>
</clipPath>
<clipPath id="clip7">
  <path d="M 124 239 L 127 239 L 127 248 L 124 248 Z M 124 239 "/>
</clipPath>
<clipPath id="clip8">
  <path d="M 409.671875 -12.195312 L 645.808594 295.359375 L 265.082031 587.675781 L 28.945312 280.121094 Z M 409.671875 -12.195312 "/>
</clipPath>
<clipPath id="clip9">
  <path d="M 409.671875 -12.195312 L 645.808594 295.359375 L 265.082031 587.675781 L 28.945312 280.121094 Z M 409.671875 -12.195312 "/>
</clipPath>
<clipPath id="clip10">
  <path d="M 325 313 L 329 313 L 329 322 L 325 322 Z M 325 313 "/>
</clipPath>
<clipPath id="clip11">
  <path d="M 409.671875 -12.195312 L 645.808594 295.359375 L 265.082031 587.675781 L 28.945312 280.121094 Z M 409.671875 -12.195312 "/>
</clipPath>
<clipPath id="clip12">
  <path d="M 409.671875 -12.195312 L 645.808594 295.359375 L 265.082031 587.675781 L 28.945312 280.121094 Z M 409.671875 -12.195312 "/>
</clipPath>
</defs>
<g id="surface1">
<g clip-path="url(#clip1)" clip-rule="nonzero">
<g clip-path="url(#clip2)" clip-rule="nonzero">
<g clip-path="url(#clip3)" clip-rule="nonzero">
<path style=" stroke:none;fill-rule:nonzero;fill:rgb(59.609985%,26.669312%,27.839661%);fill-opacity:1;" d="M 227.679688 159.246094 C 227.859375 159.632812 228.265625 160.074219 228.183594 160.394531 C 227.832031 161.714844 227.40625 163.007812 226.902344 164.277344 C 226.167969 166.175781 225.832031 168.582031 224.46875 169.804688 C 222.53125 171.542969 223.964844 173.726562 222.804688 175.480469 C 221.6875 177.164062 221.007812 179.199219 220.425781 181.171875 C 218.710938 186.953125 215.246094 191.914062 212.941406 197.421875 C 212.335938 198.875 211.101562 200.058594 210.160156 201.371094 C 208.703125 203.417969 207.242188 205.464844 205.574219 207.8125 C 207.308594 207.527344 207.765625 206.445312 208.417969 205.632812 C 210.140625 203.460938 211.871094 201.292969 213.464844 199.035156 C 218.019531 192.570312 224.152344 187.695312 229.980469 182.550781 C 232.554688 180.28125 235.472656 178.394531 238.261719 176.375 C 241.648438 173.917969 245.550781 172.484375 249.367188 170.890625 C 249.808594 170.742188 250.257812 170.644531 250.714844 170.59375 C 252.183594 170.320312 253.6875 171.355469 253.652344 172.746094 C 253.574219 175.714844 253.230469 178.476562 251.804688 181.339844 C 248.699219 187.582031 244.730469 193.21875 239.902344 198.246094 C 234.84375 203.519531 229.230469 208.289062 223.445312 212.820312 C 219.257812 216.105469 214.625 218.664062 210.195312 221.546875 C 207.65625 223.128906 205.246094 224.894531 202.972656 226.835938 C 201.671875 227.964844 200.566406 229.257812 199.652344 230.71875 C 198.738281 232.175781 198.058594 233.734375 197.613281 235.398438 C 196.894531 237.988281 196.207031 240.578125 195.402344 243.277344 C 200.496094 238.3125 205.542969 233.300781 210.703125 228.40625 C 212.554688 226.679688 214.53125 225.113281 216.632812 223.703125 C 219.476562 221.761719 222.449219 220.015625 225.378906 218.210938 C 226.804688 217.363281 228.347656 216.972656 230.003906 217.039062 C 230.355469 217.046875 230.675781 217.152344 230.960938 217.355469 C 231.246094 217.554688 231.453125 217.820312 231.578125 218.148438 C 232.398438 219.902344 232.601562 221.671875 231.75 223.484375 C 228.164062 231.070312 223.324219 237.746094 217.230469 243.515625 C 212.421875 248.105469 207.429688 252.542969 201.722656 256.066406 C 200.546875 256.789062 199.425781 257.585938 198.363281 258.464844 C 195.339844 260.972656 192.195312 263.300781 188.480469 264.6875 C 185.914062 265.644531 184.324219 267.511719 183.195312 269.859375 C 182.300781 271.714844 181.484375 273.609375 180.625 275.503906 C 182.46875 275.703125 182.914062 273.949219 184.007812 273.164062 C 191.074219 268.003906 198.386719 263.214844 205.941406 258.800781 C 215.28125 253.414062 225.316406 251.695312 235.933594 254.066406 C 236.105469 254.09375 236.269531 254.144531 236.429688 254.214844 C 236.589844 254.285156 236.734375 254.375 236.871094 254.484375 C 237.007812 254.59375 237.125 254.71875 237.230469 254.859375 C 237.332031 255 237.417969 255.152344 237.480469 255.3125 C 237.542969 255.472656 237.585938 255.640625 237.609375 255.8125 C 237.628906 255.988281 237.628906 256.160156 237.605469 256.332031 C 237.582031 256.503906 237.535156 256.671875 237.472656 256.832031 C 237.40625 256.992188 237.320312 257.140625 237.214844 257.28125 C 236.601562 258.253906 235.875 259.136719 235.039062 259.929688 C 228.933594 265.175781 222.511719 270.039062 215.53125 274.007812 C 210.332031 277 204.914062 279.503906 199.265625 281.519531 C 193.429688 283.566406 187.703125 286.050781 181.5625 287.269531 C 178.421875 287.894531 175.425781 289.230469 172.359375 290.234375 C 170.953125 290.691406 170.035156 291.667969 169.371094 292.941406 C 168.101562 295.382812 166.820312 297.820312 165.355469 300.652344 C 167.554688 299.46875 169.480469 298.523438 171.324219 297.429688 C 179.707031 292.445312 188.765625 289.078125 198.042969 286.265625 C 202.933594 284.8125 207.925781 283.972656 213.019531 283.746094 C 215.515625 283.621094 218.0625 284.085938 220.546875 284.507812 C 222.8125 284.882812 223.65625 286.75 222.484375 288.578125 C 219.324219 293.507812 215.476562 297.734375 210.136719 300.371094 C 206.625 302.105469 202.996094 303.558594 199.253906 304.722656 C 190.625 307.429688 181.898438 309.164062 172.847656 309.363281 C 170.796875 309.410156 168.75 309.914062 166.710938 310.273438 C 164.449219 310.671875 162.199219 311.519531 159.949219 311.511719 C 158.546875 311.46875 157.214844 311.746094 155.945312 312.339844 C 154.675781 312.9375 153.613281 313.785156 152.75 314.890625 C 150.625 317.480469 147.878906 319.640625 146.152344 323.417969 C 154.003906 321.859375 161.25 320.851562 168.347656 318.9375 C 175.25 317.070312 182.179688 315.335938 189.175781 313.921875 C 199.128906 311.910156 208.808594 308.910156 218.59375 306.261719 C 225.488281 304.390625 232.355469 302.429688 239.242188 300.59375 C 248.140625 298.226562 254.683594 292.828125 259.753906 285.097656 C 256.453125 280.554688 253.460938 275.914062 249.945312 271.71875 C 245.125 265.957031 241.851562 259.445312 239.433594 252.449219 C 238.125 248.757812 237.03125 245.011719 236.144531 241.199219 C 234.519531 233.9375 234.628906 226.558594 235.175781 219.171875 C 235.304688 217.421875 236.925781 216.355469 238.6875 216.820312 C 239.792969 217.109375 240.84375 217.539062 241.835938 218.105469 C 247.054688 221.105469 250.203125 226.03125 252.945312 231.054688 C 256.925781 238.316406 260.832031 245.695312 262.980469 253.730469 C 264.816406 260.582031 267.847656 267.125 268.082031 274.175781 C 269.539062 274.90625 270.050781 273.914062 270.496094 273.308594 C 273.507812 269.21875 276.464844 265.09375 279.371094 260.9375 C 279.984375 259.960938 280.484375 258.929688 280.875 257.84375 C 281.234375 256.964844 281.289062 255.976562 280.699219 255.203125 C 278.949219 253.074219 277.238281 250.886719 275.277344 248.964844 C 271.8125 245.558594 268.660156 242.003906 266.605469 237.496094 C 265.082031 234.160156 262.925781 231.121094 261.171875 227.886719 C 257.707031 221.496094 256.390625 214.492188 255.558594 207.378906 C 255.457031 206.53125 255.855469 205.625 256.019531 204.746094 C 256.585938 205.109375 257.125 205.714844 257.722656 205.789062 C 258.898438 205.933594 259.109375 204.929688 259.207031 204.027344 C 259.347656 202.734375 260.15625 202.039062 261.257812 201.578125 C 261.8125 201.347656 261.90625 201 261.453125 200.539062 C 260.242188 199.289062 259.230469 197.703125 257.023438 197.777344 C 257.050781 199.402344 257.199219 200.988281 257.054688 202.542969 C 256.984375 203.378906 256.398438 204.164062 256.046875 204.972656 C 255.773438 204.617188 255.304688 204.285156 255.261719 203.90625 C 254.90625 200.703125 254.613281 197.488281 254.34375 194.265625 C 254.261719 193.34375 255.367188 192.445312 256.148438 192.820312 C 257.59375 193.492188 259.179688 193.867188 260.3125 195.152344 C 264.117188 199.46875 267.996094 203.722656 271.777344 208.058594 C 272.488281 208.972656 273.074219 209.957031 273.542969 211.015625 C 277.78125 219.425781 281.695312 227.984375 284.371094 237.042969 C 285.21875 239.90625 285.648438 242.890625 286.277344 245.851562 C 288.625 243.039062 291.367188 237.34375 292.4375 232.722656 C 294.101562 225.707031 293.949219 228.15625 290.449219 222.621094 C 280.996094 212.859375 276.878906 200.351562 272.535156 187.945312 C 271.726562 185.761719 271.296875 183.503906 271.242188 181.175781 C 271.210938 176.570312 270.875 171.960938 271.847656 167.40625 C 272.234375 165.601562 272.449219 163.761719 272.855469 161.960938 C 273.097656 160.902344 273.03125 159.605469 274.367188 159.105469 C 275.921875 158.523438 278.4375 159.03125 279.441406 160.335938 C 280.699219 161.972656 282.003906 163.625 282.929688 165.453125 C 287.199219 173.890625 291.25 182.421875 293.558594 191.664062 C 294.207031 194.253906 295.117188 196.777344 295.917969 199.351562 C 297.226562 198.78125 296.863281 197.738281 296.761719 196.949219 C 296.070312 191.613281 296.667969 186.375 297.734375 181.144531 C 298.890625 175.519531 299.511719 169.804688 301.292969 164.269531 C 302.929688 159.164062 306.089844 154.839844 308 149.917969 C 308.863281 147.78125 309.875 145.71875 311.035156 143.730469 C 311.800781 142.386719 312.265625 140.664062 314.136719 140.273438 C 315.46875 141.328125 316.082031 142.804688 316.402344 144.371094 C 317.632812 150.730469 318.015625 157.089844 317.066406 163.570312 C 316.503906 167.417969 315.917969 171.265625 315.308594 175.105469 C 313.785156 184.578125 310.304688 193.238281 305.816406 202.339844 C 308.574219 200.582031 309.660156 198.300781 310.855469 196.203125 C 314.738281 189.351562 320.363281 184 325.859375 178.558594 C 329.773438 174.683594 335.011719 173.382812 340.097656 171.894531 C 340.871094 171.671875 341.902344 172.691406 341.828125 173.589844 C 341.753906 174.488281 341.824219 175.503906 341.488281 176.320312 C 339.402344 181.40625 337.753906 186.695312 334.269531 191.125 C 331.257812 194.925781 328.410156 198.859375 325.484375 202.726562 C 324.234375 204.386719 322.816406 205.890625 321.238281 207.238281 C 319.332031 208.867188 317.71875 210.867188 316.15625 212.851562 C 312.832031 217.054688 309.050781 220.851562 304.285156 223.230469 C 298.109375 226.320312 294.863281 231.023438 294.414062 237.855469 C 295.492188 238.054688 295.820312 237.085938 296.210938 236.507812 C 299.214844 232.050781 303.433594 228.757812 307.175781 225.027344 C 310.308594 221.90625 314.464844 220.230469 318.285156 218.085938 C 324.433594 214.632812 331.214844 213.253906 337.878906 211.480469 C 339.394531 211.078125 341.089844 211.285156 342.703125 211.316406 C 343.78125 211.335938 344.960938 212.761719 344.648438 213.71875 C 344.109375 215.425781 343.835938 217.1875 342.414062 218.648438 C 339.375 221.765625 336.78125 225.316406 333.722656 228.433594 C 328.878906 233.375 323.625 237.824219 317.125 240.585938 C 314.152344 241.847656 311.28125 243.34375 308.335938 244.671875 C 303.886719 246.671875 299.335938 248.199219 294.316406 247.667969 C 292.984375 247.523438 291.605469 247.820312 290.214844 247.917969 C 287.636719 252.734375 286.128906 257.886719 282.476562 261.996094 C 284.332031 262.757812 285.300781 261.621094 286.316406 260.964844 C 292.117188 257.199219 298.195312 253.945312 304.542969 251.199219 C 307.519531 249.902344 310.617188 249.035156 313.835938 248.59375 C 317.726562 248.058594 321.59375 247.375 325.476562 246.867188 C 326.84375 246.703125 328.214844 246.679688 329.589844 246.800781 C 329.9375 246.835938 330.261719 246.941406 330.566406 247.113281 C 330.871094 247.285156 331.125 247.511719 331.335938 247.789062 C 331.542969 248.070312 331.6875 248.378906 331.765625 248.71875 C 331.84375 249.058594 331.851562 249.402344 331.785156 249.746094 C 331.378906 252.371094 330.246094 254.589844 328.121094 256.207031 C 313.28125 267.511719 297.035156 275.152344 277.929688 275.054688 C 275.367188 275.039062 273.679688 276 271.898438 277.71875 C 268.285156 281.234375 265.664062 285.597656 261.917969 288.988281 C 260.0625 290.671875 258.382812 292.539062 256.050781 294.902344 C 257.632812 294.550781 258.539062 294.339844 259.429688 294.128906 C 260.550781 293.859375 261.703125 293.664062 262.789062 293.289062 C 272.375 289.984375 281.957031 286.65625 291.53125 283.3125 C 291.964844 283.160156 292.378906 282.957031 292.804688 282.773438 C 302.347656 278.722656 311.9375 274.773438 321.421875 270.597656 C 331.550781 266.136719 341.59375 261.488281 351.648438 256.859375 C 354.78125 255.414062 357.949219 253.992188 360.613281 251.613281 C 360.28125 250.28125 359.597656 248.75 359.546875 247.210938 C 359.382812 240.761719 359.363281 234.304688 359.394531 227.859375 C 359.394531 226.011719 359.613281 224.191406 360.046875 222.394531 C 362.710938 211.867188 366.554688 201.742188 371.878906 192.300781 C 374.582031 187.511719 378.300781 183.289062 381.613281 178.847656 C 382 178.320312 382.699219 178.011719 383.269531 177.632812 C 383.519531 177.492188 383.789062 177.402344 384.074219 177.363281 C 384.359375 177.328125 384.640625 177.339844 384.917969 177.410156 C 385.199219 177.476562 385.457031 177.59375 385.691406 177.761719 C 385.925781 177.925781 386.121094 178.128906 386.28125 178.367188 C 387.4375 180.386719 388.167969 182.550781 388.46875 184.859375 C 389.140625 190.671875 388.601562 196.371094 386.847656 201.953125 C 386.234375 203.933594 385.472656 205.867188 384.769531 207.816406 C 382.894531 213.007812 381.121094 218.234375 379.117188 223.371094 C 376.015625 231.308594 372.625 239.113281 367.527344 246.042969 C 367.1875 246.503906 367.082031 247.144531 366.855469 247.730469 C 367.261719 247.804688 367.546875 247.960938 367.703125 247.878906 C 372.394531 245.441406 377.125 243.082031 381.734375 240.503906 C 383.371094 239.609375 384.785156 238.441406 385.980469 237.007812 C 387.171875 235.570312 388.058594 233.96875 388.636719 232.195312 C 390.648438 226.292969 392.546875 220.398438 392.664062 214.066406 C 392.800781 207.253906 394.996094 200.882812 397.703125 194.78125 C 399.835938 189.972656 401.957031 185.066406 405.402344 180.949219 C 406.554688 179.570312 407.652344 178.140625 408.777344 176.738281 C 411.085938 173.859375 413.515625 171.066406 415.679688 168.085938 C 419.515625 162.828125 424.40625 158.609375 428.828125 153.921875 C 429.445312 153.269531 430.320312 152.855469 431.109375 152.367188 C 431.78125 151.941406 433.046875 152.683594 433.175781 153.554688 C 433.691406 156.785156 433.558594 159.984375 432.78125 163.160156 C 432.417969 164.496094 431.960938 165.796875 431.40625 167.0625 C 426.804688 178.089844 422.292969 189.15625 417.496094 200.101562 C 415.84375 203.871094 413.332031 207.257812 411.457031 210.933594 C 408.40625 216.890625 404.582031 222.34375 399.613281 228.769531 C 407.640625 224.324219 414.34375 220.5625 421.097656 216.898438 C 422.4375 216.175781 423.046875 215.285156 423.492188 213.832031 C 424.667969 210.085938 425.503906 206.265625 426 202.367188 C 426.773438 195.847656 428.65625 189.835938 432.652344 184.441406 C 434.886719 181.480469 436.65625 178.261719 437.960938 174.785156 C 439.472656 170.582031 442.503906 167.328125 444.21875 163.265625 C 445.175781 160.996094 447.003906 159.007812 448.722656 157.15625 C 453.566406 151.933594 458.386719 146.679688 464.152344 142.386719 C 465.917969 141.070312 467.492188 140 469.753906 140.886719 C 470.890625 141.328125 471.96875 141.136719 473.054688 140.542969 C 473.800781 140.136719 474.292969 140.664062 474.460938 141.398438 C 474.847656 143.023438 474.726562 144.609375 474.097656 146.15625 C 472.8125 149.351562 471.582031 152.578125 470.160156 155.714844 C 468.546875 159.265625 466.757812 162.742188 465.007812 166.226562 C 464.316406 167.671875 463.539062 169.070312 462.671875 170.421875 C 460.621094 173.488281 458.050781 176.171875 456.832031 179.773438 C 456.40625 181.027344 455.417969 182.148438 454.464844 183.164062 C 449.617188 188.308594 445.570312 194.015625 441.785156 199.953125 C 440.554688 201.882812 439.125 203.726562 437.199219 205.085938 C 435.992188 205.886719 435.1875 206.984375 434.78125 208.375 C 440.78125 205.050781 446.621094 201.519531 451.890625 197.089844 C 452.988281 196.167969 453.800781 195.328125 454.253906 193.886719 C 454.710938 192.445312 455.75 191.0625 456.632812 189.746094 C 462.976562 180.199219 471.566406 172.933594 480.546875 166.011719 C 489.523438 159.089844 499.472656 153.792969 509.0625 147.890625 C 512.835938 145.605469 516.84375 143.851562 521.082031 142.632812 C 522.414062 142.238281 523.769531 141.941406 525.144531 141.742188 C 526.292969 141.574219 527.429688 141.703125 528.316406 142.652344 C 529.050781 143.433594 528.90625 144.804688 527.742188 146.410156 C 525.425781 149.574219 523.164062 152.789062 520.726562 155.867188 C 518.453125 158.746094 516.046875 161.453125 513.105469 163.800781 C 507.554688 168.222656 502.40625 173.152344 497.074219 177.855469 C 496.214844 178.617188 495.3125 179.328125 494.371094 179.984375 C 486.015625 185.726562 477.453125 191.121094 467.925781 194.734375 C 465.773438 195.546875 463.730469 196.644531 461.625 197.585938 C 459.792969 198.40625 457.945312 199.195312 456.195312 199.960938 C 456.261719 201.460938 457.171875 200.9375 457.664062 200.867188 C 464.777344 199.855469 471.902344 199.785156 479.035156 200.660156 C 481.078125 200.910156 483.1875 200.78125 485.242188 201.019531 C 493.121094 201.914062 500.4375 204.496094 507.332031 208.367188 C 509.128906 209.375 511.058594 210.136719 512.882812 211.101562 C 513.515625 211.421875 514.023438 211.882812 514.402344 212.484375 C 514.785156 213.085938 514.980469 213.746094 514.992188 214.457031 C 515.03125 214.863281 515.003906 215.269531 514.914062 215.667969 C 514.820312 216.070312 514.671875 216.445312 514.464844 216.796875 C 514.253906 217.152344 514 217.464844 513.691406 217.738281 C 513.386719 218.007812 513.042969 218.226562 512.667969 218.394531 C 509.304688 220.023438 505.753906 220.945312 502.015625 221.152344 C 492.074219 221.585938 482.234375 221.164062 472.472656 218.902344 C 462.597656 216.613281 452.492188 215.644531 442.460938 214.296875 C 439.746094 213.933594 436.960938 214.613281 434.183594 214.039062 C 433.203125 213.835938 431.921875 214.429688 430.953125 214.96875 C 427.769531 216.75 424.667969 218.671875 421.789062 220.390625 C 421.535156 221.375 421.789062 221.503906 422.453125 221.496094 C 424.289062 221.476562 426.152344 221.699219 427.984375 221.578125 C 437.847656 220.949219 447.179688 223.507812 456.496094 226.148438 C 458.695312 226.777344 460.742188 227.910156 462.921875 228.621094 C 468.433594 230.410156 473.652344 232.765625 478.191406 236.476562 C 479.234375 237.332031 480.910156 237.523438 481.746094 238.492188 C 483.261719 240.246094 486.589844 240.546875 486.222656 243.851562 C 487.675781 244.675781 489.234375 245.824219 488.773438 247.527344 C 488.171875 249.761719 485.851562 250.234375 483.820312 250.617188 C 479.703125 251.449219 475.574219 251.535156 471.429688 250.875 C 465.539062 249.867188 459.546875 249.535156 453.753906 247.898438 C 448.417969 246.433594 443.277344 244.457031 438.335938 241.96875 C 430.378906 237.894531 422.710938 233.175781 414.21875 230.175781 C 413.757812 230.03125 413.390625 229.761719 413.117188 229.363281 C 412.839844 228.96875 412.71875 228.527344 412.742188 228.046875 C 412.84375 226.496094 412.226562 225.707031 410.902344 226.511719 C 405.816406 229.589844 400.472656 232.304688 396.082031 236.277344 C 395.914062 237.332031 396.640625 237.503906 397.289062 237.667969 C 397.957031 237.855469 398.640625 237.984375 399.332031 238.050781 C 409.324219 238.800781 418.695312 241.863281 427.785156 245.832031 C 433.679688 248.410156 439.632812 250.890625 444.851562 254.792969 C 445.933594 255.601562 447.304688 256.019531 448.472656 256.730469 C 450.632812 258.039062 452.773438 259.386719 454.851562 260.816406 C 455.046875 260.941406 455.210938 261.097656 455.34375 261.289062 C 455.472656 261.484375 455.5625 261.695312 455.605469 261.921875 C 455.648438 262.152344 455.648438 262.378906 455.597656 262.609375 C 455.546875 262.835938 455.453125 263.042969 455.316406 263.234375 C 453.488281 266.132812 450.96875 267.820312 447.40625 268.003906 C 438.902344 268.417969 430.890625 266.332031 423.277344 262.917969 C 418.460938 260.769531 413.371094 259.273438 408.816406 256.460938 C 405.308594 254.304688 401.460938 252.707031 397.746094 250.898438 C 393.210938 248.691406 388.664062 246.507812 384.105469 244.351562 C 383.222656 243.929688 382.347656 244.078125 381.449219 244.457031 C 376.375 246.605469 372.066406 249.960938 367.464844 252.710938 C 367.726562 253.324219 367.792969 253.660156 367.886719 253.671875 C 371.320312 254.011719 374.753906 254.375 378.195312 254.621094 C 385.4375 255.132812 392.085938 257.71875 398.664062 260.476562 C 400.542969 261.265625 402.140625 262.726562 403.828125 263.917969 C 407.773438 266.707031 411.421875 269.925781 416.027344 271.71875 C 417.289062 272.214844 418.367188 273.191406 419.554688 273.902344 C 421.257812 274.914062 422.210938 276.371094 422.320312 278.402344 C 422.394531 279.769531 422.652344 281.128906 422.804688 282.375 C 419.910156 284.75 416.90625 285.214844 413.558594 284.347656 C 409.996094 283.421875 406.328125 282.882812 402.835938 281.765625 C 393.878906 278.917969 384.886719 276.183594 376.503906 271.640625 C 369.246094 267.707031 361.476562 264.734375 353.988281 261.214844 C 353.378906 260.882812 352.726562 260.722656 352.03125 260.730469 C 351.335938 260.738281 350.6875 260.914062 350.085938 261.261719 C 348.65625 261.996094 347.199219 262.683594 345.808594 263.492188 C 345.46875 263.8125 345.339844 264.207031 345.421875 264.667969 C 345.558594 265.097656 345.84375 265.375 346.28125 265.5 C 350.113281 265.578125 353.246094 267.796875 356.734375 268.910156 C 368.667969 272.710938 378.128906 280.457031 387.464844 288.367188 C 389.089844 289.742188 390.046875 291.59375 390.714844 293.582031 C 391.382812 295.566406 390.164062 297.644531 388.195312 297.597656 C 383.128906 297.5 378.066406 297.46875 373.007812 296.980469 C 368.144531 296.515625 363.648438 294.910156 359.6875 291.753906 C 354.632812 287.726562 349.394531 283.914062 344.152344 280.140625 C 339.992188 277.140625 337.03125 273.0625 333.820312 269.019531 L 311.949219 278.867188 C 312.011719 280.074219 312.714844 280.222656 313.410156 280.234375 C 318.3125 280.328125 322.941406 281.675781 327.578125 283.121094 C 339.691406 286.902344 351.078125 292.445312 362.675781 297.476562 C 367.742188 299.675781 372.835938 301.824219 377.398438 305.015625 C 378.867188 306.042969 380.277344 306.003906 381.898438 305.105469 C 387.945312 301.746094 394.042969 298.445312 400.644531 296.265625 C 405.230469 294.746094 409.824219 293.148438 414.558594 292.207031 C 418.589844 291.425781 422.820312 291.253906 426.957031 291.269531 C 434.558594 291.300781 442.179688 291.542969 449.464844 294.117188 C 450.523438 294.554688 451.511719 295.105469 452.441406 295.773438 C 453.101562 296.191406 453.164062 297.722656 452.613281 298.277344 C 452.332031 298.640625 452.003906 298.960938 451.640625 299.238281 C 446.246094 302.382812 440.773438 305.464844 434.613281 306.757812 C 425.8125 308.628906 417.09375 310.949219 408.128906 312.023438 C 403.089844 312.625 398.070312 313.265625 392.246094 312.183594 C 395.574219 315.832031 399.40625 317.289062 402.972656 319.128906 C 403.515625 319.414062 404.367188 319.328125 405.003906 319.15625 C 406.332031 318.789062 407.613281 318.25 408.910156 317.769531 C 416.941406 314.726562 425.230469 312.769531 433.773438 311.898438 C 443.199219 310.984375 452.652344 311.089844 462.09375 311.632812 C 465.289062 311.820312 468.539062 312.238281 471.125 314.589844 C 472.78125 316.097656 472.691406 318.710938 470.660156 319.769531 C 468.632812 320.867188 466.535156 321.816406 464.371094 322.609375 C 452.953125 326.574219 441.132812 328.359375 429.105469 328.964844 C 427.492188 329.046875 425.886719 329.121094 424.269531 329.230469 C 423.667969 329.277344 422.746094 329.285156 422.882812 330.085938 C 422.972656 330.59375 423.777344 331.027344 424.335938 331.378906 C 424.746094 331.589844 425.179688 331.738281 425.636719 331.820312 C 432.785156 333.847656 439.105469 337.679688 445.488281 341.285156 C 448.207031 342.820312 450.335938 345.488281 452.570312 347.796875 C 457.449219 352.78125 461.253906 358.480469 463.988281 364.898438 C 464.433594 365.945312 464.96875 367.273438 463.941406 368.070312 C 462.914062 368.871094 461.578125 369.570312 460.089844 369.085938 C 459.875 369.015625 459.660156 368.921875 459.445312 368.847656 C 449.527344 365.628906 440.023438 361.582031 432.003906 354.734375 C 427.804688 351.148438 423.601562 347.546875 419.644531 343.703125 C 417.167969 341.289062 415.640625 338.097656 414.089844 335.003906 C 413.207031 333.128906 412.226562 331.300781 411.152344 329.523438 C 410.410156 328.355469 409.273438 327.453125 407.710938 327.609375 C 407.335938 327.707031 407.023438 327.898438 406.761719 328.183594 C 408.445312 331.980469 409.816406 335.9375 411.972656 339.457031 C 415.398438 345.058594 417.765625 350.886719 418.507812 357.445312 C 418.886719 360.855469 419.753906 364.226562 420.59375 367.5625 C 421.429688 370.898438 420.578125 373.980469 419.625 377.03125 C 419.234375 378.253906 418.109375 379.320312 417.148438 380.289062 C 417.023438 380.410156 416.878906 380.5 416.714844 380.5625 C 416.550781 380.621094 416.382812 380.640625 416.207031 380.625 C 416.035156 380.613281 415.871094 380.5625 415.71875 380.472656 C 415.570312 380.386719 415.441406 380.273438 415.339844 380.128906 C 414.398438 378.824219 413.324219 377.582031 412.601562 376.160156 C 409.261719 369.59375 405.285156 363.355469 402.535156 356.484375 C 400.550781 351.53125 399.011719 346.515625 398.253906 341.222656 C 397.332031 334.820312 396.1875 328.457031 397.082031 321.949219 C 397.324219 320.203125 396.300781 319.382812 395.085938 318.714844 C 393.074219 317.605469 390.960938 316.679688 388.9375 315.59375 C 385.144531 313.558594 381.382812 311.464844 377.589844 309.390625 C 377.253906 310.675781 377.855469 311.683594 378.367188 312.707031 C 382.996094 322.003906 386.425781 331.808594 390.519531 341.339844 C 392.0625 344.9375 393.609375 348.476562 394.566406 352.324219 C 395.480469 355.996094 395.242188 359.113281 392.890625 362.074219 C 392.484375 362.632812 392.148438 363.234375 391.886719 363.871094 C 391.441406 364.828125 391.664062 366.355469 390.023438 366.273438 C 388.78125 366.210938 388.023438 365.214844 387.289062 364.34375 C 381.410156 357.417969 377.023438 349.648438 374.128906 341.035156 C 372.523438 336.25 370.832031 331.46875 369.113281 326.710938 C 368 323.625 367.59375 320.414062 367.40625 317.195312 C 367.191406 313.53125 367.207031 309.847656 367.238281 306.175781 C 367.25 304.878906 366.828125 303.902344 365.792969 303.261719 C 364.625 302.53125 363.40625 301.898438 362.132812 301.367188 C 358.511719 299.910156 354.898438 298.441406 351.707031 296.28125 C 350.421875 297.101562 351.066406 297.960938 351.421875 298.621094 C 355.773438 306.734375 359.628906 315.054688 362.542969 323.804688 C 363.566406 326.859375 364.804688 329.84375 365.929688 332.863281 C 368.3125 339.285156 368.53125 345.9375 367.953125 352.652344 C 367.773438 354.78125 365.023438 356.015625 363.144531 354.957031 C 360.628906 353.59375 358.714844 351.644531 357.402344 349.105469 C 352.207031 338.8125 346.746094 328.628906 345.410156 316.871094 C 345.027344 313.460938 344.152344 310.074219 343.394531 306.703125 C 342.609375 303.269531 342.886719 299.828125 343.097656 296.359375 C 343.289062 293.21875 342.546875 292.152344 339.746094 291.109375 C 337.15625 290.148438 334.5625 289.183594 331.945312 288.328125 C 331.121094 288.0625 329.949219 287.824219 329.328125 288.207031 C 328.089844 288.96875 328.9375 290.289062 329.265625 291.242188 C 330.3125 294.289062 331.539062 297.273438 332.695312 300.28125 C 333.589844 302.65625 334.382812 305.070312 335.441406 307.359375 C 338.28125 313.546875 339.367188 320.121094 340.015625 326.808594 C 340.214844 328.878906 340.308594 330.972656 340.691406 333.007812 C 341.199219 335.554688 341.257812 338.113281 340.859375 340.679688 C 340.460938 343.246094 339.636719 345.667969 338.382812 347.945312 C 335.625 347.597656 333.859375 345.710938 332.804688 343.433594 C 328.75 334.671875 324.742188 325.945312 323.269531 316.175781 C 322.0625 308.160156 321.832031 300.152344 321.457031 292.105469 C 321.367188 289.863281 321.925781 287.582031 322.152344 285.472656 C 321.9375 285.089844 321.867188 284.765625 321.710938 284.714844 C 321.265625 284.59375 320.796875 284.628906 320.339844 284.558594 C 316.46875 283.972656 312.605469 283.339844 308.730469 282.792969 C 305.226562 282.296875 301.917969 282.875 298.59375 284.210938 C 292.398438 286.695312 286.085938 288.898438 279.796875 291.140625 C 273.058594 293.535156 266.351562 295.984375 259.554688 298.1875 C 250.582031 301.097656 241.730469 304.523438 232.28125 305.65625 C 227.898438 307.789062 222.90625 307.917969 218.421875 309.886719 C 215.285156 311.261719 211.792969 311.804688 208.46875 312.746094 C 205.378906 313.625 202.300781 314.539062 199.246094 315.429688 C 199.332031 316.378906 199.929688 316.601562 200.613281 316.835938 C 206.691406 318.898438 213.050781 320.214844 218.605469 323.667969 C 218.816406 323.757812 219.035156 323.828125 219.257812 323.882812 C 226.058594 326.636719 226.089844 326.6875 232.710938 323.035156 C 238.351562 319.921875 243.886719 316.617188 249.515625 313.480469 C 255.089844 310.375 261.136719 309.023438 267.476562 309.128906 C 270.9375 309.15625 274.386719 309.386719 277.824219 309.824219 C 285.125 310.8125 292.421875 311.902344 299.675781 313.191406 C 304.890625 314.117188 309.863281 315.910156 314.738281 318.039062 C 316.65625 318.878906 317.265625 319.585938 316.195312 321.511719 C 315.675781 322.4375 316.632812 323.152344 317.144531 323.882812 C 317.78125 324.785156 317.566406 325.566406 316.75 326.25 C 312.863281 329.511719 308.015625 330.34375 303.308594 331.242188 C 296.507812 332.542969 289.617188 333.316406 282.792969 334.496094 C 275.488281 335.738281 268.09375 335.710938 260.742188 336.214844 C 257.335938 336.445312 253.863281 335.882812 250.4375 335.539062 C 247.925781 335.285156 245.4375 334.800781 242.355469 334.335938 C 243.398438 336.042969 244.660156 336.792969 245.828125 337.609375 C 247.527344 338.800781 249.222656 340.019531 251.007812 341.070312 C 253.390625 342.480469 255.828125 343.730469 258.257812 345.035156 C 260.90625 344.265625 263.511719 343.371094 266.191406 342.761719 C 280.484375 339.503906 294.882812 338.226562 309.46875 340.550781 C 317.496094 341.835938 325.058594 344.6875 332.371094 347.964844 C 337.363281 350.203125 341.816406 353.636719 346.480469 356.574219 C 346.8125 356.78125 347.179688 357.484375 347.070312 357.726562 C 346.804688 358.285156 346.304688 359.023438 345.792969 359.121094 C 343.761719 359.535156 341.707031 359.785156 339.636719 359.875 C 336.652344 359.964844 333.660156 359.933594 330.671875 359.738281 C 320.332031 359.019531 309.984375 358.339844 299.667969 357.390625 C 289.753906 356.507812 280.0625 354.550781 270.585938 351.515625 C 269.304688 351.109375 267.945312 350.882812 265.679688 350.355469 C 266.964844 351.625 267.496094 352.277344 268.144531 352.777344 C 272.703125 356.300781 277.375 359.695312 281.253906 364.011719 C 282.015625 364.859375 283.019531 365.496094 283.925781 366.210938 C 284.460938 366.667969 285.066406 366.992188 285.738281 367.183594 C 286.414062 367.378906 287.097656 367.421875 287.792969 367.316406 C 289.390625 367.078125 291.011719 366.960938 292.597656 366.671875 C 304.269531 364.542969 316 364.742188 327.746094 365.773438 C 334.671875 366.386719 341.296875 368.523438 347.992188 370.175781 C 355.144531 371.988281 362.082031 374.421875 368.800781 377.476562 C 371.152344 378.53125 373.230469 379.921875 375.335938 381.308594 C 375.894531 381.746094 376.179688 382.316406 376.1875 383.023438 C 376.121094 383.539062 375.449219 384.203125 374.917969 384.382812 C 371.378906 385.574219 367.746094 386.09375 364.015625 385.933594 C 359.417969 385.761719 354.824219 385.289062 350.21875 384.949219 C 348.84375 384.851562 347.460938 384.757812 346.082031 384.714844 C 330.566406 384.257812 315.359375 382.152344 300.855469 376.257812 C 299.378906 375.660156 297.769531 375.386719 296.195312 375.054688 C 295.808594 374.976562 295.34375 375.296875 294.5625 375.542969 C 298.34375 379.304688 302 382.949219 305.671875 386.582031 C 307.25 388.148438 309.121094 388.660156 311.335938 388.53125 C 323.445312 387.71875 335.210938 389.808594 346.859375 392.886719 C 351.085938 394.007812 355.351562 394.980469 359.585938 396.078125 C 368.34375 398.34375 376.539062 401.871094 383.964844 407.09375 C 385.851562 408.425781 387.554688 410.027344 389.894531 410.597656 C 390.34375 410.71875 390.757812 410.910156 391.144531 411.167969 C 393.949219 412.921875 396.589844 416.605469 395.65625 417.519531 C 393.613281 419.523438 390.902344 419.257812 388.453125 418.921875 C 383.910156 418.292969 379.367188 417.726562 374.859375 416.679688 C 368.382812 415.171875 361.972656 413.453125 355.515625 411.902344 C 346.792969 409.804688 338.199219 407.183594 330.011719 403.40625 C 324.394531 400.800781 318.632812 398.449219 313.242188 394.195312 C 313.984375 397.6875 316.082031 399.738281 317.625 402.070312 C 319.167969 404.398438 321 406.425781 322.472656 408.765625 C 323.84375 410.953125 325.613281 411.824219 328.144531 412.03125 C 336.445312 412.703125 344.59375 414.15625 352.296875 417.503906 C 356.300781 419.238281 360.195312 421.160156 364.035156 423.273438 C 371.34375 427.289062 378.027344 432.179688 384.734375 437.0625 C 385.296875 437.46875 385.828125 437.984375 386.457031 438.214844 C 393.390625 440.761719 397.015625 446.871094 401.566406 451.992188 C 402.234375 452.753906 401.640625 454.640625 400.648438 454.863281 C 399.542969 455.113281 398.34375 455.480469 397.265625 455.28125 C 393 454.390625 388.613281 453.660156 384.535156 452.15625 C 376.808594 449.292969 369.03125 446.554688 361.597656 442.921875 C 353.5 438.953125 345.742188 434.574219 338.757812 428.851562 C 337.175781 427.554688 335.5 426.378906 333.542969 424.902344 C 333.613281 426.015625 333.921875 427.054688 334.472656 428.023438 C 335.023438 428.988281 335.757812 429.789062 336.675781 430.417969 C 345.242188 436.804688 350.761719 445.527344 355.328125 454.90625 C 357.957031 460.296875 360.386719 465.773438 362.710938 471.292969 C 365.234375 477.292969 366.03125 483.75 367.160156 490.101562 C 367.730469 493.257812 367.835938 496.523438 368.078125 499.742188 C 368.226562 501.347656 368.273438 502.960938 368.210938 504.574219 C 367.992188 508.671875 364.535156 510.433594 361.023438 508.160156 C 359.078125 506.902344 357.339844 505.398438 355.820312 503.648438 C 351.539062 498.761719 348.351562 493.179688 345.285156 487.519531 C 342.402344 482.242188 340.066406 476.730469 338.273438 470.988281 C 336.480469 465.246094 335.265625 459.386719 334.628906 453.402344 C 334.007812 447.671875 333.183594 441.960938 332.359375 436.25 C 331.527344 430.457031 329.375 425.257812 324.980469 420.75 C 324.703125 423.882812 325.351562 426.722656 325.523438 429.59375 C 325.679688 432.351562 325.863281 435.109375 326.113281 437.859375 C 327.035156 447.921875 325.027344 457.582031 322.097656 467.101562 C 320.746094 471.496094 319.171875 475.828125 317.625 480.164062 C 317.558594 480.355469 317.46875 480.535156 317.359375 480.703125 C 317.246094 480.871094 317.117188 481.023438 316.964844 481.160156 C 316.816406 481.296875 316.648438 481.410156 316.46875 481.507812 C 316.289062 481.601562 316.101562 481.667969 315.902344 481.714844 C 315.707031 481.761719 315.507812 481.78125 315.304688 481.777344 C 315.101562 481.773438 314.902344 481.742188 314.707031 481.6875 C 314.511719 481.632812 314.328125 481.554688 314.152344 481.453125 C 313.976562 481.351562 313.816406 481.230469 313.671875 481.085938 C 310.703125 478.382812 308.804688 474.925781 307.667969 471.175781 C 303.992188 459.0625 302.972656 446.757812 305.667969 434.285156 C 306.878906 428.671875 307.632812 422.976562 310.308594 417.714844 C 311.644531 415.09375 312.148438 412.042969 312.964844 409.167969 C 313.871094 405.964844 314.304688 402.828125 311.125 400.476562 C 308.582031 395.488281 304.570312 391.667969 300.671875 387.769531 C 299.707031 386.796875 298.972656 385.605469 298.046875 384.59375 C 297.117188 383.578125 296.320312 382.445312 294.449219 382.375 C 297.316406 388.894531 298.527344 395.679688 299.191406 402.585938 C 300 410.871094 299.527344 419.167969 298.808594 427.414062 C 298.574219 430.125 297.632812 432.808594 296.828125 435.445312 C 295.082031 441.152344 293.234375 446.839844 291.386719 452.519531 C 290.921875 453.957031 289.277344 454.296875 288.027344 453.382812 C 286.484375 452.25 285.324219 450.902344 284.761719 449.046875 C 282.960938 443.082031 281.128906 437.179688 280.339844 430.933594 C 279.410156 423.585938 279.140625 416.25 279.136719 408.863281 C 279.140625 402.84375 279.597656 396.839844 281.175781 391.074219 C 282.699219 385.484375 283.425781 379.769531 284.683594 374.152344 C 284.8125 373.558594 284.761719 372.707031 284.421875 372.261719 C 283.304688 370.804688 282.179688 369.296875 280.777344 368.113281 C 274.976562 363.199219 269.070312 358.414062 261.710938 353.652344 C 267.949219 363.058594 269.652344 372.886719 271.339844 382.648438 C 271.996094 386.445312 271.585938 390.464844 271.394531 394.367188 C 271.09375 400.339844 270.351562 406.277344 270.480469 412.296875 C 270.613281 419.027344 269.171875 425.578125 266.964844 431.945312 C 266.902344 432.105469 266.828125 432.261719 266.730469 432.40625 C 266.636719 432.546875 266.527344 432.679688 266.398438 432.796875 C 266.273438 432.917969 266.136719 433.019531 265.988281 433.109375 C 265.839844 433.195312 265.683594 433.265625 265.515625 433.316406 C 265.351562 433.367188 265.183594 433.398438 265.011719 433.414062 C 264.839844 433.425781 264.667969 433.417969 264.496094 433.390625 C 264.324219 433.363281 264.160156 433.320312 264 433.253906 C 263.839844 433.1875 263.6875 433.105469 263.546875 433.007812 C 261.84375 431.816406 260.195312 430.578125 259.316406 428.566406 C 255.117188 419.019531 251.878906 409.28125 251.546875 398.671875 C 251.320312 391.300781 250.636719 383.945312 251.007812 376.5625 C 251.148438 373.800781 251.304688 371.007812 251.851562 368.3125 C 253.101562 362.179688 253.226562 355.949219 253.851562 349.765625 C 254.007812 348.210938 253.625 347.0625 252.308594 346.238281 C 247.425781 343.179688 242.472656 340.230469 237.695312 337.015625 C 235.183594 335.332031 232.671875 333.824219 229.691406 333.066406 C 229.0625 334.285156 229.984375 335.179688 230.449219 336.027344 C 234.503906 343.390625 236.402344 351.488281 238.585938 359.488281 C 239.378906 362.378906 239.972656 365.316406 240.691406 368.21875 C 242.152344 374.28125 242.132812 380.527344 241.863281 386.753906 C 241.625 392.027344 241.199219 397.34375 240.550781 402.574219 C 240.1875 405.5 239.183594 408.351562 238.433594 411.371094 C 235.613281 411.0625 234.261719 409.351562 233.097656 407.253906 C 227.578125 397.300781 227.304688 397.117188 224.527344 384.855469 C 222.488281 375.867188 220.503906 366.859375 219.398438 357.675781 C 218.710938 351.464844 218.675781 345.253906 219.292969 339.035156 C 219.539062 336.285156 219.6875 333.519531 220.011719 330.785156 C 220.125 329.773438 220.125 328.847656 219.269531 328.347656 C 213.894531 325.242188 208.296875 322.621094 202.207031 321.234375 C 201.871094 321.160156 201.40625 321.535156 201.046875 321.777344 C 200.953125 321.851562 200.964844 322.199219 201.03125 322.390625 C 201.167969 322.824219 201.347656 323.238281 201.574219 323.632812 C 202.167969 324.617188 202.804688 325.574219 203.414062 326.550781 C 208.277344 334.332031 211.023438 342.746094 211.273438 351.992188 C 211.417969 357.519531 211.914062 363.027344 212.179688 368.550781 C 212.292969 370.851562 212.203125 373.160156 212.21875 375.464844 C 212.246094 380.449219 209.59375 384.171875 206.480469 387.671875 C 205.960938 388.261719 204.484375 388.171875 204.019531 387.480469 C 203.234375 386.355469 202.3125 385.253906 201.851562 383.992188 C 198.117188 373.832031 194.59375 363.597656 192.351562 352.984375 C 191.046875 346.796875 191.492188 340.59375 192.476562 334.414062 C 193.261719 329.859375 193.589844 325.269531 193.457031 320.648438 C 193.394531 319.359375 192.734375 318.628906 191.363281 318.386719 C 189.304688 318.015625 187.347656 317.824219 185.234375 318.363281 C 178.988281 319.960938 172.65625 321.210938 166.425781 322.8125 C 152.78125 326.34375 138.777344 327.941406 124.929688 330.277344 C 115.636719 331.859375 106.1875 332.632812 96.777344 333.414062 C 90.820312 333.910156 84.8125 333.898438 78.824219 333.875 C 76.316406 333.867188 73.796875 333.285156 71.300781 332.867188 C 69.632812 332.585938 68.574219 331.644531 68.972656 331.042969 C 69.625 330.078125 70.574219 330.3125 71.457031 330.324219 C 82.070312 330.507812 92.628906 329.808594 103.210938 328.984375 C 111.957031 328.3125 120.609375 326.816406 129.335938 326.101562 C 134.890625 325.648438 139.402344 323.671875 143.472656 319.839844 C 146.316406 317.15625 149.019531 314.339844 151.582031 311.386719 C 153.234375 309.472656 155.082031 307.734375 156.78125 305.867188 C 157.019531 305.609375 157.210938 305.320312 157.347656 305 C 157.484375 304.675781 157.5625 304.339844 157.582031 303.992188 C 157.597656 303.640625 157.558594 303.300781 157.457031 302.964844 C 157.351562 302.628906 157.195312 302.324219 156.984375 302.042969 C 156.007812 300.757812 154.957031 299.535156 153.835938 298.375 C 144.082031 288.652344 136.816406 277.261719 131.523438 264.625 C 129.484375 259.75 127.949219 254.664062 126.269531 249.644531 C 126.078125 249.082031 126.410156 248.347656 126.5 247.691406 L 126.445312 247.703125 C 127.144531 247.835938 128.148438 247.785156 128.179688 247.140625 C 128.316406 243.9375 129.210938 240.957031 130.855469 238.203125 C 131.226562 237.582031 130.464844 236.96875 129.859375 236.652344 C 128.15625 235.757812 127.257812 236.179688 126.308594 238.203125 C 126.027344 238.8125 125.648438 239.382812 125.3125 239.96875 C 123.789062 238.445312 124.335938 236.554688 124.484375 234.765625 C 124.53125 234.265625 125.28125 233.578125 125.835938 233.425781 C 127.925781 232.84375 129.863281 233.246094 131.761719 234.429688 C 134.609375 236.210938 137.15625 238.355469 139.402344 240.855469 C 141.648438 243.355469 143.503906 246.117188 144.972656 249.140625 C 147.410156 254.089844 149.632812 259.15625 151.898438 264.191406 C 153.6875 268.183594 155.449219 272.1875 157.113281 276.226562 C 158.742188 280.316406 159.878906 284.535156 160.523438 288.886719 C 160.917969 291.363281 161.351562 293.863281 161.769531 296.378906 C 162.351562 296.167969 162.917969 296.148438 163.125 295.863281 C 166.25 291.582031 169.34375 287.269531 172.402344 282.9375 C 172.757812 282.339844 173.015625 281.703125 173.171875 281.027344 C 173.589844 279.636719 173.632812 278.289062 172.359375 277.261719 C 168.417969 274.074219 165.191406 270.144531 161.191406 266.980469 C 156.269531 263.078125 153.007812 257.738281 150.289062 252.097656 C 148.398438 248.171875 146.964844 244.050781 145.113281 240.089844 C 143.371094 236.375 143.566406 231.992188 143.324219 227.855469 C 143.269531 226.945312 143.472656 226.019531 143.464844 225.101562 C 143.414062 219.179688 143.703125 219.191406 149.003906 221.074219 C 153.253906 222.582031 155.527344 225.914062 158.160156 229.039062 C 159.75 230.929688 160.65625 233.378906 163.472656 235.605469 C 162.238281 231.746094 161.425781 228.78125 160.339844 225.917969 C 157.578125 218.625 156.625 211.222656 158.386719 203.535156 C 158.894531 201.289062 159.015625 198.972656 159.355469 196.695312 C 159.726562 194.226562 160.152344 191.761719 160.617188 188.929688 C 162.195312 189.5 163.632812 190.324219 164.921875 191.40625 C 166.210938 192.484375 167.273438 193.75 168.117188 195.207031 C 168.996094 196.566406 169.714844 198.007812 170.277344 199.527344 C 172.464844 206.136719 176.003906 212.09375 179 218.316406 C 181.089844 222.652344 183.707031 226.8125 184.09375 231.804688 C 184.140625 232.511719 184.339844 233.171875 184.691406 233.789062 C 186.523438 236.839844 187.074219 240.246094 187.617188 243.664062 C 187.796875 244.792969 188.132812 245.898438 188.402344 247.046875 C 188.9375 246.816406 189.558594 246.742188 189.644531 246.496094 C 191.851562 240.710938 193.929688 234.875 196.207031 229.113281 C 197.058594 226.964844 196.890625 225.378906 195.519531 223.390625 C 192.507812 219.054688 189.613281 214.589844 187.792969 209.570312 C 187.089844 207.628906 186.292969 205.664062 186 203.644531 C 184.792969 195.441406 183.496094 187.253906 183.425781 178.898438 C 183.402344 173.953125 184.261719 169.269531 185.644531 164.660156 C 187.542969 158.339844 187.652344 158.347656 193.101562 162.402344 C 194.214844 163.25 195.324219 164 196.773438 164.214844 C 199.40625 164.578125 200.726562 166.4375 201.488281 168.730469 C 202.496094 171.761719 203.789062 174.832031 201.789062 177.972656 C 200.847656 177.128906 200.953125 175.9375 200.832031 174.859375 C 200.601562 172.828125 199.984375 170.921875 198.980469 169.136719 C 198.65625 168.539062 198.085938 168.164062 197.011719 168.382812 C 198.003906 171.539062 198.921875 174.703125 200.03125 177.796875 C 200.242188 178.378906 201.210938 178.128906 201.789062 177.738281 C 202.027344 178.355469 202.523438 178.988281 202.476562 179.582031 C 202.011719 185.109375 202.40625 190.617188 202.753906 196.132812 C 202.882812 198.191406 202.820312 200.25 202.867188 202.3125 C 204.257812 202.730469 204.300781 201.671875 204.53125 200.941406 C 206.441406 194.519531 206.992188 187.839844 207.621094 181.222656 C 208.476562 172.273438 210.425781 163.574219 212.988281 154.984375 C 213.535156 153.140625 214.730469 151.761719 215.675781 150.195312 C 217.570312 147.0625 220.34375 144.511719 221.472656 140.859375 C 222.050781 139 224.109375 138.371094 225.433594 137.121094 C 226.355469 136.234375 227.5625 136.410156 228.621094 137.050781 C 230.699219 138.300781 232.175781 139.875 232.171875 142.550781 C 232.132812 147.167969 232.128906 151.769531 228.695312 155.464844 C 227.285156 155.617188 227.9375 154.160156 227.3125 153.699219 C 228.230469 151.8125 229.113281 149.542969 228.144531 147.832031 C 227.21875 146.191406 228.367188 143.492188 226.382812 142.996094 C 223.957031 142.386719 223.398438 145.285156 222.023438 146.640625 C 221.542969 147.148438 221.167969 147.722656 220.898438 148.367188 C 218.082031 154.839844 215.019531 161.214844 212.777344 167.941406 C 212.226562 169.65625 211.832031 171.40625 211.59375 173.191406 C 211.351562 174.976562 211.269531 176.765625 211.347656 178.566406 C 211.425781 180.363281 211.660156 182.144531 212.054688 183.898438 C 212.445312 185.65625 212.992188 187.367188 213.6875 189.027344 C 214.980469 188.300781 215.480469 187.015625 215.945312 185.726562 C 218.195312 179.476562 220.316406 173.21875 222.71875 167.046875 C 223.707031 164.53125 223.746094 161.566406 225.953125 159.578125 C 226.445312 159.121094 226.984375 158.917969 227.640625 159.261719 Z M 364.261719 498.472656 C 362.804688 500.675781 363.707031 502.828125 364.425781 504.976562 C 364.464844 505.09375 364.804688 505.171875 364.996094 505.167969 C 365.191406 505.160156 365.484375 505.058594 365.527344 504.933594 C 365.914062 503.835938 366.015625 502.710938 365.835938 501.558594 C 365.652344 500.410156 365.207031 499.371094 364.5 498.445312 C 364.757812 497.824219 365.300781 497.15625 365.214844 496.578125 C 364.558594 491.800781 363.789062 487.027344 363.027344 482.269531 C 362.941406 481.753906 362.441406 481.625 361.84375 481.84375 C 362.210938 486.605469 362.574219 491.382812 362.960938 496.15625 C 362.984375 496.621094 363.109375 497.050781 363.335938 497.457031 C 363.5625 497.859375 363.867188 498.191406 364.25 498.453125 Z M 404.191406 344.304688 C 406.027344 345.578125 406.648438 347.507812 407.054688 349.578125 C 407.484375 351.804688 407.851562 354.058594 408.308594 356.273438 C 409.441406 361.679688 411.378906 366.804688 413.75 371.773438 C 414.25 372.828125 414.945312 373.730469 416.394531 373.566406 C 417.796875 368 416.773438 362.628906 414.628906 357.496094 C 412.246094 351.804688 409.570312 346.234375 407.011719 340.617188 C 406.652344 339.824219 406.28125 338.984375 405.113281 339.296875 C 404.683594 341.015625 405.875 343.007812 404.230469 344.519531 C 403.425781 344.300781 402.925781 343.234375 401.699219 343.765625 C 402.230469 345.929688 402.078125 348.285156 403.328125 350.332031 C 403.429688 350.460938 403.703125 350.539062 403.902344 350.550781 C 404.097656 350.558594 404.375 350.460938 404.398438 350.363281 C 404.855469 348.335938 403.394531 346.363281 404.191406 344.304688 Z M 326.519531 313.667969 C 326.019531 313.394531 325.445312 313.472656 325.375 313.984375 C 325.023438 316.65625 326.652344 318.8125 327.359375 321.210938 C 328.40625 322.113281 329.628906 322.964844 329.582031 324.519531 C 329.488281 327.230469 331.089844 329.296875 332.21875 331.484375 C 333.347656 333.671875 334.992188 335.660156 336.46875 337.695312 C 336.65625 337.9375 337.203125 337.96875 337.589844 338 C 337.695312 338.007812 337.933594 337.648438 337.929688 337.460938 C 337.855469 331.722656 337.050781 326.058594 336.15625 320.402344 C 334.796875 311.894531 331.027344 304.210938 327.785156 296.347656 C 327.492188 295.648438 327.222656 294.589844 325.804688 295.3125 C 326.167969 298.921875 326.445312 302.597656 326.945312 306.242188 C 327.316406 308.785156 327.503906 311.25 326.535156 313.679688 Z M 267.71875 329.882812 C 266.050781 331.574219 263.777344 331.203125 261.84375 331.179688 C 255.417969 331.097656 248.949219 331.195312 242.613281 329.742188 C 241.015625 329.375 239.449219 329.0625 237.84375 329.527344 C 237.285156 329.691406 236.390625 329.71875 237.039062 330.890625 C 255.671875 335.679688 274.390625 333.664062 293.109375 330.804688 C 296.625 330.269531 296.621094 330.261719 299.210938 328.628906 C 297.929688 327.765625 296.617188 328.460938 295.390625 328.636719 C 287.40625 329.78125 279.417969 330.753906 271.324219 330.84375 C 269.945312 330.855469 268.539062 331.109375 267.472656 329.898438 C 268.054688 329.59375 268.617188 329.070312 269.222656 329.019531 C 272.640625 328.707031 276.085938 328.574219 279.507812 328.296875 C 287.515625 327.652344 295.476562 326.683594 303.265625 324.640625 C 304.292969 324.375 305.503906 324.457031 306.246094 323.410156 C 305.425781 321.550781 303.414062 322.277344 302.074219 321.519531 C 300.929688 320.871094 299.472656 320.707031 298.128906 320.472656 C 292.515625 319.480469 286.910156 318.523438 281.144531 319.0625 C 278.4375 319.320312 275.667969 318.859375 272.925781 318.75 C 271.742188 318.753906 270.671875 318.410156 269.710938 317.722656 C 271.65625 316.082031 274.074219 316.390625 276.289062 316.375 C 285.933594 316.308594 295.503906 317.039062 304.886719 319.488281 C 307.203125 320.09375 309.511719 321.082031 312.234375 320.527344 C 310.363281 317.953125 307.808594 317.121094 305.058594 316.667969 C 298.738281 315.621094 292.523438 314.03125 286.175781 313.113281 C 279.363281 312.128906 272.578125 311.386719 265.644531 311.53125 C 260.148438 311.644531 255.261719 313.128906 250.574219 315.695312 C 246.753906 317.785156 242.96875 319.941406 239.199219 322.113281 C 238.90625 322.28125 238.863281 322.882812 238.664062 323.378906 C 239.367188 323.351562 240.078125 323.484375 240.664062 323.265625 C 248.898438 320.242188 257.550781 318.925781 266.058594 317.019531 C 267.417969 316.710938 268.800781 316.597656 269.945312 317.691406 C 268.015625 319.0625 265.796875 319.667969 263.503906 319.859375 C 258.175781 320.300781 253.144531 322.046875 248.015625 323.316406 C 246.019531 323.8125 244.109375 324.65625 242.191406 325.421875 C 241.886719 325.542969 241.757812 326.09375 241.414062 326.664062 C 244.667969 327.738281 248.007812 328.351562 251.429688 328.5 C 255.785156 328.742188 260.15625 328.8125 264.519531 328.902344 C 265.707031 328.933594 266.820312 329.007812 267.71875 329.882812 Z M 223.433594 353.78125 C 224.8125 356.546875 224.796875 359.605469 224.730469 362.507812 C 224.566406 369.703125 225.734375 376.738281 227.109375 383.699219 C 228.082031 388.617188 230.011719 393.359375 231.632812 398.136719 C 232.222656 399.867188 233.148438 401.472656 234.816406 402.515625 C 235.597656 403.007812 236.964844 402.757812 237.0625 401.929688 C 237.910156 394.40625 238.851562 386.890625 237.574219 379.316406 C 236.6875 374.101562 235.664062 368.898438 235.105469 363.652344 C 233.960938 352.882812 229.019531 343.550781 224.378906 334.085938 C 224.082031 333.484375 223.460938 333.058594 222.445312 333.253906 C 222.425781 334.121094 222.46875 334.980469 222.578125 335.839844 C 222.988281 338.078125 223.675781 340.285156 223.941406 342.53125 C 224.371094 346.367188 225.128906 350.242188 223.464844 354.007812 L 221.6875 349.523438 C 220.472656 351.644531 221.128906 353.34375 221.464844 355.023438 C 221.835938 355.007812 222.195312 354.921875 222.535156 354.773438 C 222.875 354.480469 223.175781 354.148438 223.4375 353.777344 Z M 315.867188 472.644531 C 316.167969 472.347656 316.382812 471.996094 316.507812 471.589844 C 318.574219 465.027344 320.652344 458.46875 322.578125 451.867188 C 323.019531 450.355469 322.992188 448.683594 323.011719 447.082031 C 323.066406 443.179688 323.238281 439.261719 322.972656 435.378906 C 322.476562 427.800781 321.757812 420.234375 318.976562 413.074219 C 318.683594 412.453125 318.324219 411.875 317.902344 411.335938 C 317.417969 410.621094 315.9375 410.691406 315.578125 411.429688 C 315.230469 412.019531 314.945312 412.644531 314.730469 413.292969 C 313.21875 419.546875 311.140625 425.640625 309.511719 431.824219 C 307.582031 439.109375 305.621094 446.570312 307.289062 454.257812 C 308.257812 458.746094 309.339844 463.21875 310.609375 467.628906 C 311.183594 469.582031 312.28125 471.40625 313.191406 473.257812 C 313.566406 474.109375 314.859375 474.105469 315.867188 472.644531 Z M 361.132812 501.957031 C 360.601562 497.835938 359.910156 493.808594 359.585938 489.753906 C 358.625 477.683594 355.316406 466.21875 350.859375 455.042969 C 348.289062 448.605469 345.277344 442.40625 340.164062 437.496094 C 339.144531 436.507812 338.164062 435.554688 336.65625 435.5625 C 336.277344 435.566406 335.609375 435.867188 335.582031 436.089844 C 335.445312 437.007812 335.457031 437.925781 335.617188 438.839844 C 336.988281 445.378906 338.269531 451.941406 339.902344 458.421875 C 341.136719 463.324219 343.023438 468.058594 344.339844 472.945312 C 346.128906 479.6875 349.015625 485.917969 352.996094 491.644531 C 354.835938 494.28125 356.472656 497.066406 358.214844 499.773438 C 358.871094 500.75 359.410156 501.816406 361.148438 501.964844 Z M 287.453125 380.589844 C 286.328125 381.035156 286.546875 382.082031 286.359375 382.914062 C 285.585938 386.28125 285.09375 389.710938 284.0625 393.007812 C 282.578125 397.882812 281.734375 402.863281 281.53125 407.949219 C 280.964844 420.066406 283.070312 431.839844 286.207031 443.460938 C 286.566406 444.773438 287.277344 446.003906 287.9375 447.222656 C 288.230469 447.570312 288.601562 447.722656 289.054688 447.671875 C 289.472656 447.511719 289.753906 447.21875 289.894531 446.796875 C 290.628906 444.378906 291.070312 441.847656 292.019531 439.527344 C 293.179688 436.761719 293.988281 433.898438 294.445312 430.9375 C 294.90625 427.972656 295.003906 425 294.738281 422.011719 C 294.640625 420.871094 294.820312 419.703125 294.753906 418.558594 C 294.425781 412.816406 294.492188 407.007812 293.585938 401.355469 C 292.648438 395.484375 290.789062 389.753906 289.265625 383.980469 C 288.957031 382.714844 288.652344 381.378906 287.476562 380.574219 Z M 159.007812 297.679688 C 158.34375 294.660156 157.992188 292.859375 157.546875 291.082031 C 157.039062 289.066406 156.523438 287.054688 155.867188 285.089844 C 153.175781 277.03125 150.039062 269.128906 147.382812 261.054688 C 145.160156 254.316406 141.957031 247.871094 136.957031 242.554688 C 135.023438 240.5 132.554688 240.734375 131.449219 243.277344 C 130.417969 245.644531 130.011719 248.085938 130.652344 250.679688 C 131.242188 252.902344 131.703125 255.152344 132.035156 257.425781 C 132.867188 263.472656 135.4375 268.796875 138.398438 274.042969 C 142.273438 280.898438 147.605469 286.636719 152.355469 292.820312 C 153.777344 294.617188 155.527344 296.109375 159.003906 297.683594 Z M 387.378906 414.007812 C 386.25 411.839844 384.003906 410.945312 382.246094 409.511719 C 377.199219 405.394531 371.496094 402.5625 365.292969 400.542969 C 360.046875 398.839844 354.707031 397.523438 349.441406 395.953125 C 340.753906 393.363281 331.835938 392.804688 322.933594 392.113281 C 321.292969 391.980469 319.421875 391.90625 317.835938 393.160156 C 319.664062 395.539062 322.628906 395.3125 324.535156 397.058594 C 327.667969 399.929688 331.664062 401.074219 335.550781 402.527344 C 345.242188 406.15625 355.3125 408.492188 365.210938 411.398438 C 370.917969 413.074219 376.925781 413.753906 382.828125 414.730469 C 384.308594 414.984375 386.019531 415.421875 387.378906 414.007812 Z M 478.386719 242.933594 C 478 242.371094 477.5625 241.847656 477.078125 241.371094 C 471.15625 236.535156 464.917969 232.289062 457.351562 230.359375 C 454.6875 229.679688 452.128906 228.585938 449.492188 227.832031 C 444.394531 226.359375 439.308594 225.1875 433.851562 225.820312 C 429.5 226.324219 425.214844 227.125 420.914062 227.882812 C 420.367188 227.980469 419.457031 227.925781 419.804688 229.328125 C 420.390625 229.640625 421.148438 230.101562 421.941406 230.464844 C 425.261719 232.023438 428.796875 233.242188 431.882812 235.175781 C 439.261719 239.800781 447.347656 242.242188 455.820312 243.519531 C 462.90625 244.582031 470.050781 243.847656 477.171875 243.644531 C 477.558594 243.636719 477.925781 243.214844 478.386719 242.933594 Z M 330.652344 416.714844 C 331.359375 417.96875 331.644531 418.929688 332.28125 419.519531 C 337.503906 424.402344 342.855469 429.070312 349.40625 432.242188 C 353.195312 434.089844 357.664062 435.085938 360.03125 439.214844 C 360.148438 439.417969 360.703125 439.371094 361.054688 439.441406 C 360.898438 439.015625 360.769531 438.585938 360.664062 438.148438 C 360.621094 437.9375 360.734375 437.691406 360.808594 437.316406 C 371.933594 442.160156 382.40625 448.511719 394.429688 451.027344 C 394.886719 449.90625 394.644531 449.007812 393.96875 448.371094 C 392.488281 446.921875 390.925781 445.558594 389.285156 444.285156 C 383.734375 440.160156 378.203125 435.996094 372.507812 432.082031 C 368.71875 429.484375 364.65625 427.28125 360.679688 424.957031 C 359.90625 424.507812 358.941406 424.375 358.066406 424.101562 C 353.890625 422.792969 349.707031 421.523438 345.546875 420.167969 C 340.945312 418.6875 336.351562 417.203125 330.652344 416.71875 Z M 521.507812 149.488281 C 519.777344 149.863281 519.070312 149.882812 518.484375 150.160156 C 506.386719 155.84375 494.625 162.164062 483.207031 169.117188 C 477.902344 172.371094 472.824219 175.929688 468.800781 180.777344 C 467.035156 182.898438 465.445312 185.148438 463.0625 186.730469 C 461.972656 187.453125 461.242188 188.789062 460.507812 189.949219 C 460.164062 190.539062 460.074219 191.167969 460.238281 191.828125 C 460.515625 192.703125 461.378906 192.339844 462.003906 192.195312 C 462.667969 192.007812 463.304688 191.742188 463.902344 191.398438 C 467.140625 189.667969 470.320312 187.835938 473.597656 186.183594 C 485.132812 180.390625 496.054688 173.609375 506.359375 165.832031 C 512.164062 161.4375 516.894531 156.335938 521.507812 149.488281 Z M 394.441406 225.707031 C 402.820312 216.378906 408.808594 206.625 414.460938 196.636719 C 416.15625 193.644531 418.160156 190.8125 419.652344 187.71875 C 422.230469 182.363281 424.707031 176.941406 426.84375 171.398438 C 428.238281 167.785156 428.976562 163.921875 429.933594 160.160156 C 429.933594 159.695312 429.742188 159.335938 429.355469 159.082031 C 428.925781 158.9375 428.519531 158.984375 428.140625 159.234375 C 427.597656 159.660156 427.125 160.15625 426.722656 160.71875 C 423.09375 165.472656 419.460938 170.222656 415.878906 175.007812 C 414.640625 176.664062 413.253906 178.28125 412.40625 180.136719 C 409.828125 185.777344 405.949219 190.648438 403.210938 196.207031 C 399.453125 203.863281 396.109375 211.570312 395.335938 220.179688 C 395.191406 221.761719 394.832031 223.320312 394.441406 225.707031 Z M 391.347656 242.429688 C 394.882812 245.746094 398.792969 248.527344 403.085938 250.773438 C 411.441406 255.09375 420.039062 258.867188 428.878906 262.085938 C 435.222656 264.414062 441.753906 265.324219 448.535156 264.351562 C 447.917969 260.199219 444.703125 258.535156 441.78125 256.859375 C 437.214844 254.234375 432.484375 251.871094 427.761719 249.566406 C 418.167969 244.863281 407.933594 242.433594 397.371094 241.140625 C 395.300781 240.878906 393.277344 240.621094 391.355469 242.4375 Z M 261.609375 277.523438 C 262.488281 272.535156 260.894531 268.226562 259.890625 263.832031 C 258.082031 255.777344 255.9375 247.824219 252.484375 240.3125 C 250.667969 236.40625 248.871094 232.347656 245.378906 229.519531 C 243.804688 228.25 242.023438 226.40625 239.921875 227.785156 C 238.324219 228.839844 238.800781 231.023438 238.9375 232.84375 C 239.359375 238.34375 240.703125 243.523438 242.652344 248.738281 C 245.53125 256.476562 248.457031 264.140625 253.019531 271.050781 C 255.085938 274.15625 257.773438 276.429688 261.609375 277.523438 Z M 208.300781 218.585938 C 209.09375 218.339844 209.535156 218.230469 209.957031 218.0625 C 210.605469 217.820312 211.238281 217.546875 211.855469 217.238281 C 225.9375 209.816406 237.199219 199.300781 245.824219 185.972656 C 247.550781 183.300781 248.742188 180.285156 250.152344 177.40625 C 250.527344 176.628906 249.558594 175.550781 248.652344 175.65625 C 246.789062 175.851562 245.101562 176.5 243.589844 177.605469 C 240.296875 180.078125 237.0625 182.671875 233.546875 184.789062 C 230.703125 186.511719 228.597656 188.6875 226.574219 191.242188 C 223.886719 194.632812 221.679688 198.507812 217.921875 200.96875 C 217.550781 201.210938 217.058594 201.539062 216.96875 201.914062 C 215.886719 206.59375 212.214844 209.660156 209.800781 213.507812 C 208.914062 214.929688 208.585938 216.449219 208.300781 218.585938 Z M 293.890625 220.652344 C 294.804688 218.675781 294.691406 216.683594 294.332031 214.714844 C 293.070312 207.742188 291.9375 200.742188 290.402344 193.835938 C 289.015625 187.582031 287.605469 181.28125 284.273438 175.667969 C 283.578125 174.5 282.953125 173.160156 281.941406 172.347656 C 280.253906 170.992188 278.640625 168.398438 276.183594 169.632812 C 274.21875 170.613281 274.761719 173.320312 274.457031 175.300781 C 274.167969 176.894531 274.15625 178.492188 274.429688 180.089844 C 276.332031 189.273438 278.019531 198.550781 283.246094 206.652344 C 285.105469 209.515625 286.628906 212.65625 288.8125 215.234375 C 290.375 217.050781 291.015625 219.886719 293.890625 220.652344 Z M 181.171875 281.804688 C 186.09375 281.929688 189.992188 280.453125 193.945312 279.324219 C 201.6875 277.113281 209.335938 274.644531 216.5 270.855469 C 222.199219 267.84375 226.320312 263.378906 229.800781 258.152344 C 230.367188 257.300781 229.851562 256.113281 228.898438 256.152344 C 226.605469 256.246094 224.3125 256.535156 222.015625 256.515625 C 218.046875 256.484375 214.3125 257.414062 210.816406 259.300781 C 201.820312 263.992188 193.503906 269.710938 185.542969 275.960938 C 183.574219 277.523438 182.121094 279.46875 181.183594 281.796875 Z M 505.273438 211.390625 C 504.894531 211.105469 504.574219 210.6875 504.1875 210.578125 C 495.539062 208.421875 487.066406 205.515625 478.175781 204.164062 C 466.183594 202.347656 454.90625 204.613281 443.949219 209.3125 C 443.832031 209.34375 443.726562 209.402344 443.636719 209.484375 C 443.546875 209.570312 443.484375 209.667969 443.449219 209.785156 C 443.410156 209.902344 443.402344 210.019531 443.425781 210.140625 C 443.449219 210.261719 443.503906 210.367188 443.582031 210.460938 C 443.8125 210.804688 444.136719 211.269531 444.484375 211.328125 C 447.875 211.910156 451.273438 212.824219 454.683594 212.855469 C 459.757812 212.902344 464.738281 213.589844 469.753906 214.148438 C 477.507812 215.015625 485.285156 215.683594 493.097656 215.558594 C 496.304688 215.515625 499.515625 215.179688 502.710938 214.851562 C 503.9375 214.722656 504.664062 213.710938 505.15625 212.644531 C 505.324219 212.277344 505.234375 211.785156 505.273438 211.390625 Z M 369.921875 381.144531 C 360.6875 377.097656 352.699219 373.710938 344.007812 372.335938 C 334 370.761719 323.957031 369.648438 313.839844 369.792969 C 308.90625 369.878906 303.847656 370.191406 299.015625 371.851562 C 299.566406 373.464844 300.753906 373.636719 301.859375 373.90625 C 306.984375 375.152344 312.101562 376.496094 317.269531 377.566406 C 331.261719 380.472656 345.378906 382.347656 359.707031 382.320312 C 363.160156 382.355469 366.5625 381.960938 369.917969 381.140625 Z M 172.933594 272.929688 C 173.109375 269.171875 171.996094 265.679688 170.894531 262.1875 C 168.21875 253.878906 164.597656 245.933594 160.773438 238.117188 C 158.460938 233.382812 155.371094 229.058594 150.792969 226.070312 C 149.203125 225.03125 147.554688 225.699219 147.371094 227.644531 C 146.71875 234.164062 147.503906 240.480469 150.734375 246.28125 C 154.652344 253.3125 159.648438 259.597656 164.765625 265.757812 C 166.925781 268.371094 169.65625 270.519531 172.148438 272.855469 C 172.277344 272.960938 172.542969 272.890625 172.9375 272.921875 Z M 363.652344 240.851562 C 365.980469 239.792969 366.832031 238.070312 367.761719 236.554688 C 369.679688 233.445312 371.1875 230.078125 373.140625 226.992188 C 377.109375 220.703125 379.578125 213.789062 381.132812 206.652344 C 382.609375 199.964844 383.210938 193.074219 384.203125 186.269531 C 384.238281 186.039062 384.207031 185.816406 384.109375 185.601562 C 384.003906 185.390625 383.839844 185.238281 383.617188 185.144531 C 383.425781 185.082031 383.054688 185.113281 382.976562 185.234375 C 382.507812 185.980469 382.195312 186.835938 381.667969 187.535156 C 375.609375 195.617188 370.703125 204.347656 366.949219 213.726562 C 366.09375 215.824219 364.96875 217.78125 364.328125 220.023438 C 362.414062 226.761719 362.21875 233.507812 363.652344 240.851562 Z M 359.519531 259.589844 C 360.308594 261.035156 361.53125 261.652344 362.769531 262.183594 C 370.128906 265.359375 377.613281 268.25 384.777344 271.898438 C 390.117188 274.570312 395.664062 276.707031 401.417969 278.3125 C 406.066406 279.6875 410.816406 280.300781 415.667969 280.144531 C 416.523438 280.113281 417.445312 279.976562 417.898438 278.832031 C 415.324219 275.917969 411.898438 273.953125 408.882812 271.503906 C 406.347656 269.46875 403.523438 267.980469 400.414062 267.035156 C 396.480469 265.785156 392.472656 264.734375 388.667969 263.191406 C 384.824219 261.640625 380.851562 260.550781 376.757812 259.921875 C 371.105469 259.105469 365.421875 257.804688 359.519531 259.589844 Z M 207.152344 379.425781 C 208.152344 376.625 208.4375 374.136719 208.609375 371.597656 C 209.027344 365.164062 208.539062 358.800781 207.140625 352.507812 C 205.226562 343.746094 202.453125 335.269531 198.816406 327.074219 C 198.609375 326.648438 198.289062 326.328125 197.859375 326.125 C 197.546875 325.972656 196.761719 326.039062 196.742188 326.15625 C 194.664062 334.472656 193.621094 342.902344 195.015625 351.421875 C 196.261719 358.6875 198.261719 365.742188 201.007812 372.582031 C 202.097656 375.324219 203.539062 377.992188 207.144531 379.429688 Z M 167.320312 306.269531 C 174.972656 307.1875 181.523438 305.609375 188.144531 304.917969 C 192.542969 304.464844 196.664062 303.042969 200.75 301.472656 C 207.066406 299.039062 212.425781 295.15625 217.261719 290.492188 C 217.765625 290.015625 218.144531 289.449219 218.398438 288.796875 C 218.511719 288.460938 218.503906 288.128906 218.375 287.800781 C 218.246094 287.472656 218.027344 287.222656 217.71875 287.054688 C 216.6875 286.410156 215.554688 286.398438 214.390625 286.539062 C 207.519531 287.3125 200.792969 288.769531 194.21875 290.917969 C 184.570312 294.089844 175.90625 299.144531 167.335938 306.257812 Z M 190.601562 171.933594 C 188.855469 173.242188 188.296875 176.175781 187.652344 179.148438 C 185.386719 189.726562 187.59375 199.753906 191.515625 209.511719 C 192.527344 212.035156 194.285156 214.265625 195.820312 216.550781 C 196.117188 216.992188 196.976562 217.15625 197.597656 217.226562 C 197.816406 217.253906 198.304688 216.632812 198.339844 216.269531 C 199.097656 208.949219 199.839844 201.65625 199.953125 194.246094 C 200.070312 185.722656 198.105469 177.832031 195.074219 170.054688 C 194.539062 168.679688 193.339844 168.398438 192.507812 169.425781 C 192.066406 169.945312 191.664062 170.527344 190.601562 171.933594 Z M 183.683594 252.300781 C 182.632812 247.214844 181.804688 242.828125 179.496094 238.792969 C 178.136719 236.421875 176.652344 233.882812 176.21875 231.257812 C 174.804688 222.554688 170.902344 214.683594 168.441406 206.324219 C 167.613281 203.519531 165.929688 200.960938 164.5625 198.324219 C 164.417969 198.039062 163.773438 197.847656 163.386719 197.890625 C 163 197.929688 162.4375 198.265625 162.363281 198.570312 C 161.742188 201.246094 161.242188 203.949219 160.636719 206.628906 C 158.96875 213.996094 161.167969 220.679688 164.203125 227.222656 C 168.507812 232.097656 170.75 238.226562 174.164062 243.648438 C 176.460938 247.3125 179.46875 249.851562 183.683594 252.300781 Z M 266.039062 346.066406 C 265.933594 346.941406 266.179688 347.195312 266.667969 347.363281 C 272.300781 349.367188 278.050781 350.917969 283.925781 352.023438 C 296.648438 354.292969 309.507812 355.398438 322.3125 356.949219 C 327.136719 357.53125 331.992188 357.242188 336.796875 356.476562 C 337.171875 356.417969 337.738281 356.019531 337.757812 355.742188 C 337.730469 355.261719 337.511719 354.90625 337.09375 354.671875 C 334.035156 353.703125 330.976562 352.707031 327.863281 351.941406 C 324.75 351.179688 321.4375 351.003906 318.402344 350 C 312 347.882812 305.453125 346.875 298.765625 346.433594 C 296.46875 346.28125 294.179688 345.980469 291.902344 345.640625 C 284.105469 344.492188 276.289062 344.957031 268.476562 345.339844 C 267.621094 345.390625 266.777344 345.847656 266.046875 346.074219 Z M 278.722656 247.746094 C 279.636719 248.382812 280.578125 248.96875 281.554688 249.503906 C 281.984375 249.65625 282.394531 249.609375 282.78125 249.363281 C 283.136719 249.058594 283.3125 248.671875 283.304688 248.203125 C 283.0625 246.382812 282.910156 244.515625 282.375 242.769531 C 280.515625 236.847656 278.398438 231.007812 276.59375 225.074219 C 275.234375 220.617188 272.886719 216.667969 270.882812 212.527344 C 269.375 209.414062 266.804688 207.628906 264.035156 205.949219 C 263.238281 205.46875 262.136719 206.070312 261.914062 206.996094 C 261.410156 209.046875 261.382812 211.105469 261.832031 213.167969 C 262.863281 217.882812 264.078125 222.554688 265.148438 227.253906 C 267.132812 236.03125 273.226562 241.996094 278.722656 247.746094 Z M 447.765625 297.210938 C 443.925781 296.566406 441.015625 295.65625 438.109375 295.6875 C 433.285156 295.730469 428.484375 296.113281 423.710938 296.832031 C 412.066406 298.601562 401.054688 302.429688 390.578125 307.785156 C 390.335938 307.910156 390.351562 308.539062 390.246094 308.933594 C 390.660156 309.082031 391.066406 309.257812 391.5 309.359375 C 398.15625 311.140625 404.816406 309.640625 411.351562 308.859375 C 421.894531 307.574219 432.101562 304.96875 441.972656 301.042969 C 443.902344 300.273438 445.558594 299.285156 447.765625 297.210938 Z M 255.960938 359.171875 C 255.394531 363.941406 254.636719 368.699219 254.304688 373.484375 C 253.359375 387.328125 254.800781 400.992188 258.269531 414.417969 C 258.898438 416.839844 260.042969 419.140625 261.089844 421.429688 C 261.53125 422.234375 262.105469 422.933594 262.8125 423.523438 C 263.191406 423.800781 263.601562 423.875 264.054688 423.746094 C 264.4375 423.515625 264.667969 423.183594 264.753906 422.746094 C 264.820312 422.0625 264.84375 421.375 264.832031 420.6875 C 265.253906 414.242188 264.300781 407.882812 263.660156 401.5 C 263.359375 398.53125 263.578125 395.429688 262.769531 392.617188 C 261.492188 388.144531 261.410156 383.605469 260.964844 379.074219 C 260.308594 372.246094 259.753906 365.398438 255.976562 359.148438 Z M 327.34375 250.328125 C 320.863281 250.375 315.058594 251.023438 309.453125 253.082031 C 302.949219 255.417969 296.726562 258.34375 290.78125 261.863281 C 286.667969 264.34375 282.859375 267.273438 278.949219 270.0625 C 278.691406 270.261719 278.601562 270.945312 278.703125 271.335938 C 278.871094 271.75 279.160156 272.039062 279.574219 272.207031 C 280.023438 272.320312 280.476562 272.347656 280.933594 272.296875 C 286.75 272.332031 292.335938 270.90625 297.777344 269.148438 C 306.585938 266.304688 314.414062 261.46875 322.09375 256.398438 C 324.265625 254.960938 325.765625 253.015625 327.34375 250.328125 Z M 418.160156 333.367188 C 419.761719 336.273438 421.085938 338.90625 422.734375 341.425781 C 425.707031 345.972656 431.035156 348.015625 433.933594 352.589844 C 434.507812 353.503906 435.660156 354.136719 436.664062 354.664062 C 441.132812 357.007812 445.597656 359.375 450.421875 360.953125 C 452.40625 361.566406 454.429688 362.019531 456.488281 362.3125 C 457.015625 362.394531 457.949219 361.953125 458.140625 361.507812 C 458.371094 360.996094 458.105469 360.144531 457.828125 359.566406 C 457.511719 358.941406 457.070312 358.421875 456.5 358.011719 C 453.449219 355.84375 451.183594 352.898438 448.863281 350.066406 C 447.15625 347.882812 445.207031 345.933594 443.023438 344.226562 C 435.957031 338.867188 427.871094 335.667969 419.488281 333.128906 C 419.289062 333.054688 419.039062 333.1875 418.160156 333.367188 Z M 339.609375 214.441406 C 334.742188 216.457031 330.3125 218.265625 325.917969 220.125 C 324.640625 220.640625 323.425781 221.265625 322.265625 222.003906 C 314.480469 227.207031 306.574219 232.242188 299.265625 238.125 C 297.660156 239.417969 296.234375 240.882812 295.734375 243.015625 C 297.078125 243.507812 298.445312 243.574219 299.832031 243.210938 C 301.617188 242.789062 303.390625 242.25 305.195312 241.992188 C 311.515625 241.097656 316.941406 238.132812 322.003906 234.535156 C 327.035156 230.945312 331.683594 226.910156 335.945312 222.425781 C 337.867188 220.40625 339.609375 218.292969 339.609375 214.441406 Z M 466.609375 150.316406 C 464.597656 151.105469 462.734375 152.15625 461.015625 153.46875 C 459.296875 154.78125 457.792969 156.304688 456.503906 158.039062 C 451.183594 164.980469 446.078125 172.089844 440.652344 178.953125 C 437.777344 182.574219 435.695312 186.609375 434.410156 191.054688 C 433.914062 192.824219 433.199219 194.53125 432.707031 196.300781 C 431.855469 199.375 431.09375 202.476562 430.328125 205.574219 C 430.300781 205.675781 430.597656 205.925781 430.796875 206.003906 C 430.996094 206.082031 431.28125 206.097656 431.378906 205.996094 C 432.152344 205.195312 433.140625 204.457031 433.621094 203.488281 C 435.269531 200.179688 436.917969 196.925781 439.898438 194.535156 C 440.414062 194.140625 440.679688 193.445312 441.058594 192.890625 C 443.648438 189.089844 446.242188 185.289062 448.828125 181.488281 C 449.992188 179.78125 451.386719 178.183594 452.21875 176.320312 C 453.363281 173.761719 455.085938 171.613281 456.515625 169.25 C 459.25 164.730469 462.015625 160.226562 464.613281 155.625 C 465.464844 154.144531 465.851562 152.382812 466.609375 150.316406 Z M 301.15625 204.082031 C 302.191406 203.101562 302.675781 202.855469 302.816406 202.476562 C 304.203125 198.851562 305.695312 195.222656 306.902344 191.511719 C 309.171875 184.523438 310.832031 177.382812 312.5625 170.234375 C 313.886719 164.792969 314.246094 159.34375 314.464844 153.839844 C 314.519531 152.519531 313.984375 151.15625 313.609375 149.839844 C 313.558594 149.667969 312.65625 149.464844 312.476562 149.632812 C 310.433594 151.503906 308.78125 153.617188 307.820312 156.304688 C 305.492188 162.792969 302.96875 169.171875 301.660156 176.023438 C 301.058594 179.207031 300.566406 182.339844 300.535156 185.539062 C 300.492188 190.136719 300.636719 194.71875 300.757812 199.328125 C 300.792969 200.699219 300.984375 202.050781 301.15625 204.082031 Z M 190.355469 260.914062 C 195.425781 258.332031 199.535156 255.023438 203.488281 251.488281 C 208.449219 247.050781 213.289062 242.507812 217.914062 237.710938 C 220.8125 234.757812 223.527344 231.648438 226.0625 228.378906 C 226.5 227.839844 226.871094 227.257812 227.175781 226.632812 C 227.378906 226.214844 227.402344 225.78125 227.242188 225.339844 C 226.957031 224.96875 226.582031 224.757812 226.117188 224.710938 C 223.980469 224.53125 221.988281 224.976562 220.140625 226.058594 C 216.097656 228.285156 212.597656 231.175781 209.058594 234.144531 C 203.566406 238.753906 198.742188 243.984375 194.585938 249.828125 C 192.25 253.097656 190.933594 256.644531 190.347656 260.910156 Z M 347.164062 298.015625 L 346.003906 298.253906 C 346.027344 300.773438 345.777344 303.332031 346.132812 305.800781 C 346.78125 310.308594 347.941406 314.742188 348.621094 319.253906 C 350.191406 329.652344 354.746094 338.859375 359.761719 347.898438 C 359.949219 348.320312 360.203125 348.695312 360.523438 349.023438 C 360.875 349.308594 361.273438 349.4375 361.722656 349.417969 C 362.171875 349.324219 362.523438 349.085938 362.785156 348.710938 C 363.808594 347.078125 363.925781 345.199219 363.78125 343.375 C 363.132812 335.800781 361.910156 328.4375 358.28125 321.527344 C 355.726562 316.679688 353.136719 311.8125 351.402344 306.539062 C 350.425781 303.554688 348.601562 300.847656 347.164062 298.015625 Z M 468.164062 316.484375 C 459.742188 312.875 446.207031 314.761719 437.609375 316.9375 C 433.164062 318.0625 428.714844 319.226562 424.316406 320.476562 C 421.242188 321.359375 418.222656 322.429688 415.191406 323.445312 C 415.078125 323.480469 415.011719 323.8125 415.019531 323.996094 C 415.03125 324.175781 415.074219 324.601562 415.179688 324.628906 C 416.71875 325.03125 418.238281 325.597656 419.824219 325.714844 C 431.386719 326.65625 442.792969 325.300781 454.019531 322.707031 C 458.824219 321.585938 463.8125 320.402344 468.160156 316.484375 Z M 386.355469 293.605469 C 386.078125 291.957031 385.300781 290.585938 384.027344 289.503906 C 375.773438 282.054688 366.558594 276.066406 356.121094 272.230469 C 353.152344 271.132812 349.851562 270.933594 346.691406 270.390625 C 346.222656 270.386719 345.84375 270.570312 345.5625 270.941406 C 345.394531 271.351562 345.441406 271.738281 345.695312 272.101562 C 346.675781 273.0625 347.648438 274.085938 348.808594 274.800781 C 351.238281 276.296875 352.402344 278.929688 354.464844 280.765625 C 356.777344 282.820312 359.945312 283.082031 362.300781 285.011719 C 367.726562 289.515625 374.433594 291.292969 380.941406 293.410156 C 382.609375 293.949219 384.507812 294.449219 386.355469 293.605469 Z M 304.113281 218.453125 C 306.511719 216.566406 307.910156 214.742188 309.777344 213.339844 C 312.746094 211.148438 315.398438 208.621094 317.730469 205.765625 C 322.492188 199.824219 326.988281 193.660156 331.398438 187.449219 C 333.375 184.664062 334.769531 181.503906 334.515625 177.835938 C 330.15625 178.871094 327.175781 180.058594 325.359375 182.363281 C 321.652344 187.0625 317.875 191.769531 314.742188 196.875 C 312.828125 200.007812 310.957031 203.171875 308.992188 206.273438 C 306.8125 209.714844 304.671875 213.289062 304.113281 218.453125 Z M 388.347656 358.503906 C 388.5625 358.546875 388.785156 358.554688 389.003906 358.535156 C 389.167969 358.492188 389.40625 358.320312 389.414062 358.1875 C 390 350.222656 388.082031 342.695312 384.964844 335.507812 C 381.949219 328.5625 378.460938 321.863281 375.171875 315.0625 C 374.910156 314.429688 374.574219 313.839844 374.160156 313.292969 C 373.824219 312.996094 373.4375 312.894531 373 312.988281 C 372.585938 313.167969 372.335938 313.480469 372.257812 313.925781 C 372.402344 315.980469 372.585938 318.03125 372.898438 320.0625 C 373.109375 321.410156 373.726562 322.695312 373.863281 324.042969 C 374.304688 328.152344 375.414062 332.070312 377.191406 335.800781 C 379.113281 339.957031 381.261719 343.992188 382.804688 348.339844 C 383.945312 351.558594 385.773438 354.53125 387.34375 357.585938 C 387.515625 357.976562 388.003906 358.199219 388.347656 358.503906 Z M 176.5625 273.230469 C 180.035156 269.589844 182.023438 265.796875 183.507812 261.675781 C 184.457031 259.09375 184.351562 258.511719 182.28125 256.984375 C 179.828125 255.246094 177.617188 253.238281 175.65625 250.960938 C 173.464844 248.328125 170.707031 246.273438 166.699219 243.625 C 171.175781 253.792969 173.785156 263.21875 176.5625 273.230469 Z M 266.890625 405.53125 C 268.488281 404.597656 268.339844 403.632812 268.375 402.757812 C 268.527344 398.628906 268.390625 394.46875 268.882812 390.378906 C 269.394531 386.148438 268.464844 382.164062 267.726562 378.117188 C 267.277344 375.640625 266.664062 373.183594 265.96875 370.757812 C 265.273438 368.335938 264.417969 365.964844 263.546875 363.601562 C 263.4375 363.3125 262.800781 363.089844 262.40625 363.085938 C 262.214844 363.089844 261.832031 363.703125 261.871094 364 C 262.332031 367.65625 263.21875 371.296875 263.285156 374.949219 C 263.46875 385.144531 265.578125 395.0625 266.894531 405.527344 Z M 373.605469 294.367188 C 372.96875 293.089844 371.921875 292.644531 370.800781 292.355469 C 366.308594 291.171875 362.308594 289.0625 358.796875 286.023438 C 357.574219 284.992188 356.277344 284.039062 354.96875 283.105469 C 350.117188 279.648438 345.40625 276.039062 341.539062 271.4375 C 341.066406 270.875 340.4375 270.148438 339.15625 270.601562 C 341.433594 274.042969 343.078125 277.816406 347.386719 279.304688 C 348.726562 279.824219 349.742188 280.714844 350.441406 281.96875 C 350.777344 282.539062 351.25 283.308594 351.792969 283.4375 C 356.015625 284.40625 358.84375 287.589844 362.160156 289.945312 C 365.578125 292.453125 369.390625 293.925781 373.605469 294.367188 Z M 328.378906 349.675781 C 326.007812 348.082031 325.160156 347.199219 324.148438 346.90625 C 321.109375 346 317.96875 345.425781 314.917969 344.527344 C 310.503906 343.21875 305.941406 343.050781 301.425781 342.535156 C 301.191406 342.496094 300.96875 342.523438 300.753906 342.617188 C 300.449219 342.828125 300.164062 343.0625 299.902344 343.316406 C 300.1875 343.621094 300.433594 344.144531 300.757812 344.199219 C 308.632812 345.433594 316.40625 347.117188 324.082031 349.25 C 324.9375 349.46875 325.871094 349.425781 328.378906 349.675781 Z M 464.636719 246.757812 C 464.90625 247.109375 465.144531 247.660156 465.46875 247.726562 C 471.34375 248.875 477.265625 248.953125 483.207031 248.484375 C 483.675781 248.472656 484.097656 248.324219 484.472656 248.046875 C 484.644531 247.886719 484.589844 247.242188 484.410156 246.980469 C 483.714844 245.984375 482.695312 245.300781 481.492188 245.59375 C 477.210938 246.652344 472.859375 246.207031 468.519531 246.1875 C 467.230469 246.1875 465.835938 245.839844 464.636719 246.757812 Z M 392.449219 303.757812 C 392.675781 303.773438 392.902344 303.753906 393.125 303.703125 C 399.953125 300.996094 406.863281 298.539062 413.933594 296.523438 C 414.164062 296.453125 414.34375 296.316406 414.46875 296.109375 C 414.550781 295.886719 414.546875 295.667969 414.457031 295.449219 C 414.378906 295.265625 414.246094 295.15625 414.050781 295.113281 C 406.328125 296.410156 399.109375 299.066406 392.457031 303.765625 Z M 183.605469 239.804688 C 180.253906 225.375 180.253906 225.375 177.007812 222.304688 C 177.871094 228.832031 179.304688 234.832031 183.625 239.804688 Z M 450.722656 159.585938 C 456.261719 154.789062 461.632812 150.144531 466.972656 145.464844 C 467.15625 145.320312 467.019531 144.773438 466.957031 144.425781 C 466.953125 144.375 466.5 144.316406 466.3125 144.398438 C 465.691406 144.667969 464.988281 144.882812 464.507812 145.324219 C 461.980469 147.660156 459.214844 149.675781 456.921875 152.328125 C 454.855469 154.738281 452.023438 156.480469 450.722656 159.585938 Z M 500.109375 218.34375 C 504.023438 219.503906 507.421875 218.21875 510.742188 216.734375 C 510.953125 216.632812 511.136719 216.496094 511.296875 216.324219 C 511.453125 216.152344 511.570312 215.957031 511.652344 215.738281 C 511.734375 215.519531 511.773438 215.292969 511.765625 215.058594 C 511.757812 214.828125 511.707031 214.601562 511.613281 214.390625 C 511.226562 213.386719 509.386719 212.605469 508.808594 213.300781 C 506.550781 216.09375 503.410156 217.214844 500.109375 218.34375 Z M 186.910156 175.167969 C 187.753906 170.839844 190.398438 168.253906 191.992188 165.054688 C 192.082031 164.824219 192.066406 164.601562 191.941406 164.386719 C 191.574219 163.855469 191.230469 163.226562 190.707031 162.902344 C 190.1875 162.582031 189.292969 162.441406 188.96875 163.269531 C 187.976562 165.804688 187.0625 168.371094 186.132812 170.929688 C 185.730469 172.03125 185.773438 173.117188 186.910156 175.167969 Z M 223.714844 191.742188 C 221.445312 193.378906 218.730469 194.242188 217.113281 196.660156 C 214.945312 199.902344 212.515625 202.96875 210.226562 206.136719 C 209.660156 206.917969 209.867188 207.703125 210.566406 207.601562 C 210.988281 207.546875 211.65625 207.449219 211.804688 207.164062 C 214.480469 202.054688 217.835938 197.53125 222.335938 193.832031 C 222.9375 193.339844 223.257812 192.453125 223.699219 191.753906 Z M 246.316406 226.378906 C 245.84375 225.160156 245.679688 224.476562 245.308594 223.910156 C 243.902344 221.75 242.109375 220.089844 239.394531 219.785156 C 238.199219 219.652344 237.308594 220.460938 237.242188 221.902344 C 237.199219 222.859375 237.417969 223.808594 238.605469 223.78125 C 240.003906 223.71875 241.371094 223.917969 242.695312 224.367188 C 244.023438 224.816406 245.226562 225.492188 246.300781 226.390625 Z M 432.773438 315.085938 C 427.746094 315.175781 422.945312 316.652344 418.070312 317.742188 C 417.761719 317.8125 417.46875 318.363281 417.359375 318.75 C 417.25 319.136719 417.632812 319.378906 418.25 319.308594 C 423.355469 318.839844 428.191406 317.4375 432.757812 315.097656 Z M 279.523438 166.148438 C 279.289062 164.78125 278.417969 164.105469 277.53125 163.554688 C 276.945312 163.265625 276.328125 163.171875 275.683594 163.269531 C 275.445312 163.292969 275.183594 163.929688 275.097656 164.316406 C 274.882812 165.242188 275.667969 165.421875 276.269531 165.566406 C 277.296875 165.835938 278.386719 165.957031 279.515625 166.152344 Z M 491.234375 218.152344 C 491.257812 218.386719 491.308594 218.609375 491.394531 218.824219 C 491.503906 219.003906 491.660156 219.128906 491.859375 219.199219 C 493.429688 219.574219 494.976562 219.5 496.5 218.964844 C 496.597656 218.9375 496.679688 218.652344 496.664062 218.496094 C 496.648438 218.34375 496.5625 218.011719 496.417969 217.9375 C 494.65625 217.050781 492.9375 217.507812 491.234375 218.152344 Z M 491.234375 218.152344 "/>
</g>
</g>
</g>
<g clip-path="url(#clip4)" clip-rule="nonzero">
<g clip-path="url(#clip5)" clip-rule="nonzero">
<g clip-path="url(#clip6)" clip-rule="nonzero">
<path style=" stroke:none;fill-rule:nonzero;fill:rgb(59.609985%,26.669312%,27.839661%);fill-opacity:1;" d="M 227.367188 153.671875 C 227.984375 154.125 227.339844 155.589844 228.75 155.4375 C 229.398438 155.679688 229.757812 156.234375 229.445312 156.796875 C 228.914062 157.652344 228.320312 158.464844 227.667969 159.234375 C 227.023438 158.902344 226.484375 159.105469 225.992188 159.5625 C 225.589844 156.777344 225.835938 155.722656 227.367188 153.671875 Z M 227.367188 153.671875 "/>
</g>
</g>
</g>
<g clip-path="url(#clip7)" clip-rule="nonzero">
<g clip-path="url(#clip8)" clip-rule="nonzero">
<g clip-path="url(#clip9)" clip-rule="nonzero">
<path style=" stroke:none;fill-rule:nonzero;fill:rgb(59.609985%,26.669312%,27.839661%);fill-opacity:1;" d="M 126.480469 247.710938 C 124.21875 245.390625 123.734375 242.820312 125.378906 239.949219 C 126.015625 241.140625 126.421875 242.402344 126.605469 243.742188 C 126.789062 245.078125 126.734375 246.40625 126.441406 247.722656 Z M 126.480469 247.710938 "/>
</g>
</g>
</g>
<g clip-path="url(#clip10)" clip-rule="nonzero">
<g clip-path="url(#clip11)" clip-rule="nonzero">
<g clip-path="url(#clip12)" clip-rule="nonzero">
<path style=" stroke:none;fill-rule:nonzero;fill:rgb(59.609985%,26.669312%,27.839661%);fill-opacity:1;" d="M 326.535156 313.679688 C 328.761719 315.164062 328.910156 317.4375 328.664062 319.75 C 328.597656 320.265625 327.824219 320.734375 327.367188 321.210938 C 326.660156 318.808594 325.03125 316.652344 325.382812 313.980469 C 325.457031 313.488281 326.035156 313.40625 326.535156 313.679688 Z M 326.535156 313.679688 "/>
</g>
</g>
</g>
</g>
</svg>
