<?xml version="1.0" encoding="UTF-8"?>
<svg xmlns="http://www.w3.org/2000/svg" xmlns:xlink="http://www.w3.org/1999/xlink" width="600pt" height="599.999999pt" viewBox="0 0 600 599.999999" version="1.2">
<defs>
<clipPath id="clip1">
  <path d="M 0.269531 395 L 188 395 L 188 599.8125 L 0.269531 599.8125 Z M 0.269531 395 "/>
</clipPath>
<clipPath id="clip2">
  <path d="M 90 541 L 173 541 L 173 599.8125 L 90 599.8125 Z M 90 541 "/>
</clipPath>
<clipPath id="clip3">
  <path d="M 177 369 L 388 369 L 388 599.8125 L 177 599.8125 Z M 177 369 "/>
</clipPath>
<clipPath id="clip4">
  <path d="M 179 535 L 214 535 L 214 599.8125 L 179 599.8125 Z M 179 535 "/>
</clipPath>
<clipPath id="clip5">
  <path d="M 355 495 L 421 495 L 421 599.8125 L 355 599.8125 Z M 355 495 "/>
</clipPath>
<clipPath id="clip6">
  <path d="M 413 427 L 600 427 L 600 599.8125 L 413 599.8125 Z M 413 427 "/>
</clipPath>
<clipPath id="clip7">
  <path d="M 351 565 L 385 565 L 385 599.8125 L 351 599.8125 Z M 351 565 "/>
</clipPath>
<clipPath id="clip8">
  <path d="M 0.269531 338.0625 L 8 338.0625 L 8 599.8125 L 0.269531 599.8125 Z M 0.269531 338.0625 "/>
</clipPath>
</defs>
<g id="surface1">
<path style=" stroke:none;fill-rule:nonzero;fill:rgb(59.609985%,26.669312%,27.839661%);fill-opacity:1;" d="M 63.992188 525.273438 C 63.839844 521.546875 63.660156 517.769531 64.386719 514.203125 C 66.367188 504.359375 62.074219 497.070312 55.800781 490.484375 C 49.726562 484.101562 43.476562 477.878906 37.128906 471.757812 C 35.605469 470.285156 33.269531 469.695312 31.550781 468.375 C 24.332031 462.855469 18.59375 456.460938 18.699219 446.519531 C 18.738281 443.367188 18.117188 440.210938 17.6875 435.925781 C 21.941406 438.113281 25.238281 439.539062 28.246094 441.429688 C 31.882812 443.714844 34.011719 447.445312 34.148438 451.566406 C 34.675781 467.945312 37.40625 465.785156 47.515625 476.703125 C 51.761719 481.285156 56.371094 485.515625 60.847656 489.863281 C 61.019531 490.027344 61.546875 489.820312 62.648438 489.703125 C 62.480469 487.992188 62.480469 486.277344 62.113281 484.65625 C 60.652344 478.191406 59.230469 471.71875 57.464844 465.347656 C 56.695312 462.585938 55.234375 459.996094 53.902344 457.421875 C 52.046875 453.835938 49.476562 450.527344 48.195312 446.761719 C 46.550781 441.921875 45.664062 436.730469 47.195312 431.578125 C 48.546875 427.03125 50.058594 422.523438 51.589844 417.699219 C 54.269531 422.039062 56.847656 425.847656 59.058594 429.875 C 63 437.019531 64.152344 444.179688 58.511719 451.019531 C 59.121094 456.042969 59.371094 461.140625 60.417969 466.074219 C 62.085938 473.898438 64.378906 481.589844 66.238281 489.378906 C 69.085938 501.230469 67.960938 513.253906 67.378906 525.210938 C 67.269531 527.34375 66.25 529.433594 65.488281 531.53125 C 65.101562 529.46875 64.898438 527.335938 64.90625 525.113281 C 64.601562 525.167969 64.296875 525.21875 63.992188 525.273438 "/>
<g clip-path="url(#clip1)" clip-rule="nonzero">
<path style=" stroke:none;fill-rule:nonzero;fill:rgb(59.609985%,26.669312%,27.839661%);fill-opacity:1;" d="M 18.789062 609.144531 C 14.789062 608.96875 11.679688 607.945312 9.109375 604.90625 C 7.453125 602.933594 5.707031 600.980469 3.730469 599.367188 C 2.097656 598.039062 0.0585938 597.234375 -1.382812 595.351562 C 5.464844 593.484375 11.941406 592.570312 18.246094 594.203125 C 21.242188 594.980469 24.144531 597.207031 26.4375 599.445312 C 31.570312 604.449219 37.226562 608.1875 44.273438 609.910156 C 47.085938 610.597656 49.613281 612.363281 52.34375 613.476562 C 55.324219 614.6875 58.378906 615.71875 62.253906 617.132812 C 62.011719 614.695312 61.96875 613.332031 61.699219 612.015625 C 61.558594 611.332031 61.011719 610.722656 60.632812 610.097656 C 52.460938 596.417969 52.460938 596.417969 38.804688 587.648438 C 36.941406 586.457031 34.910156 585.480469 33.234375 584.074219 C 29.625 581.035156 25.597656 579.839844 20.929688 580.28125 C 19.515625 580.414062 18.046875 580.03125 16.722656 579.894531 C 10.238281 573.628906 8.652344 564.933594 4.273438 557.90625 C 5.429688 556.183594 6.398438 556.480469 7.882812 557.4375 C 10.929688 559.410156 14.042969 561.429688 17.410156 562.691406 C 22.875 564.746094 27.171875 567.828125 29.375 573.351562 C 30.851562 577.042969 33.566406 579.042969 37.136719 580.628906 C 41.410156 582.539062 45.347656 585.191406 49.800781 587.722656 C 51.359375 582.710938 49.753906 579.195312 46.898438 576.15625 C 41.875 570.789062 41.015625 564.609375 42.707031 557.71875 C 43.628906 553.953125 44.195312 550.089844 45.007812 545.785156 C 47.992188 549.433594 50.433594 552.597656 53.050781 555.601562 C 57.347656 560.523438 58.539062 565.875 55.816406 571.960938 C 54.914062 573.960938 54.105469 576.003906 53.175781 578.226562 C 55.53125 585.300781 56.398438 593 62.101562 599.941406 C 63.105469 596.917969 63.964844 594.910156 64.441406 592.820312 C 65.972656 586.027344 68.78125 579.554688 72.542969 573.691406 C 75.183594 569.585938 75.472656 565.398438 73.636719 560.953125 C 71.476562 555.699219 69.320312 550.394531 66.480469 545.5 C 65.15625 543.210938 63.175781 541.367188 60.824219 540.171875 C 53.488281 536.480469 45.90625 533.296875 38.328125 530.113281 C 37.121094 529.613281 35.480469 530.132812 34.039062 530.179688 C 31.101562 530.277344 28.15625 530.5 25.21875 530.464844 C 19.855469 530.394531 15.207031 528.886719 11.851562 524.191406 C 9.746094 521.25 7.023438 518.75 4.570312 516.03125 C 13.777344 510.726562 19.398438 510.304688 26.410156 516.929688 C 35.605469 525.605469 47.398438 528.035156 60.050781 534.363281 C 56.964844 527.882812 53.15625 524.925781 50.535156 521.140625 C 49.496094 519.644531 48.386719 518.175781 47.058594 516.9375 C 39.351562 509.722656 36.421875 501.125 38.175781 491.046875 C 38.527344 489.03125 38.507812 486.941406 38.714844 484.171875 C 50.605469 492.671875 53.675781 503.6875 51.832031 516.507812 C 54.617188 519.789062 57.214844 522.84375 59.863281 525.972656 C 61.332031 525.730469 62.675781 525.5 63.992188 525.273438 C 64.296875 525.21875 64.601562 525.167969 64.90625 525.113281 C 64.898438 527.335938 65.101562 529.46875 65.488281 531.53125 C 67.117188 540.183594 71.980469 547.640625 77.558594 555.753906 C 78.589844 552.824219 79.652344 551.183594 79.644531 549.550781 C 79.625 542.574219 79.359375 535.59375 79.054688 528.617188 C 78.480469 515.367188 76.949219 502.101562 77.414062 488.886719 C 77.945312 473.675781 82.519531 459.195312 89.835938 445.730469 C 91.0625 443.464844 92.207031 441.125 93.640625 438.992188 C 95.644531 436.003906 96.46875 432.851562 94.804688 429.625 C 92.46875 425.078125 93.433594 420.910156 96.058594 417.125 C 101.089844 409.902344 106.410156 402.871094 111.648438 395.792969 C 111.746094 395.65625 112.308594 395.863281 112.660156 395.90625 C 115.078125 403.472656 115.800781 414.015625 113.679688 419.222656 C 112.460938 422.21875 110.90625 425.5 108.539062 427.542969 C 98.046875 436.617188 92.601562 448.628906 88.507812 461.320312 C 84.578125 473.53125 81.167969 485.945312 82.636719 498.953125 C 84.640625 500.738281 86.144531 499.492188 87.597656 498.460938 C 90.398438 496.453125 91.914062 493.675781 92.976562 490.367188 C 97.589844 476.03125 98.511719 474.535156 107.644531 463.542969 C 110.1875 463.609375 110.339844 465.570312 110.511719 467.363281 C 111.71875 479.90625 107.609375 489.75 96.15625 496.003906 C 86.351562 501.355469 82 509.847656 83.449219 520.820312 C 84.855469 531.425781 85.519531 541.964844 82.832031 554.148438 C 86.683594 551.261719 88.964844 549.515625 91.292969 547.828125 C 96.050781 544.386719 103.554688 539.753906 106.5 534.667969 C 110.941406 527.003906 112.453125 518.496094 112.453125 518.496094 C 116.285156 512.230469 118.648438 506.0625 123.835938 501.230469 C 129.476562 495.976562 131.582031 489.683594 134.25 483.1875 C 136.109375 478.648438 135.96875 473.539062 133.800781 469.136719 C 130.453125 462.296875 131.625 456.042969 135.886719 449.953125 C 137.148438 448.152344 137.867188 445.964844 139.15625 444.199219 C 140.070312 442.945312 140.570312 440.613281 143.425781 441.546875 C 144.527344 446.039062 145.640625 450.617188 146.777344 455.199219 C 148.09375 460.523438 147.386719 465.714844 144.027344 469.902344 C 139.917969 475.027344 138.941406 481.25 136.871094 487.09375 C 136.46875 488.214844 136.980469 489.667969 137.132812 491.863281 C 139.925781 490.601562 141.957031 489.863281 143.8125 488.808594 C 149.828125 485.347656 156.222656 482.359375 158.335938 474.660156 C 158.847656 472.777344 160.96875 471.15625 162.644531 469.785156 C 169.484375 464.226562 176.433594 458.792969 183.390625 453.378906 C 184.144531 452.796875 185.246094 452.671875 186.757812 452.125 C 186.863281 453.980469 187.507812 455.675781 186.945312 456.667969 C 183.140625 463.367188 179.539062 470.257812 174.957031 476.390625 C 171.402344 481.132812 166.261719 484.191406 159.785156 484.289062 C 157.734375 484.316406 155.535156 485.210938 153.699219 486.25 C 147.449219 489.800781 141.25 493.46875 135.289062 497.476562 C 131.972656 499.707031 128.832031 502.199219 125.984375 505.015625 C 122.804688 508.152344 119.894531 511.703125 119.132812 516.765625 C 120.601562 517.097656 121.640625 517.628906 122.597656 517.503906 C 129.414062 516.550781 135.027344 513.460938 139.710938 508.304688 C 147.027344 500.226562 155.6875 494.796875 168.070312 495.96875 C 166.304688 498.273438 164.640625 500.101562 163.378906 502.191406 C 161.863281 504.699219 161.039062 507.6875 159.285156 509.988281 C 157.558594 512.25 155.308594 514.425781 152.820312 515.71875 C 147.867188 518.28125 142.550781 519.382812 136.800781 518.480469 C 128.195312 517.132812 121.390625 519.707031 115.578125 530.421875 C 112.230469 536.597656 112.515625 538.75 106.605469 542.59375 C 93.917969 550.867188 82.421875 560.109375 76.519531 575.199219 C 73.171875 583.769531 69.785156 592.257812 67.109375 601.078125 C 65.675781 605.800781 66.390625 609.621094 68.953125 613.582031 C 69.804688 614.902344 70.628906 616.246094 71.460938 617.574219 L 51.042969 617.574219 C 46.121094 615.414062 41.121094 613.414062 36.089844 611.59375 C 30.707031 609.667969 24.601562 609.40625 18.789062 609.144531 "/>
</g>
<g clip-path="url(#clip2)" clip-rule="nonzero">
<path style=" stroke:none;fill-rule:nonzero;fill:rgb(59.609985%,26.669312%,27.839661%);fill-opacity:1;" d="M 98.046875 610.402344 C 96.265625 604.421875 94.320312 598.46875 92.089844 592.644531 C 88.546875 583.363281 90.535156 571.753906 97.867188 562.585938 C 103.105469 568.277344 106.964844 574.058594 103.667969 582.164062 C 102.558594 584.886719 101.277344 587.558594 100.285156 590.328125 C 98.152344 596.292969 98.851562 599.382812 103.875 606.4375 C 104.742188 604.53125 105.585938 602.980469 106.167969 601.328125 C 108.496094 594.730469 110.324219 587.917969 113.152344 581.554688 C 115.480469 576.300781 116.957031 571.066406 115.902344 565.507812 C 114.71875 559.257812 117.082031 554.902344 121.667969 551.046875 C 128.070312 545.667969 133.453125 544.539062 135.960938 541.957031 C 136.585938 551.628906 135.539062 560.691406 127.34375 567.613281 C 122.4375 571.765625 119.429688 577.222656 117.421875 583.273438 C 116.152344 587.121094 114.691406 590.914062 113.484375 594.777344 C 113.105469 596.003906 113.296875 597.402344 113.152344 599.894531 C 121.660156 593.90625 129.199219 588.753906 136.53125 583.320312 C 138.207031 582.082031 139.515625 580.054688 140.410156 578.128906 C 144.726562 568.789062 151.53125 562.738281 161.855469 560.933594 C 163.65625 560.628906 170.550781 557.796875 172.644531 560.792969 C 168.804688 569.34375 163.59375 577.242188 153.054688 578.773438 C 148.84375 579.382812 145.765625 580.746094 142.648438 583.222656 C 138.109375 586.832031 133.40625 590.238281 128.671875 593.582031 C 119.195312 600.28125 111.066406 608.277344 104.296875 617.574219 L 98.367188 617.574219 C 98.90625 615.222656 98.78125 612.839844 98.046875 610.402344 "/>
</g>
<path style=" stroke:none;fill-rule:nonzero;fill:rgb(59.609985%,26.669312%,27.839661%);fill-opacity:1;" d="M 294.667969 422.835938 C 294.675781 422.835938 294.675781 422.835938 294.683594 422.828125 C 294.683594 422.828125 294.683594 422.835938 294.683594 422.835938 C 294.683594 422.835938 294.660156 422.847656 294.667969 422.835938 "/>
<path style=" stroke:none;fill-rule:nonzero;fill:rgb(59.609985%,26.669312%,27.839661%);fill-opacity:1;" d="M 294.660156 422.847656 L 294.683594 422.835938 C 294.683594 422.847656 294.683594 422.847656 294.683594 422.847656 C 294.675781 422.847656 294.667969 422.847656 294.660156 422.847656 "/>
<g clip-path="url(#clip3)" clip-rule="nonzero">
<path style=" stroke:none;fill-rule:nonzero;fill:rgb(59.609985%,26.669312%,27.839661%);fill-opacity:1;" d="M 245.804688 587.175781 C 247.136719 585.890625 247.691406 583.085938 247.511719 581.070312 C 247.144531 576.710938 246.070312 572.425781 245.203125 567.667969 C 233.820312 566.84375 227.734375 558.433594 220.785156 551.566406 C 215.839844 546.679688 211.550781 541.023438 207.496094 535.332031 C 203.386719 529.550781 198.828125 524.324219 192.820312 520.550781 C 187.464844 517.1875 184.707031 512.367188 183.203125 506.339844 C 181.714844 500.34375 179.566406 494.527344 177.703125 488.617188 C 178.457031 488.464844 179.207031 488.082031 179.835938 488.234375 C 189.722656 490.617188 200.1875 500.371094 203.054688 509.828125 C 203.59375 511.585938 204.34375 513.386719 204.363281 515.179688 C 204.488281 523.867188 208.902344 530.214844 214.238281 536.667969 C 220.371094 544.089844 226.445312 551.460938 234.046875 557.386719 C 235.21875 558.289062 237.019531 558.390625 239.855469 559.277344 C 236.535156 551.523438 233.660156 545.21875 231.136719 538.792969 C 229.128906 533.675781 227.769531 528.304688 225.710938 523.210938 C 224.347656 519.859375 222.574219 516.578125 220.417969 513.683594 C 218.367188 510.929688 216.648438 508.25 216.621094 504.753906 C 216.601562 502.164062 216.738281 499.582031 216.664062 497 C 216.566406 494.058594 216.378906 491.109375 216.109375 488.171875 C 215.894531 485.769531 215.5 483.390625 215.070312 480.128906 C 218.707031 483.679688 221.707031 486.332031 224.375 489.273438 C 230.867188 496.445312 234.679688 504.449219 231.898438 514.480469 C 230.257812 520.40625 230.902344 526.109375 233.769531 531.640625 C 235.773438 535.53125 237.339844 539.644531 239.097656 543.617188 C 242.507812 542.863281 242.804688 540.109375 241.765625 538.46875 C 237.761719 532.113281 238.917969 525.894531 240.957031 519.347656 C 241.816406 516.613281 241.566406 513.539062 241.953125 510.644531 C 242.121094 509.34375 242.597656 508.089844 243.160156 505.972656 C 251.917969 514.792969 254.335938 523.785156 249.339844 534.542969 C 247.65625 538.15625 246.097656 542.074219 245.695312 545.980469 C 245.03125 552.402344 244.386719 558.953125 248.632812 564.90625 C 250.484375 567.507812 251.003906 571.046875 252.105469 574.105469 C 255.269531 574.285156 256.019531 571.960938 256.449219 569.910156 C 257.730469 563.785156 258.722656 557.609375 259.808594 551.460938 C 261.589844 541.304688 263.363281 531.144531 265.152344 520.898438 C 257.902344 512.929688 252.839844 504.019531 249.726562 494.078125 C 248.882812 491.398438 247.539062 489.441406 245.195312 488.144531 C 237.386719 483.832031 235.523438 476.589844 235.398438 468.449219 C 235.335938 464.136719 235.210938 459.824219 235.09375 454.582031 C 242.640625 459.742188 248.578125 465.285156 251.183594 473.664062 C 251.929688 476.078125 252.804688 478.777344 252.421875 481.140625 C 251.203125 488.609375 253.738281 494.9375 257.382812 501.078125 C 259.214844 504.164062 261.070312 507.238281 263.828125 511.855469 C 264.464844 508.824219 264.902344 507.585938 264.957031 506.332031 C 265.144531 501.914062 265.0625 497.484375 265.351562 493.074219 C 265.699219 487.839844 265.179688 482.820312 263.316406 477.871094 C 260.507812 470.382812 259.691406 462.960938 264.089844 455.546875 C 265.511719 453.144531 265.699219 450.015625 266.496094 447.085938 C 273.425781 453.117188 277.609375 463.085938 274.144531 470.222656 C 268.636719 481.574219 269.566406 493.09375 270.445312 504.835938 C 270.5625 506.261719 270.921875 507.660156 271.125 508.851562 C 273.632812 510.214844 275.019531 508.601562 276.132812 507.363281 C 279.320312 503.824219 282.410156 500.171875 285.273438 496.363281 C 288.003906 492.742188 289.375 488.769531 288.417969 483.957031 C 286.054688 472.042969 284.074219 460.058594 281.863281 448.117188 C 281.066406 443.769531 279.8125 439.492188 279.195312 435.128906 C 278.378906 429.417969 276.203125 424.539062 271.96875 420.597656 C 270.617188 419.351562 269.390625 417.960938 268.136719 416.605469 C 263.757812 411.890625 262.304688 406.511719 264.375 400.292969 C 265.386719 397.234375 266.300781 394.140625 267.492188 390.324219 C 269.261719 392.789062 270.390625 394.632812 271.789062 396.238281 C 273.238281 397.898438 274.886719 399.402344 276.5625 400.839844 C 281.144531 404.738281 283.167969 409.800781 282.480469 415.601562 C 281.371094 425.035156 283.914062 433.898438 285.910156 442.882812 C 286.042969 443.492188 286.742188 443.976562 287.179688 444.511719 C 291.113281 440.828125 296.933594 433.074219 297.550781 429.667969 C 297.890625 427.847656 298.542969 427.015625 299.914062 424.882812 C 302.527344 419.824219 300.21875 412.421875 300.578125 407.140625 C 300.710938 405.257812 298.214844 402.632812 296.277344 401.269531 C 291.925781 398.203125 291.460938 394.4375 292.546875 389.703125 C 294.078125 382.9375 296.152344 376.4375 299.796875 369.640625 C 301.277344 370.898438 302.824219 371.578125 303.21875 372.664062 C 304.929688 377.496094 306.621094 382.371094 307.667969 387.363281 C 308.242188 390.109375 307.820312 393.183594 307.320312 396.015625 C 306.289062 401.769531 304.902344 407.453125 303.65625 413.171875 C 303.109375 415.683594 303.210938 421.222656 302.546875 424.511719 C 304.300781 424.378906 304.820312 423.0625 306.925781 420.632812 C 308.601562 418.6875 310.570312 416.984375 312.496094 415.269531 C 315.628906 412.484375 317.789062 409.238281 318.269531 404.925781 C 318.988281 398.488281 322.980469 394.265625 328.21875 391.066406 C 332.589844 388.394531 337.066406 385.894531 342.277344 382.863281 C 342.414062 384.933594 342.867188 386.601562 342.539062 388.097656 C 341.902344 390.960938 340.96875 393.78125 339.894531 396.515625 C 337.316406 403.070312 332.796875 407.992188 325.925781 409.613281 C 320.921875 410.796875 317.429688 413.628906 313.890625 416.910156 C 304.3125 425.8125 297.558594 436.804688 291.023438 447.9375 C 289.957031 449.738281 289.257812 452.140625 289.394531 454.210938 C 289.929688 462.71875 297.210938 476.679688 299.359375 476.382812 C 299.484375 476.273438 299.609375 476.183594 299.707031 476.132812 C 303.550781 473.960938 304.113281 475.367188 308.285156 474.148438 C 317.902344 471.324219 322.355469 464.128906 325.265625 455.503906 C 328.078125 447.148438 330.664062 438.714844 333.117188 430.242188 C 333.707031 428.207031 333.144531 425.859375 333.511719 423.714844 C 335.035156 414.761719 338.015625 406.691406 346.84375 402.164062 C 349.65625 400.730469 352.15625 398.703125 355.746094 396.328125 C 355.789062 401.125 356.066406 404.703125 355.800781 408.242188 C 355.46875 412.535156 353.167969 416.160156 349.585938 418.191406 C 335.347656 426.289062 338.535156 427.703125 333.582031 441.753906 C 331.503906 447.632812 329.921875 453.691406 328.15625 459.691406 C 328.085938 459.914062 328.523438 460.28125 329.132812 461.203125 C 330.566406 460.253906 332.078125 459.457031 333.351562 458.371094 C 338.375 454.078125 343.441406 449.800781 348.25 445.265625 C 350.335938 443.304688 351.949219 440.800781 353.605469 438.425781 C 355.90625 435.109375 357.636719 431.289062 360.367188 428.402344 C 363.886719 424.691406 368.046875 421.492188 373.324219 420.453125 C 377.980469 419.539062 382.664062 418.777344 387.640625 417.886719 C 385.054688 422.273438 382.878906 426.332031 380.359375 430.171875 C 375.875 436.992188 370.074219 441.339844 361.40625 439.527344 C 357.25 442.40625 352.863281 445.007812 348.984375 448.222656 C 342.84375 453.351562 337.109375 458.953125 331.09375 464.234375 C 321.941406 472.277344 315.421875 475.421875 304.570312 480.46875 C 298.050781 491.988281 286.230469 506.179688 283.851562 508.976562 C 280.742188 512.617188 274.457031 517.78125 271.503906 521.546875 C 269.628906 523.9375 268.671875 526.699219 270.839844 529.890625 C 272.476562 529.164062 274.089844 528.277344 275.800781 527.722656 C 281.550781 525.882812 285.875 522.46875 289.894531 517.816406 C 296.109375 510.625 302.429688 503.230469 311.644531 499.410156 C 312.941406 498.882812 314.160156 497.769531 315.019531 496.632812 C 323.867188 484.898438 324.152344 486.324219 338.300781 484.773438 C 340.496094 484.539062 342.644531 483.902344 344.828125 483.632812 C 346.449219 483.4375 348.410156 482.351562 349.414062 484.71875 C 345.789062 488.4375 342.539062 492.570312 338.515625 495.699219 C 332.910156 500.066406 326.0625 501.652344 319.058594 502.808594 C 307.730469 504.675781 302 509.066406 295.429688 519.90625 C 295.652344 520.164062 295.886719 520.675781 296.089844 520.667969 C 307.105469 519.929688 318.109375 519.179688 329.125 518.371094 C 330.207031 518.292969 331.273438 517.914062 333.011719 517.519531 C 335.515625 509.585938 342.644531 507.730469 350.003906 506.214844 C 354.332031 505.328125 358.636719 504.386719 362.960938 503.480469 C 364.316406 503.203125 365.828125 502.351562 366.949219 504.871094 C 366.085938 506.046875 365.066406 507.460938 364.019531 508.859375 C 357.167969 518.066406 348.339844 523.148438 336.546875 522.289062 C 333.617188 522.074219 330.644531 522.164062 327.710938 522.34375 C 322.21875 522.675781 316.75 523.160156 311.277344 523.632812 C 311.035156 523.660156 310.828125 524.191406 309.863281 525.488281 C 313.328125 527.765625 316.347656 530.6875 320.3125 532.992188 C 329.347656 530.050781 336.664062 532.769531 343.210938 539.535156 C 345.886719 542.308594 350.078125 543.578125 353.507812 545.667969 C 354.507812 546.289062 355.234375 547.382812 356.230469 548.402344 C 354.902344 549.148438 354.292969 549.765625 353.640625 549.820312 C 338.777344 550.929688 326.089844 546.546875 316.371094 534.832031 C 312.738281 530.445312 308.324219 527.253906 302.789062 525.820312 C 301.050781 525.371094 299.136719 524.996094 297.398438 525.257812 C 286.125 526.914062 276.328125 531.691406 268.339844 539.867188 C 267.140625 541.097656 266.335938 542.953125 265.960938 544.65625 C 265.414062 547.15625 265.199219 549.773438 265.242188 552.339844 C 265.367188 561.859375 262.441406 570.429688 257.585938 578.480469 C 256.066406 580.996094 254.828125 583.695312 253.253906 586.1875 C 251.578125 588.832031 249.664062 591.324219 247.808594 593.941406 C 248.9375 594.507812 249.636719 595.1875 250.171875 595.070312 C 260.265625 593.019531 270.375 591.011719 280.394531 588.625 C 282.320312 588.167969 284.199219 586.414062 285.507812 584.78125 C 287.332031 582.503906 288.910156 579.902344 290.019531 577.207031 C 291.835938 572.804688 295.410156 571.324219 299.554688 570.742188 C 303.191406 570.230469 306.925781 570.320312 310.542969 569.746094 C 314.027344 569.183594 317.429688 568.105469 322.128906 566.949219 C 319.640625 572.402344 316.640625 575.835938 313.667969 579.410156 C 307.4375 586.886719 299.796875 591.144531 290.046875 592.140625 C 284.207031 592.730469 278.460938 594.257812 272.691406 595.484375 C 271.476562 595.746094 270.363281 596.535156 268.414062 597.449219 C 275.800781 603.308594 282.535156 606.769531 291.308594 603.265625 C 296.332031 601.257812 301.25 602.074219 306.109375 604.816406 C 309.578125 606.761719 313.597656 607.722656 317.402344 609.03125 C 319.203125 609.640625 320.875 610.175781 320.269531 613.074219 C 315.917969 614.363281 311.324219 615.636719 306.792969 617.097656 C 306.199219 617.296875 305.601562 617.4375 305.007812 617.574219 L 296.0625 617.574219 C 294.21875 617.195312 292.394531 616.621094 290.609375 615.898438 C 287.636719 614.6875 285.003906 612.472656 282.445312 610.429688 C 271.324219 601.589844 259.019531 598.542969 245.183594 602.371094 C 240.574219 603.640625 235.933594 604.816406 231.296875 606.019531 C 226.910156 607.148438 221.117188 610.777344 215.734375 615.878906 C 216.699219 616.445312 217.660156 617.007812 218.617188 617.574219 L 200.644531 617.574219 C 210.960938 611.53125 221.367188 605.632812 231.414062 599.167969 C 236.632812 595.808594 241.300781 591.496094 245.804688 587.175781 "/>
</g>
<g clip-path="url(#clip4)" clip-rule="nonzero">
<path style=" stroke:none;fill-rule:nonzero;fill:rgb(59.609985%,26.669312%,27.839661%);fill-opacity:1;" d="M 208.167969 583.617188 C 207.808594 585.507812 206.933594 587.480469 205.425781 590.769531 C 206.941406 587.480469 207.808594 585.507812 208.167969 583.617188 Z M 180.472656 566.207031 C 180.328125 565.875 180.140625 565.523438 180.105469 565.167969 C 179.835938 562.269531 178.699219 559.070312 179.523438 556.523438 C 181.707031 549.773438 179.746094 541.964844 184.160156 535.753906 C 188.039062 536.992188 186.820312 540.386719 188.171875 542.324219 C 195.378906 552.625 195.128906 563.589844 191.558594 574.992188 C 190.804688 577.394531 190.527344 579.949219 190.015625 582.433594 C 189.800781 583.480469 189.203125 584.59375 189.371094 585.570312 C 190.644531 592.722656 192.058594 599.851562 193.597656 607.863281 C 197.753906 605.03125 199.445312 602.054688 199.195312 598.109375 C 199.023438 595.546875 198.238281 593.011719 198.15625 590.445312 C 198.066406 587.53125 197.621094 584.207031 198.773438 581.75 C 202.105469 574.695312 203.527344 567.164062 204.960938 559.195312 C 215.457031 571.308594 216.414062 583.320312 207.945312 595.511719 C 203.519531 601.886719 199.042969 608.1875 196.535156 615.617188 C 196.328125 616.210938 196.257812 616.855469 196.1875 617.574219 L 191.089844 617.574219 C 190.546875 614.039062 189.8125 609.65625 188.96875 603.757812 C 187.152344 591.003906 185.59375 578.210938 180.472656 566.207031 "/>
</g>
<g clip-path="url(#clip5)" clip-rule="nonzero">
<path style=" stroke:none;fill-rule:nonzero;fill:rgb(59.609985%,26.669312%,27.839661%);fill-opacity:1;" d="M 388.125 590.949219 C 387.839844 587.648438 386.496094 584.339844 386.710938 581.113281 C 387.597656 568.054688 378.75 561.375 369.992188 554.527344 C 369.707031 554.300781 369.339844 554.195312 369.007812 554.023438 C 357.609375 548.082031 354.167969 538.46875 356.066406 525.714844 C 359.828125 525.210938 362.398438 527.382812 364.921875 529.128906 C 368.253906 531.441406 371.453125 534.015625 372.9375 538.03125 C 373.71875 540.101562 374.863281 542.164062 375.050781 544.296875 C 375.695312 551.601562 379.492188 557.0625 384.9375 562.242188 C 384.03125 554.140625 384.113281 546.476562 386.753906 539.007812 C 388.054688 535.332031 387.292969 531.59375 385.652344 528.25 C 382.601562 522.039062 383.441406 516.273438 386.332031 510.269531 C 388.6875 505.390625 390.390625 500.191406 392.261719 495.441406 C 395.027344 495.039062 395.164062 496.757812 395.519531 498.066406 C 396.695312 502.324219 397.921875 506.582031 398.851562 510.902344 C 400.328125 517.761719 399.40625 524.359375 394.472656 529.523438 C 391.582031 532.535156 391.546875 535.871094 390.855469 539.492188 C 387.265625 558.417969 390.621094 576.9375 393.585938 595.492188 C 393.695312 596.140625 394.3125 596.703125 394.742188 597.375 C 397.097656 598.335938 397.957031 596.292969 398.886719 594.957031 C 403.382812 588.464844 405.753906 581.070312 407.070312 573.414062 C 407.546875 570.679688 406.703125 567.640625 406.113281 564.824219 C 405.578125 562.289062 405.074219 559.878906 406.363281 557.476562 C 404.894531 553.359375 406.867188 549.835938 408.585938 546.324219 C 410.332031 542.773438 412.273438 539.320312 414.101562 535.878906 C 420.773438 543.578125 422.070312 551.628906 416.589844 559.242188 C 412.980469 564.253906 411.058594 569.40625 410.4375 575.402344 C 409.535156 584.109375 404.859375 591.308594 400.597656 598.640625 C 399.308594 600.855469 397.671875 602.914062 396.703125 605.265625 C 395.449219 608.285156 394.644531 612.757812 394.285156 617.574219 L 389.914062 617.574219 C 389.953125 617.144531 389.96875 616.710938 389.941406 616.292969 C 389.441406 607.835938 388.851562 599.382812 388.125 590.949219 "/>
</g>
<g clip-path="url(#clip6)" clip-rule="nonzero">
<path style=" stroke:none;fill-rule:nonzero;fill:rgb(59.609985%,26.669312%,27.839661%);fill-opacity:1;" d="M 436.476562 579.269531 C 435.367188 572.375 434.125 565.507812 432.789062 558.660156 C 432.449219 556.929688 431.542969 555.296875 430.882812 553.628906 C 429.933594 551.246094 429.117188 548.796875 428.007812 546.484375 C 424.820312 539.851562 425.6875 533.746094 429.691406 527.6875 C 432.671875 523.175781 435.144531 518.335938 438.582031 512.339844 C 440.328125 519.160156 441.644531 524.636719 443.148438 530.0625 C 444.429688 534.652344 443.910156 539 440.984375 542.636719 C 436.578125 548.105469 436.488281 553.851562 438.261719 560.296875 C 440.097656 566.984375 441.261719 573.863281 442.648438 580.351562 C 445.726562 581.390625 446.535156 579.3125 447.25 577.90625 C 451.523438 569.351562 455.8125 560.808594 459.734375 552.097656 C 465.195312 539.976562 462.894531 527.523438 460.253906 515.289062 C 459.519531 511.882812 457.003906 508.804688 455.015625 505.769531 C 453.824219 503.949219 451.988281 502.558594 450.589844 500.855469 C 448.074219 497.816406 447.222656 494.492188 448.648438 490.574219 C 451.289062 483.347656 453.714844 476.03125 456.320312 468.527344 C 462.589844 477.359375 465.714844 485.542969 465.972656 493.53125 C 466.117188 498.121094 464.765625 502.246094 461.972656 506.179688 C 463.304688 512.304688 464.667969 518.578125 466.367188 526.449219 C 472.222656 515.789062 478.734375 507.292969 477.757812 495.773438 C 477.363281 491.109375 479.765625 487.34375 482.925781 483.984375 C 487.6875 478.929688 492.28125 473.703125 497.074219 468.414062 C 499.429688 468.996094 498.558594 471.210938 498.515625 472.699219 C 498.355469 477.109375 498.335938 481.609375 497.386719 485.875 C 495.585938 493.96875 492.273438 501.265625 484.25 505.308594 C 482.683594 506.097656 480.820312 507.183594 480.113281 508.636719 C 475.109375 518.882812 469.84375 529.066406 468.125 540.550781 C 468.035156 541.167969 468.570312 541.886719 469.054688 543.203125 C 470.628906 542.765625 472.242188 542.226562 473.898438 541.875 C 480.355469 540.503906 486.765625 538.558594 493.285156 538.046875 C 500.96875 537.449219 519.539062 520.738281 521.8125 500.640625 C 523.203125 488.359375 520.292969 479.921875 513.09375 471.496094 C 500.199219 463.894531 498.59375 452.152344 501.238281 438.890625 C 501.363281 438.257812 502.035156 437.734375 502.757812 436.730469 C 513.628906 443.964844 517.695312 454.140625 516.46875 466.835938 C 519.261719 471.058594 522.046875 475.269531 525.261719 480.136719 C 529.300781 476.613281 529.34375 471.863281 531.269531 468.171875 C 533.195312 464.476562 533.652344 460.390625 533.113281 456.308594 C 532.289062 450.132812 533.507812 444.484375 537.351562 439.644531 C 540.742188 435.378906 544.550781 431.441406 548.347656 427.15625 C 550.699219 433.476562 551.929688 441.625 551.433594 445.644531 C 550.628906 452.257812 547.503906 457.628906 542.042969 461.214844 C 537.65625 464.089844 535.792969 467.992188 534.546875 472.824219 C 532.058594 482.449219 529.09375 491.953125 526.40625 501.527344 C 526.039062 502.828125 526.085938 504.242188 525.878906 506.199219 C 531.886719 504.019531 534.71875 498.792969 539.375 496.03125 C 544.074219 493.234375 546.027344 488.4375 548.515625 483.894531 C 551.320312 478.757812 554.238281 473.613281 558.304688 468.78125 C 558.355469 454.320312 568.671875 449.050781 581.878906 443.367188 C 579.675781 449.773438 578.273438 453.863281 576.882812 457.960938 C 575.675781 461.492188 573.894531 464.59375 570.722656 466.746094 C 568.046875 468.574219 565.53125 469.246094 560.460938 469.34375 C 560.558594 471.003906 559.332031 472.140625 558.785156 473.378906 C 558.035156 475.054688 557.085938 476.652344 556.316406 478.328125 C 555.429688 480.261719 554.632812 482.253906 553.710938 484.449219 C 560.140625 484 567.25 481.410156 572.011719 478.128906 C 574.726562 476.265625 577.457031 474.339844 580.429688 472.964844 C 582.335938 472.089844 584.738281 471.703125 586.824219 471.9375 C 592.597656 472.582031 598.3125 473.675781 605 474.742188 C 598.957031 480.300781 592.929688 484.152344 585.640625 485.785156 C 582.722656 486.429688 579.890625 486.109375 577.609375 483.859375 C 575.59375 483.238281 573.605469 482.621094 571.933594 482.109375 C 526.40625 501.527344 516.101562 527.085938 512.195312 533.738281 C 511.375 535.144531 510.703125 536.648438 509.894531 538.226562 C 517.542969 540.621094 517.902344 540.667969 521.714844 537.742188 C 523.757812 536.183594 525.457031 534.167969 527.570312 532.722656 C 530.285156 530.878906 533.070312 528.726562 536.140625 527.929688 C 541.988281 526.394531 547.144531 523.972656 551.550781 519.851562 C 554.398438 517.1875 557.980469 515.898438 561.695312 516.273438 C 567.078125 516.8125 572.605469 517.132812 578.585938 519.851562 C 575.898438 521.851562 573.855469 523.195312 572.023438 524.78125 C 565.976562 530.042969 559.054688 531.503906 551.515625 529.261719 C 548.5 528.367188 545.820312 528.589844 542.902344 529.308594 C 535.578125 531.109375 529.425781 534.792969 523.863281 540.261719 C 525.109375 540.925781 525.996094 541.707031 526.980469 541.867188 C 530.238281 542.40625 533.535156 543.058594 536.8125 543.042969 C 544.523438 542.988281 552.230469 542.523438 559.941406 542.34375 C 564.0625 542.246094 567.9375 541.867188 571.261719 538.902344 C 572.523438 537.769531 574.5 537.019531 576.210938 536.902344 C 582.425781 536.480469 588.667969 536.328125 594.898438 536.273438 C 596.039062 536.265625 597.175781 537.1875 598.902344 537.941406 C 593.253906 541.699219 588.28125 544.761719 583.582031 548.195312 C 578.578125 551.835938 573.320312 551.863281 567.859375 549.953125 C 565.789062 549.226562 564 547.765625 561.949219 547.003906 C 560.292969 546.386719 558.242188 545.625 556.71875 546.089844 C 545.714844 549.453125 534.824219 547.292969 523.925781 545.792969 C 518.105469 544.996094 512.347656 543.695312 506.539062 542.773438 C 502.695312 542.15625 498.773438 541.347656 493.617188 543.605469 C 503.636719 549.925781 509.492188 559.078125 517.265625 564.878906 C 521.527344 564.261719 523.773438 562.765625 526.890625 562.308594 C 526.847656 562.28125 529.792969 562.621094 529.746094 562.59375 C 529.746094 562.59375 544.121094 567.148438 551.5625 573.351562 C 547.683594 574.792969 544.074219 576.273438 540.386719 577.484375 C 534.871094 579.304688 529.703125 578.605469 524.507812 575.761719 C 520.515625 573.585938 517.445312 570.554688 514.4375 567.355469 C 510.40625 563.078125 506.824219 558.289062 502.347656 554.5625 C 498.191406 551.117188 493.382812 548.117188 488.386719 546.125 C 479.828125 542.71875 468.140625 547.433594 463.78125 555.46875 C 461.515625 559.644531 459.597656 564.011719 457.648438 568.347656 C 452.355469 580.101562 446.375 591.421875 437.730469 601.132812 C 436.808594 602.171875 435.691406 603.308594 437.804688 605.355469 C 446.6875 603.875 456 601.8125 464.925781 598.710938 C 472.207031 596.175781 478.554688 591.890625 480.246094 583.160156 C 481.421875 577.082031 485.925781 573.90625 491.65625 572.515625 C 495.191406 571.65625 498.820312 570.992188 502.4375 570.6875 C 503.851562 570.570312 505.375 571.675781 507.78125 572.5625 C 502.632812 577.332031 494.796875 587.15625 494.796875 587.15625 C 494.808594 587.148438 491.316406 592.050781 485.082031 591.683594 C 477.355469 596.164062 469.617188 600.65625 460.566406 605.910156 C 470.109375 609.601562 477.730469 611.296875 486.085938 606.457031 C 495.316406 601.113281 509.628906 601.859375 520.6875 607.480469 C 517.28125 608.671875 506.222656 616.191406 501.046875 614.972656 C 501.136719 615.046875 495.355469 614.183594 495.441406 614.257812 C 486.363281 613.84375 477.285156 613.429688 467.632812 612.992188 C 467.703125 614.542969 467.71875 616.066406 467.730469 617.574219 L 463.621094 617.574219 C 462.949219 614.390625 461.722656 611.523438 460.046875 610.007812 C 459.015625 609.082031 457.53125 608.375 456.167969 608.160156 C 454.027344 607.828125 451.761719 607.640625 449.652344 608.007812 C 444.222656 608.949219 438.894531 610.410156 433.46875 611.324219 C 431.25 611.703125 427.191406 614.257812 422.707031 617.574219 L 413.761719 617.574219 C 419.359375 612.140625 425.035156 606.671875 429.074219 603.292969 C 436.863281 596.773438 437.964844 588.457031 436.476562 579.269531 "/>
</g>
<g clip-path="url(#clip7)" clip-rule="nonzero">
<path style=" stroke:none;fill-rule:nonzero;fill:rgb(59.609985%,26.669312%,27.839661%);fill-opacity:1;" d="M 366.679688 601.070312 C 349.558594 590.804688 350.929688 588.3125 351.941406 572.570312 C 352.082031 570.375 352.109375 568.160156 352.191406 566.070312 C 354.707031 563.929688 356.597656 565.640625 357.921875 567.136719 C 360.597656 570.152344 362.953125 573.457031 365.289062 576.757812 C 369.203125 582.269531 371.246094 588.4375 372.292969 595.144531 C 373.546875 603.265625 377.84375 610.929688 384.460938 617.574219 L 380.15625 617.574219 C 377.003906 613.214844 374.074219 608.679688 370.878906 604.351562 C 369.859375 602.96875 368.199219 601.976562 366.679688 601.070312 "/>
</g>
<g clip-path="url(#clip8)" clip-rule="nonzero">
<path style=" stroke:none;fill-rule:nonzero;fill:rgb(59.609985%,26.669312%,27.839661%);fill-opacity:1;" d="M -103.785156 566.71875 C -103.695312 557.117188 -105.667969 547.902344 -109.140625 538.710938 C -113.554688 527.023438 -119.457031 515.941406 -122.5625 503.660156 C -124.433594 496.28125 -128.636719 489.496094 -131.679688 482.40625 C -134.382812 476.121094 -140.4375 473.59375 -145.550781 470.214844 C -153.214844 465.167969 -161.703125 463.1875 -170.632812 466.878906 C -175.351562 468.832031 -179.261719 467.625 -182.917969 464.601562 C -185.40625 462.550781 -187.804688 460.390625 -190.625 457.933594 C -183.917969 452.410156 -176.175781 451.398438 -168.644531 450.609375 C -166.261719 450.359375 -163.628906 453.296875 -160.980469 454.5 C -156.789062 456.410156 -156.375 462.246094 -151.53125 463.382812 C -147.566406 464.316406 -143.847656 465.667969 -140.472656 468.132812 C -138.796875 469.355469 -136.433594 469.613281 -134.179688 470.382812 C -131.9375 465.410156 -132.441406 461.546875 -136.703125 458.433594 C -139.378906 456.488281 -142.023438 454.480469 -144.601562 452.410156 C -150.941406 447.308594 -156.761719 441.753906 -160.71875 434.480469 C -163.601562 429.203125 -167.308594 424.792969 -173.101562 422.363281 C -178.96875 419.898438 -182.085938 415.082031 -183.75 409.066406 C -184.921875 404.863281 -186.507812 400.773438 -188.046875 396.222656 C -176.023438 398.488281 -167.632812 404.164062 -163.414062 416.527344 C -158.472656 431.011719 -149.867188 443.265625 -135.101562 452.25 C -135.699219 449.121094 -135.503906 446.871094 -136.496094 445.464844 C -143.644531 435.371094 -148.628906 424.503906 -150.519531 412.152344 C -150.984375 409.085938 -153.070312 406.074219 -154.980469 403.457031 C -160.191406 396.320312 -161.542969 388.914062 -158.265625 380.535156 C -156.574219 376.195312 -155.695312 371.53125 -154.046875 365.554688 C -148.890625 373.109375 -145.398438 379.816406 -143.035156 387.050781 C -141.609375 391.390625 -142.15625 396.007812 -144.144531 400.011719 C -147.796875 407.375 -146.625 414.542969 -143.1875 421.1875 C -140.367188 426.636719 -139.648438 433.261719 -134.160156 438.238281 C -133.203125 436.320312 -132.261719 434.847656 -131.714844 433.246094 C -130.632812 430.117188 -130.121094 426.746094 -128.734375 423.777344 C -125.984375 417.90625 -125.179688 412 -125.796875 405.515625 C -126.601562 397 -124.003906 389.535156 -116.769531 384.15625 C -114.488281 382.460938 -112.472656 380.390625 -110.386719 378.535156 C -109.796875 379.019531 -109.292969 379.214844 -109.277344 379.464844 C -108.882812 383.851562 -108.273438 388.242188 -108.273438 392.636719 C -108.273438 399.960938 -110.71875 406.621094 -116.457031 411.238281 C -120.183594 414.222656 -122.082031 417.925781 -123.621094 422.074219 C -127.613281 432.867188 -130.855469 443.707031 -128.464844 455.523438 C -127.75 459.042969 -128.445312 462.855469 -128.554688 466.539062 C -128.851562 477.171875 -125.527344 486.808594 -120.433594 495.941406 C -120.144531 496.445312 -119.296875 496.625 -118.085938 497.296875 C -117.191406 495.316406 -116.019531 493.460938 -115.5 491.433594 C -114.210938 486.441406 -113.277344 481.355469 -112.097656 476.328125 C -111.28125 472.886719 -111.800781 469.703125 -113.789062 466.835938 C -118.382812 460.238281 -117.253906 453.640625 -113.921875 447.023438 C -111.78125 442.757812 -109.570312 438.515625 -107.386719 434.238281 C -104.566406 435.207031 -106.160156 438.058594 -105.074219 439.824219 C -104.136719 441.375 -103.597656 443.195312 -103.027344 444.933594 C -101 451.085938 -101.199219 457.089844 -103.257812 463.347656 C -105.425781 469.953125 -106.597656 476.894531 -108.390625 483.644531 C -110.464844 491.46875 -112.730469 499.242188 -115.195312 508.019531 C -113.894531 510.410156 -112.210938 513.539062 -110.699219 516.347656 C -107.199219 516.488281 -106.472656 513.980469 -105.226562 512.429688 C -100.832031 506.96875 -96.550781 501.4375 -90.777344 497.304688 C -88.554688 495.71875 -87.265625 493.574219 -87.328125 490.742188 C -87.480469 484.851562 -87.246094 478.9375 -87.820312 473.09375 C -89.074219 460.21875 -89.65625 447.347656 -88.339844 434.492188 C -87.132812 422.730469 -85.214844 410.90625 -80.65625 400.058594 C -77.113281 391.613281 -77.128906 383.445312 -79.394531 375.378906 C -81.25 368.773438 -80.550781 363.152344 -77.792969 357.269531 C -74.871094 351.050781 -72.175781 344.730469 -69.070312 337.773438 C -62.460938 348.691406 -61.890625 359.316406 -65.085938 370.339844 C -65.597656 372.089844 -65.988281 374.078125 -67.101562 375.40625 C -71.542969 380.757812 -72.921875 387.183594 -74.363281 393.691406 C -75.5625 399.089844 -77.246094 404.378906 -78.652344 409.730469 C -79.761719 413.972656 -80.78125 418.230469 -80.539062 423.914062 C -73.511719 418.929688 -66.902344 415.308594 -67.898438 405.886719 C -68.210938 402.910156 -66.824219 400.246094 -64.816406 397.84375 C -59.175781 391.101562 -53.730469 384.207031 -48.367188 377.566406 C -45.160156 377.78125 -45.214844 380.066406 -45.503906 381.636719 C -46.765625 388.511719 -47.992188 395.421875 -49.890625 402.148438 C -51.789062 408.90625 -56.902344 413.363281 -62.992188 416.328125 C -69.214844 419.367188 -73.601562 424.15625 -77.550781 429.542969 C -82.296875 436.023438 -84.660156 443.167969 -83.960938 451.316406 C -83.03125 462.308594 -82.339844 473.324219 -81.480469 484.324219 C -81.425781 484.960938 -80.828125 485.550781 -80.476562 486.164062 C -79.796875 485.964844 -64.539062 472.070312 -64.109375 471.605469 C -63.625 470.707031 -62.777344 469.757812 -62.890625 468.949219 C -63.1875 466.789062 -64.082031 464.71875 -64.523438 462.566406 C -65.488281 457.914062 -64.65625 453.753906 -60.519531 450.851562 C -54.152344 446.367188 -49.183594 440.550781 -45 434.320312 C -43.730469 438.542969 -43.453125 441.285156 -43.34375 442.890625 C -42.886719 449.578125 -42.316406 450.804688 -44.945312 456.894531 C -47.972656 463.894531 -51.878906 470.3125 -59.660156 471.476562 C -67.394531 479.78125 -72.679688 485.320312 -80.820312 493.46875 C -87.050781 499.699219 -93.792969 505.460938 -99.550781 512.085938 C -105.855469 519.339844 -106.734375 527.765625 -102.675781 536.777344 C -100.894531 540.746094 -99.953125 545.128906 -98.863281 549.390625 C -98.054688 552.5625 -97.617188 555.824219 -96.917969 559.546875 C -90.847656 557.25 -87.363281 553.316406 -86.628906 547.445312 C -85.582031 539.035156 -84.070312 530.519531 -84.5 522.136719 C -84.964844 513.027344 -81.265625 507.507812 -73.933594 503.257812 C -70.144531 501.0625 -66.652344 498.355469 -63.015625 495.890625 C -61.78125 495.054688 -60.519531 494.222656 -59.328125 495.621094 C -60.144531 500.378906 -61.046875 504.996094 -61.691406 509.648438 C -62.128906 512.824219 -63.804688 515.101562 -66.160156 516.980469 C -68.757812 519.054688 -71.53125 520.898438 -74.023438 523.078125 C -75.644531 524.496094 -77.425781 526.117188 -78.210938 528.027344 C -80.46875 533.441406 -81.203125 539.179688 -81.273438 546.457031 C -78.023438 544.46875 -75.695312 543.542969 -74.003906 541.929688 C -65.417969 533.726562 -58.800781 524.0625 -53.121094 513.636719 C -49.621094 507.191406 -46.183594 500.488281 -41.4375 494.992188 C -37.398438 490.292969 -34.507812 485.597656 -33.671875 479.574219 C -32.921875 474.167969 -29.761719 471.226562 -24.585938 469.75 C -18.234375 467.929688 -12.023438 465.652344 -5.304688 463.417969 C -5.78125 469.53125 -10.078125 473.296875 -13.148438 477.71875 C -16.183594 482.074219 -19.9375 485.777344 -25.042969 487.15625 C -30.109375 488.527344 -33.34375 491.703125 -36.054688 495.753906 C -39.136719 500.335938 -42.207031 504.933594 -45.089844 509.640625 C -45.921875 510.992188 -46.121094 512.734375 -46.730469 514.679688 C -39.71875 514.382812 -33.519531 514.121094 -27.710938 513.871094 C -19.765625 504.710938 -19.777344 504.789062 -7.535156 504.925781 C -3.875 504.96875 -0.210938 504.324219 3.453125 504.164062 C 4.714844 504.109375 5.996094 504.59375 7.390625 504.851562 C 7.007812 505.902344 6.980469 506.296875 6.773438 506.519531 C 5.789062 507.613281 4.667969 508.582031 3.773438 509.730469 C -4.480469 520.34375 -15.308594 523.355469 -27.65625 519.179688 C -38.3125 515.566406 -46.542969 519.679688 -53.929688 526.117188 C -58.128906 529.773438 -61.46875 534.703125 -62.667969 540.414062 C -58.566406 541.75 -54.914062 542.484375 -51.707031 544.109375 C -47.527344 546.214844 -43.953125 546.097656 -40.640625 542.828125 C -38.160156 540.371094 -35.25 538.917969 -31.785156 538.917969 C -29.222656 538.925781 -26.652344 539.277344 -24.09375 539.492188 C -21.890625 539.671875 -19.625 539.625 -17.5 540.136719 C -15.191406 540.691406 -12.628906 537.816406 -10.464844 540.59375 C -13.285156 547.792969 -19.410156 551.183594 -25.550781 554.375 C -29.617188 556.488281 -34.15625 556.785156 -38.375 554.804688 C -41.652344 553.253906 -44.652344 551.109375 -47.707031 549.121094 C -55.261719 544.199219 -68.175781 543.660156 -74.847656 548.878906 C -81.5 554.085938 -87.535156 560.09375 -93.828125 565.75 C -96.113281 567.800781 -97.214844 570.292969 -97.636719 573.433594 C -99.050781 584.027344 -101.027344 594.550781 -102.308594 605.15625 C -102.800781 609.253906 -102.875 613.414062 -102.875 617.574219 L -108.65625 617.574219 C -108.515625 609.335938 -106.804688 601.285156 -105.765625 593.144531 C -104.644531 584.386719 -103.875 575.539062 -103.785156 566.71875 "/>
</g>
</g>
</svg>
