<?xml version="1.0" encoding="UTF-8"?>
<svg xmlns="http://www.w3.org/2000/svg" xmlns:xlink="http://www.w3.org/1999/xlink" width="600pt" height="599.999999pt" viewBox="0 0 600 599.999999" version="1.2">
<defs>
<clipPath id="clip1">
  <path d="M 110 27 L 485 27 L 485 524 L 110 524 Z M 110 27 "/>
</clipPath>
<clipPath id="clip2">
  <path d="M 356.3125 21.953125 L 617.808594 267.191406 L 261.242188 647.402344 L -0.257812 402.164062 Z M 356.3125 21.953125 "/>
</clipPath>
<clipPath id="clip3">
  <path d="M 617.792969 267.175781 L 356.292969 21.9375 L -0.273438 402.148438 L 261.222656 647.386719 Z M 617.792969 267.175781 "/>
</clipPath>
<clipPath id="clip4">
  <path d="M 330 79 L 353 79 L 353 158 L 330 158 Z M 330 79 "/>
</clipPath>
<clipPath id="clip5">
  <path d="M 356.3125 21.953125 L 617.808594 267.191406 L 261.242188 647.402344 L -0.257812 402.164062 Z M 356.3125 21.953125 "/>
</clipPath>
<clipPath id="clip6">
  <path d="M 617.792969 267.175781 L 356.292969 21.9375 L -0.273438 402.148438 L 261.222656 647.386719 Z M 617.792969 267.175781 "/>
</clipPath>
<clipPath id="clip7">
  <path d="M 295 233 L 307 233 L 307 274 L 295 274 Z M 295 233 "/>
</clipPath>
<clipPath id="clip8">
  <path d="M 356.3125 21.953125 L 617.808594 267.191406 L 261.242188 647.402344 L -0.257812 402.164062 Z M 356.3125 21.953125 "/>
</clipPath>
<clipPath id="clip9">
  <path d="M 617.792969 267.175781 L 356.292969 21.9375 L -0.273438 402.148438 L 261.222656 647.386719 Z M 617.792969 267.175781 "/>
</clipPath>
<clipPath id="clip10">
  <path d="M 407 291 L 421 291 L 421 313 L 407 313 Z M 407 291 "/>
</clipPath>
<clipPath id="clip11">
  <path d="M 356.3125 21.953125 L 617.808594 267.191406 L 261.242188 647.402344 L -0.257812 402.164062 Z M 356.3125 21.953125 "/>
</clipPath>
<clipPath id="clip12">
  <path d="M 617.792969 267.175781 L 356.292969 21.9375 L -0.273438 402.148438 L 261.222656 647.386719 Z M 617.792969 267.175781 "/>
</clipPath>
<clipPath id="clip13">
  <path d="M 393 312 L 408 312 L 408 323 L 393 323 Z M 393 312 "/>
</clipPath>
<clipPath id="clip14">
  <path d="M 356.3125 21.953125 L 617.808594 267.191406 L 261.242188 647.402344 L -0.257812 402.164062 Z M 356.3125 21.953125 "/>
</clipPath>
<clipPath id="clip15">
  <path d="M 617.792969 267.175781 L 356.292969 21.9375 L -0.273438 402.148438 L 261.222656 647.386719 Z M 617.792969 267.175781 "/>
</clipPath>
<clipPath id="clip16">
  <path d="M 207 460 L 286 460 L 286 478 L 207 478 Z M 207 460 "/>
</clipPath>
<clipPath id="clip17">
  <path d="M 356.3125 21.953125 L 617.808594 267.191406 L 261.242188 647.402344 L -0.257812 402.164062 Z M 356.3125 21.953125 "/>
</clipPath>
<clipPath id="clip18">
  <path d="M 617.792969 267.175781 L 356.292969 21.9375 L -0.273438 402.148438 L 261.222656 647.386719 Z M 617.792969 267.175781 "/>
</clipPath>
<clipPath id="clip19">
  <path d="M 231 482 L 290 482 L 290 508 L 231 508 Z M 231 482 "/>
</clipPath>
<clipPath id="clip20">
  <path d="M 356.3125 21.953125 L 617.808594 267.191406 L 261.242188 647.402344 L -0.257812 402.164062 Z M 356.3125 21.953125 "/>
</clipPath>
<clipPath id="clip21">
  <path d="M 617.792969 267.175781 L 356.292969 21.9375 L -0.273438 402.148438 L 261.222656 647.386719 Z M 617.792969 267.175781 "/>
</clipPath>
<clipPath id="clip22">
  <path d="M 289 502 L 318 502 L 318 509 L 289 509 Z M 289 502 "/>
</clipPath>
<clipPath id="clip23">
  <path d="M 356.3125 21.953125 L 617.808594 267.191406 L 261.242188 647.402344 L -0.257812 402.164062 Z M 356.3125 21.953125 "/>
</clipPath>
<clipPath id="clip24">
  <path d="M 617.792969 267.175781 L 356.292969 21.9375 L -0.273438 402.148438 L 261.222656 647.386719 Z M 617.792969 267.175781 "/>
</clipPath>
<clipPath id="clip25">
  <path d="M 313 367 L 369 367 L 369 399 L 313 399 Z M 313 367 "/>
</clipPath>
<clipPath id="clip26">
  <path d="M 356.3125 21.953125 L 617.808594 267.191406 L 261.242188 647.402344 L -0.257812 402.164062 Z M 356.3125 21.953125 "/>
</clipPath>
<clipPath id="clip27">
  <path d="M 617.792969 267.175781 L 356.292969 21.9375 L -0.273438 402.148438 L 261.222656 647.386719 Z M 617.792969 267.175781 "/>
</clipPath>
<clipPath id="clip28">
  <path d="M 367 372 L 412 372 L 412 392 L 367 392 Z M 367 372 "/>
</clipPath>
<clipPath id="clip29">
  <path d="M 356.3125 21.953125 L 617.808594 267.191406 L 261.242188 647.402344 L -0.257812 402.164062 Z M 356.3125 21.953125 "/>
</clipPath>
<clipPath id="clip30">
  <path d="M 617.792969 267.175781 L 356.292969 21.9375 L -0.273438 402.148438 L 261.222656 647.386719 Z M 617.792969 267.175781 "/>
</clipPath>
<clipPath id="clip31">
  <path d="M 344 397 L 372 397 L 372 414 L 344 414 Z M 344 397 "/>
</clipPath>
<clipPath id="clip32">
  <path d="M 356.3125 21.953125 L 617.808594 267.191406 L 261.242188 647.402344 L -0.257812 402.164062 Z M 356.3125 21.953125 "/>
</clipPath>
<clipPath id="clip33">
  <path d="M 617.792969 267.175781 L 356.292969 21.9375 L -0.273438 402.148438 L 261.222656 647.386719 Z M 617.792969 267.175781 "/>
</clipPath>
<clipPath id="clip34">
  <path d="M 398 418 L 418 418 L 418 422 L 398 422 Z M 398 418 "/>
</clipPath>
<clipPath id="clip35">
  <path d="M 356.3125 21.953125 L 617.808594 267.191406 L 261.242188 647.402344 L -0.257812 402.164062 Z M 356.3125 21.953125 "/>
</clipPath>
<clipPath id="clip36">
  <path d="M 617.792969 267.175781 L 356.292969 21.9375 L -0.273438 402.148438 L 261.222656 647.386719 Z M 617.792969 267.175781 "/>
</clipPath>
<clipPath id="clip37">
  <path d="M 383 415 L 399 415 L 399 420 L 383 420 Z M 383 415 "/>
</clipPath>
<clipPath id="clip38">
  <path d="M 356.3125 21.953125 L 617.808594 267.191406 L 261.242188 647.402344 L -0.257812 402.164062 Z M 356.3125 21.953125 "/>
</clipPath>
<clipPath id="clip39">
  <path d="M 617.792969 267.175781 L 356.292969 21.9375 L -0.273438 402.148438 L 261.222656 647.386719 Z M 617.792969 267.175781 "/>
</clipPath>
<clipPath id="clip40">
  <path d="M 196 319 L 209 319 L 209 406 L 196 406 Z M 196 319 "/>
</clipPath>
<clipPath id="clip41">
  <path d="M 356.3125 21.953125 L 617.808594 267.191406 L 261.242188 647.402344 L -0.257812 402.164062 Z M 356.3125 21.953125 "/>
</clipPath>
<clipPath id="clip42">
  <path d="M 617.792969 267.175781 L 356.292969 21.9375 L -0.273438 402.148438 L 261.222656 647.386719 Z M 617.792969 267.175781 "/>
</clipPath>
</defs>
<g id="surface1">
<g clip-path="url(#clip1)" clip-rule="nonzero">
<g clip-path="url(#clip2)" clip-rule="nonzero">
<g clip-path="url(#clip3)" clip-rule="nonzero">
<path style=" stroke:none;fill-rule:nonzero;fill:rgb(59.609985%,26.669312%,27.839661%);fill-opacity:1;" d="M 223.589844 422.59375 C 224.445312 415.867188 227.242188 411.191406 229.789062 406.550781 C 232.214844 402.023438 234.265625 397.335938 235.9375 392.484375 C 236.371094 391.277344 236.523438 389.9375 237.113281 388.820312 C 242.027344 379.496094 243.046875 369.230469 243.882812 359.058594 C 244.453125 352.148438 244.214844 345.234375 242.40625 338.246094 C 239.28125 326.210938 234.804688 314.449219 234.171875 301.769531 C 233.875 296.5625 232.488281 291.664062 230.011719 287.074219 C 228.246094 283.730469 227.285156 279.917969 225.925781 276.339844 C 223.757812 270.613281 220.28125 265.628906 216.78125 260.714844 C 214.558594 257.585938 211.480469 256.5625 207.476562 257.59375 C 201.003906 259.273438 195.660156 262.246094 192.097656 268.136719 C 189.933594 271.710938 187.59375 275.167969 185.078125 278.507812 C 179.546875 285.855469 176.582031 294.15625 174.808594 303.113281 C 173.035156 312.074219 172.335938 320.777344 173.457031 329.863281 C 174.234375 336.191406 173.929688 342.617188 174.945312 348.984375 C 176.269531 357.5625 178.613281 365.855469 181.976562 373.859375 C 182.722656 375.636719 183.296875 377.472656 183.6875 379.359375 C 186.585938 393.03125 192.65625 405.277344 200.28125 416.847656 C 203.460938 421.664062 206.414062 426.605469 209.621094 431.386719 C 211.203125 433.738281 211.238281 434.53125 209.050781 437.308594 C 208.6875 437.839844 208.277344 438.332031 207.824219 438.789062 C 192.726562 452.230469 177.441406 465.425781 160.34375 476.335938 C 160.089844 476.53125 159.8125 476.695312 159.519531 476.828125 C 159.273438 476.902344 158.78125 476.914062 158.75 476.804688 C 158.480469 476.320312 158.351562 475.796875 158.359375 475.242188 C 158.46875 474.644531 158.957031 474.113281 159.203125 473.519531 C 162.050781 466.71875 164.996094 459.957031 167.644531 453.082031 C 168.421875 451.082031 169.394531 449.722656 171.410156 449.171875 C 173.421875 448.625 174.617188 447.195312 175.753906 445.59375 C 178.238281 442.097656 179.414062 438.070312 180.105469 433.964844 C 180.410156 432.148438 179.878906 430.125 179.355469 428.296875 C 179.253906 427.90625 179.105469 427.535156 178.917969 427.183594 C 178.726562 426.828125 178.496094 426.5 178.230469 426.199219 C 177.960938 425.902344 177.664062 425.636719 177.335938 425.40625 C 177.003906 425.175781 176.652344 424.988281 176.277344 424.84375 C 175.902344 424.695312 175.515625 424.597656 175.117188 424.539062 C 174.722656 424.484375 174.320312 424.476562 173.921875 424.515625 C 173.519531 424.554688 173.132812 424.640625 172.75 424.773438 C 172.371094 424.902344 172.011719 425.078125 171.671875 425.292969 C 170.085938 426.328125 168.761719 427.765625 167.3125 429.019531 C 166.105469 430.066406 164.902344 429.910156 164.082031 428.65625 C 162.140625 425.695312 159.324219 424.027344 155.953125 424.535156 C 152.117188 425.085938 150.238281 428.386719 148.71875 431.597656 C 145.300781 438.773438 147.988281 446.847656 155 450.421875 C 157.230469 451.5625 159.304688 450.554688 161.347656 449.421875 C 161.597656 449.261719 161.875 449.179688 162.171875 449.1875 C 162.472656 449.191406 162.746094 449.277344 162.992188 449.449219 C 163.238281 449.621094 163.414062 449.84375 163.523438 450.121094 C 163.632812 450.402344 163.65625 450.6875 163.589844 450.980469 C 162.429688 457.707031 159.09375 463.617188 156.453125 469.785156 C 155.632812 471.539062 154.703125 473.238281 153.667969 474.875 C 150.5625 480.136719 146.9375 484.894531 141.4375 487.917969 C 133.585938 492.21875 126.296875 497.53125 117.78125 500.644531 C 115.679688 501.445312 113.683594 502.457031 111.792969 503.675781 C 111.128906 504.089844 110.949219 505.265625 110.550781 506.097656 C 111.425781 506.335938 112.34375 506.875 113.171875 506.761719 C 116.394531 506.390625 119.425781 505.421875 122.269531 503.859375 C 128.117188 500.53125 134.164062 497.566406 139.960938 494.167969 C 148.238281 489.320312 156.484375 484.355469 164.554688 479.140625 C 169.914062 475.664062 174.964844 471.695312 180.117188 467.902344 C 181.574219 466.835938 182.796875 466.625 184.386719 467.828125 C 186.683594 469.5625 189.203125 470.996094 191.589844 472.617188 C 196.410156 475.882812 200.78125 479.605469 204.050781 484.507812 C 211.945312 496.335938 223.113281 504.585938 235.511719 510.699219 C 248.28125 516.941406 261.722656 520.882812 275.84375 522.523438 C 282.210938 523.285156 288.605469 524.976562 294.890625 522.882812 C 303.777344 519.9375 313.203125 519.519531 322.058594 516.886719 C 334.421875 513.199219 343.257812 505.191406 346.898438 492.328125 C 347.742188 489.355469 346.875 487.566406 343.933594 486.125 C 342.199219 485.292969 340.421875 484.5625 338.605469 483.925781 C 326.785156 479.773438 315.445312 474.566406 304.589844 468.316406 C 295.792969 463.195312 286.957031 457.824219 276.839844 455.367188 C 273.421875 454.535156 269.976562 453.679688 266.496094 453.421875 C 255.664062 452.597656 244.75 452.902344 234.011719 450.96875 C 225.75 452.078125 217.34375 450.355469 209.105469 452.410156 C 206.0625 453.167969 202.902344 454.03125 199.035156 453.214844 C 202.136719 449.964844 204.855469 446.875 207.824219 444.058594 C 213.890625 438.335938 220.039062 432.707031 226.195312 427.089844 C 227.359375 426.027344 228.570312 424.824219 229.988281 424.28125 C 235.363281 422.226562 240.820312 420.382812 246.265625 418.535156 C 247.179688 418.308594 248.101562 418.242188 249.035156 418.332031 C 250.898438 418.375 252.214844 419.492188 251.875 421.273438 C 250.597656 427.628906 255 431.375 258.335938 435.496094 C 260.121094 437.691406 265.480469 438.265625 267.335938 436.832031 C 270.421875 434.460938 273.140625 431.769531 272.832031 427.277344 C 272.660156 424.917969 271.351562 423.089844 270.542969 421.007812 C 269.976562 419.582031 270.640625 418.300781 271.980469 418.539062 C 275.410156 419.140625 278.277344 417.839844 281.144531 416.320312 C 281.921875 415.914062 282.625 415.402344 283.242188 414.777344 C 283.863281 414.152344 284.375 413.453125 284.773438 412.667969 C 285.175781 411.886719 285.445312 411.0625 285.589844 410.195312 C 285.734375 409.328125 285.742188 408.460938 285.613281 407.589844 C 285.214844 404.171875 282.367188 400.910156 278.664062 400.660156 C 270.621094 400.121094 263.480469 402.285156 258.355469 409.050781 C 257.074219 413.851562 253.605469 414.660156 249.363281 413.925781 C 245.621094 413.273438 242.5 415.097656 239.199219 416.296875 C 238.65625 416.488281 237.675781 416.558594 237.390625 416.242188 C 236.59375 415.351562 237.554688 414.65625 238.085938 414.089844 C 241.835938 410.128906 245.800781 406.363281 249.375 402.269531 C 258.460938 391.882812 267.425781 381.378906 276.355469 370.847656 C 278.875 367.878906 281.410156 365.273438 285.332031 363.964844 C 286.214844 363.617188 287.128906 363.488281 288.070312 363.574219 C 289.011719 363.65625 289.886719 363.945312 290.695312 364.441406 C 293.269531 365.851562 295.230469 367.953125 297.167969 370.117188 C 310.898438 385.453125 326.417969 398.804688 342.71875 411.300781 C 353.777344 419.777344 366.121094 425.898438 379.140625 430.53125 C 384.921875 432.53125 390.867188 433.65625 396.976562 433.902344 C 404.621094 434.265625 412.226562 435.550781 419.867188 435.722656 C 430.074219 435.960938 440.25 437.828125 450.492188 436.382812 C 452.714844 436.070312 454.949219 435.785156 457.148438 435.34375 C 460.675781 434.636719 461.710938 432.957031 460.160156 429.972656 C 458.101562 426.011719 456.679688 421.75 454.105469 417.992188 C 452.160156 415.171875 451.148438 411.625 450.097656 408.289062 C 446.324219 396.3125 438.964844 386.800781 430.015625 378.304688 C 419.40625 368.230469 406.507812 363.261719 392.363281 360.542969 C 377.488281 357.695312 362.492188 357.269531 347.453125 356.984375 C 346.808594 356.953125 346.167969 356.992188 345.53125 357.09375 C 335.085938 359.074219 324.402344 358.109375 313.933594 359.710938 C 310.71875 360.199219 307.554688 359.933594 304.375 359.539062 C 303.535156 359.449219 302.234375 359.628906 302.484375 358.324219 C 302.769531 357.378906 303.351562 356.6875 304.230469 356.246094 C 309.148438 353.902344 314.144531 351.738281 319.089844 349.449219 C 329.515625 344.605469 340.429688 340.699219 349.890625 333.941406 C 352.527344 332.058594 355.195312 332.277344 358.136719 332.996094 C 364.042969 334.445312 369.980469 335.785156 375.953125 336.933594 C 383.894531 338.460938 391.835938 339.21875 399.503906 335.507812 C 408.644531 334.273438 416.476562 330.027344 424.125 325.214844 C 426.84375 323.527344 429.648438 322.003906 432.546875 320.644531 C 440.476562 316.878906 447.21875 311.597656 453.710938 305.785156 C 456.894531 303.042969 459.429688 299.792969 461.320312 296.039062 C 466.371094 285.667969 471.601562 275.371094 476.269531 264.828125 C 482.179688 251.460938 484.179688 237.226562 484.585938 222.730469 C 484.628906 220.738281 484.039062 218.949219 482.820312 217.375 C 481.570312 215.632812 479.925781 214.863281 477.859375 215.148438 C 476.265625 215.355469 474.597656 215.535156 473.183594 216.207031 C 464.183594 220.484375 454.453125 222.703125 445.199219 226.246094 C 439.214844 228.535156 433.222656 230.984375 427.542969 233.75 C 421.003906 236.933594 415.367188 242.007812 409.417969 246.355469 C 406.84375 248.246094 404.484375 250.433594 401.988281 252.445312 C 397.46875 256.097656 393.507812 260.28125 390.113281 264.996094 C 381.460938 276.953125 372.691406 288.800781 366.28125 302.230469 C 363.53125 307.992188 359.542969 313.144531 356.496094 318.78125 C 351.351562 328.28125 343.285156 334.617188 333.726562 338.582031 C 320.695312 343.972656 308.152344 350.363281 295.277344 356.046875 C 293 357.050781 290.722656 358.445312 287.605469 357.257812 C 290.382812 352.855469 292.835938 348.3125 295.894531 344.246094 C 303.472656 334.1875 309.125 323.035156 314.914062 311.9375 C 318.910156 304.265625 322.03125 296.140625 326.871094 288.894531 C 327.382812 288.070312 327.769531 287.191406 328.035156 286.257812 C 330.550781 278.351562 335.804688 272.375 341.808594 266.960938 C 346.519531 262.679688 351.402344 258.582031 356.203125 254.410156 C 356.636719 254.90625 356.988281 255.144531 357.039062 255.398438 C 357.578125 259.300781 359.933594 261.511719 363.480469 262.917969 C 366.730469 264.210938 369.789062 263.652344 372.828125 262.492188 C 374.003906 261.957031 375.101562 261.296875 376.121094 260.511719 C 379.550781 258.1875 379.785156 253.441406 376.714844 250.609375 C 374.78125 248.796875 372.378906 247.945312 369.976562 247.003906 C 368.175781 246.308594 368.117188 245.257812 369.785156 243.664062 C 372.378906 241.195312 374.554688 238.460938 375.855469 235.097656 C 376.589844 233.191406 376.546875 231.371094 375.097656 229.703125 C 373.644531 228.03125 371.898438 227.648438 369.894531 227.925781 C 368.925781 228.015625 368.007812 228.28125 367.140625 228.730469 C 361.511719 232.089844 356.953125 236.460938 354.558594 242.730469 C 354.230469 243.585938 353.878906 244.894531 354.277344 245.484375 C 356.589844 248.832031 354.121094 250.496094 352.257812 252.699219 C 349.726562 255.695312 346.679688 258.027344 343.578125 260.28125 C 341.15625 262.042969 340.441406 265.9375 336.597656 265.867188 C 337.1875 262.820312 337.484375 259.699219 338.414062 256.734375 C 342.105469 244.785156 345.960938 232.941406 349.691406 221.023438 C 350.207031 219.140625 351.136719 217.488281 352.476562 216.066406 C 363.246094 205.152344 370.21875 191.925781 376.097656 177.914062 C 382.183594 163.375 383.28125 148.234375 383.511719 132.789062 C 383.664062 122.773438 382.21875 112.996094 379.179688 103.453125 C 377.644531 98.492188 377.066406 93.421875 377.441406 88.242188 C 377.523438 86.003906 377.40625 83.777344 377.097656 81.5625 C 376.308594 74.761719 375.28125 68.128906 375.351562 61.359375 C 375.285156 59.101562 374.960938 56.878906 374.378906 54.699219 C 373.3125 50.023438 371.886719 45.414062 371 40.703125 C 370.679688 38.960938 370.105469 37.308594 369.277344 35.742188 C 368.449219 34.175781 367.40625 32.769531 366.148438 31.523438 C 361.855469 27.140625 360.265625 27.078125 354.417969 29.851562 C 347.550781 33.039062 342.355469 38.257812 337.113281 43.421875 C 325.125 55.246094 317.65625 69.574219 314.984375 86.136719 C 313.601562 94.609375 313.550781 103.277344 313.300781 111.902344 C 312.816406 128.179688 317.167969 143.699219 319.632812 159.476562 C 321.46875 171.1875 326.15625 182.207031 332.730469 192.265625 C 335.898438 197.097656 338.910156 202.003906 342.003906 206.867188 C 343.222656 208.765625 344.109375 210.808594 344.660156 212.992188 C 345.542969 216.460938 345.46875 219.90625 344.441406 223.332031 C 341.136719 235.382812 336.839844 247.109375 333.292969 259.101562 C 329.917969 270.375 326.371094 281.820312 319.925781 291.964844 C 318.78125 293.894531 317.738281 295.878906 316.800781 297.914062 C 316.257812 299.003906 315.542969 300.996094 314.707031 300.582031 C 312.894531 299.671875 314.09375 297.792969 314.460938 296.324219 C 315.449219 292.285156 316.78125 288.367188 317.242188 284.175781 C 318.035156 276.867188 319.339844 269.621094 320.242188 262.324219 C 320.570312 259.464844 320.640625 256.597656 320.453125 253.726562 C 320.28125 250.847656 319.519531 248.003906 319.316406 245.136719 C 318.46875 233.894531 313.738281 224.21875 307.570312 215.046875 C 296.707031 198.765625 284.695312 183.378906 271.539062 168.886719 C 269.53125 166.804688 267.3125 164.980469 264.878906 163.414062 C 260.847656 160.667969 253.433594 161.351562 250.03125 165.703125 C 244.664062 172.574219 239.714844 179.367188 238.621094 188.558594 C 237.667969 196.511719 235.828125 204.28125 237.160156 212.398438 C 237.71875 215.816406 237.472656 219.453125 237.042969 222.921875 C 235.769531 233.351562 238.5 243.328125 240.117188 253.429688 C 240.449219 255.007812 240.980469 256.511719 241.714844 257.941406 C 246.9375 269.324219 252.90625 280.273438 261.097656 289.835938 C 263.359375 292.546875 265.828125 295.050781 268.507812 297.355469 C 276.363281 303.953125 284.417969 310.3125 292.308594 316.875 C 294.511719 318.703125 296.339844 320.972656 298.441406 322.925781 C 300.714844 325.058594 300.601562 327.144531 299.183594 329.785156 C 297.203125 333.460938 295.386719 337.175781 292.863281 340.554688 C 285.171875 350.851562 278.019531 361.566406 269.941406 371.53125 C 258.035156 386.222656 245.683594 400.5625 232.039062 413.722656 C 229.390625 416.28125 226.949219 419.054688 223.613281 422.566406 Z M 393.097656 322.082031 L 393.289062 322.265625 C 390.65625 323.296875 388.015625 324.398438 385.335938 325.359375 C 384.804688 325.5625 384.089844 325.292969 383.5 325.117188 C 382.910156 324.9375 382.765625 324.351562 383.152344 323.613281 C 384.785156 320.5 386.359375 317.355469 388.078125 314.292969 C 389.011719 312.628906 390.253906 311.132812 391.207031 309.464844 C 391.585938 308.832031 392.765625 307.871094 391.191406 307.285156 C 390.757812 307.128906 390.0625 307.667969 389.488281 307.886719 C 388.914062 308.105469 388.28125 308.578125 387.941406 308.402344 C 387.429688 308.035156 387.183594 307.535156 387.210938 306.90625 C 389.175781 298.042969 392.640625 289.917969 398.671875 282.953125 C 402.441406 278.605469 405.917969 273.992188 409.414062 269.421875 C 410.320312 268.117188 411.03125 266.710938 411.546875 265.207031 C 411.679688 264.863281 411.117188 264.027344 410.660156 263.742188 C 410.207031 263.457031 409.25 263.320312 408.96875 263.589844 C 407.855469 264.726562 406.820312 265.929688 405.871094 267.203125 C 399.425781 275.476562 393.402344 284.070312 386.449219 291.941406 C 386.53125 292.25 386.746094 292.585938 386.683594 292.863281 C 384.394531 303.132812 381.609375 313.25 377.570312 322.992188 C 376.867188 324.679688 375.496094 325.25 373.800781 325.382812 C 369.035156 325.773438 364.265625 326.167969 359.316406 324.8125 C 359.671875 323.976562 360.09375 323.179688 360.589844 322.417969 C 366.945312 314.410156 373.179688 306.296875 379.804688 298.519531 C 381.796875 296.183594 383.351562 293.152344 386.589844 292.03125 C 385.949219 289.496094 387.578125 287.742188 388.847656 285.957031 C 397.03125 274.46875 405.355469 263.078125 413.464844 251.542969 C 415.605469 248.5 418.175781 245.878906 421.179688 243.683594 C 424.183594 241.488281 427.460938 239.832031 431.007812 238.71875 C 444.675781 234.234375 457.917969 228.71875 470.726562 222.171875 C 471.863281 221.59375 472.972656 220.953125 474.140625 220.472656 C 476.148438 219.628906 478.328125 220.960938 478.105469 222.960938 C 476.234375 239.539062 473.078125 255.78125 465.371094 270.835938 C 464.347656 272.832031 463.578125 274.953125 462.664062 277.003906 C 461.882812 278.75 461.289062 280.617188 460.222656 282.1875 C 452.671875 293.3125 444.65625 304.007812 433.972656 312.570312 C 428.382812 317.039062 422.316406 320.425781 416.191406 323.832031 C 413.457031 325.351562 410.273438 326.066406 407.28125 327.09375 C 407.050781 327.171875 406.695312 326.882812 406.394531 326.761719 C 406.5625 326.492188 406.707031 326.199219 406.902344 325.945312 C 408.960938 323.269531 412.308594 322.613281 415.007812 321.035156 C 421.144531 317.421875 427.046875 313.417969 431.070312 307.570312 C 440.089844 294.464844 445.113281 279.648438 448.085938 264.109375 C 448.242188 263.167969 448.199219 262.230469 447.960938 261.304688 C 447.84375 260.820312 447.175781 260.140625 446.761719 260.144531 C 446.089844 260.203125 445.585938 260.527344 445.253906 261.117188 C 444.179688 264.457031 443 267.789062 442.316406 271.214844 C 440.214844 281.699219 436.117188 291.433594 430.789062 300.578125 C 422.75 314.375 410.195312 322.03125 394.90625 325.582031 C 394.269531 325.742188 393.644531 325.699219 393.039062 325.453125 C 392.789062 325.332031 392.84375 324.464844 392.863281 323.9375 C 392.90625 323.316406 392.984375 322.699219 393.097656 322.082031 Z M 305.515625 273.425781 L 305.742188 273.566406 C 305.277344 273.726562 304.910156 274.007812 304.632812 274.414062 C 304.359375 274.820312 304.238281 275.269531 304.265625 275.761719 C 304.398438 278.601562 304.675781 281.457031 305.0625 286.4375 C 302.855469 281.742188 301.617188 278.921875 300.214844 276.15625 C 298.5 272.761719 296.640625 269.390625 294.824219 266.03125 C 294.5 265.492188 294.117188 265.003906 293.671875 264.566406 C 293.578125 264.476562 293.179688 264.515625 293.089844 264.625 C 292.902344 264.863281 292.640625 265.265625 292.726562 265.472656 C 294.417969 269.585938 296.355469 273.609375 297.855469 277.796875 C 301.195312 287.125 302.507812 296.664062 299.84375 308.371094 C 296.621094 299.925781 292.605469 293.796875 289.269531 287.316406 C 286.164062 281.265625 282.109375 275.96875 277.714844 270.875 C 276.039062 268.933594 274.167969 267.199219 272.558594 265.179688 C 266.683594 257.757812 262.855469 249.40625 261.824219 239.941406 C 261.464844 236.804688 261.921875 233.554688 261.714844 230.355469 C 261.324219 222.957031 262.109375 215.679688 264.070312 208.53125 C 264.722656 206.058594 265.359375 203.574219 265.878906 201.066406 C 265.9375 200.765625 265.128906 199.9375 264.769531 199.964844 C 263.496094 200.058594 264.664062 199.0625 263.832031 200.039062 C 261.660156 202.59375 260.746094 205.6875 260.445312 208.875 C 259.695312 217.136719 258.625 225.410156 258.703125 233.675781 C 258.789062 239.820312 259.933594 245.761719 262.136719 251.496094 C 263.753906 255.855469 265.800781 260 268.285156 263.929688 C 270.769531 267.859375 273.632812 271.488281 276.875 274.816406 C 284.863281 283.007812 289.367188 293.246094 294.429688 303.183594 C 294.632812 303.796875 294.625 304.410156 294.402344 305.023438 C 294.257812 305.542969 293.75 305.347656 293.136719 304.714844 C 287.367188 298.734375 281.519531 292.820312 275.804688 286.789062 C 267.625 278.144531 260.507812 268.710938 255.195312 258.015625 C 252.5 252.570312 249.777344 247.136719 247.265625 241.605469 C 244.753906 236.078125 242.558594 230.425781 241.777344 224.324219 C 240.199219 211.972656 243.101562 200.144531 246.234375 188.402344 C 247.039062 185.386719 248.949219 182.585938 250.734375 179.945312 C 251.882812 178.382812 253.3125 177.136719 255.023438 176.214844 C 257.398438 174.855469 260 174.855469 262.257812 176.621094 C 264.855469 178.523438 266.972656 180.859375 268.609375 183.632812 C 272.871094 191.132812 277.121094 198.675781 282.597656 205.410156 C 287.035156 210.859375 291.347656 216.414062 295.925781 221.742188 C 301.210938 227.878906 305.726562 234.507812 307.988281 242.269531 C 309.699219 248.074219 310.21875 254.234375 311.449219 260.21875 C 314.53125 275.136719 311.722656 289.464844 307.464844 303.894531 C 306.203125 302.25 306.507812 300.722656 306.699219 299.113281 C 307.71875 290.480469 308.160156 281.878906 305.515625 273.425781 Z M 338.226562 157.125 C 338.125 160.058594 338.574219 162.996094 339.976562 165.503906 C 342.992188 170.898438 343.242188 177.132812 345.566406 182.769531 C 347.164062 186.636719 347.433594 191.179688 347.5 197.390625 C 345.769531 194.480469 344.785156 193.21875 344.21875 191.800781 C 340.984375 183.769531 336.972656 176.152344 332.175781 168.945312 C 330.25 166.007812 328.203125 163.117188 326.636719 159.988281 C 322.871094 152.515625 320.082031 144.738281 320.332031 136.15625 C 320.417969 133.296875 320.074219 130.417969 319.933594 127.546875 C 319.804688 124.996094 319.441406 122.429688 319.609375 119.898438 C 320.121094 112.265625 320.566406 104.601562 321.574219 97.023438 C 322.183594 91.925781 323.367188 86.96875 325.125 82.144531 C 327.605469 75.546875 330.585938 69.183594 334.0625 63.054688 C 338.742188 54.917969 344.707031 47.867188 351.960938 41.910156 C 357.296875 37.515625 359.507812 38.289062 361.59375 44.59375 C 362.390625 47 363.582031 49.523438 363.457031 51.941406 C 363.105469 58.761719 366.613281 64.992188 366.113281 71.789062 C 366.070312 73.425781 366.40625 74.984375 367.121094 76.460938 C 368.882812 80.300781 369.609375 84.390625 370.417969 88.46875 C 370.714844 90.039062 371.171875 91.558594 371.78125 93.035156 C 374.578125 99.675781 375.410156 106.59375 374.789062 113.707031 C 374.226562 120.078125 373.980469 126.511719 372.75 132.761719 C 371.28125 139.9375 369.328125 146.976562 366.898438 153.886719 C 366.429688 149.070312 365.730469 146.488281 366.035156 144.070312 C 367.015625 136.585938 365.320312 129.394531 364.074219 122.171875 C 363.988281 121.652344 363.296875 121.234375 362.886719 120.765625 C 362.628906 121.296875 362.101562 121.851562 362.15625 122.34375 C 362.960938 129.308594 363.710938 136.203125 363.597656 143.304688 C 363.449219 152.914062 363.070312 162.421875 361.320312 171.855469 C 361.046875 173.316406 361.226562 175.386719 359.050781 176.515625 C 358.261719 172.726562 357.574219 169.289062 356.789062 165.875 C 356.726562 165.617188 356.023438 165.445312 355.59375 165.371094 C 355.492188 165.355469 355.128906 165.867188 355.160156 166.15625 C 355.324219 171.253906 355.753906 176.355469 355.675781 181.449219 C 355.542969 188.824219 354.449219 196.050781 352.394531 203.136719 C 352.167969 203.738281 351.851562 204.292969 351.449219 204.792969 C 351.269531 205.03125 350.824219 205.363281 350.679688 205.289062 C 350.203125 205.054688 349.507812 204.710938 349.429688 204.300781 C 348.550781 199.859375 350.144531 195.488281 349.503906 190.925781 C 347.890625 179.40625 343.789062 168.714844 339.75 157.964844 C 339.605469 157.585938 338.710938 157.480469 338.164062 157.25 Z M 190.910156 463.582031 C 210.125 458.851562 228.589844 457.683594 247.105469 456.949219 C 247.742188 457.011719 248.371094 457.121094 248.992188 457.277344 C 260.746094 458.710938 272.230469 461.339844 283.605469 464.574219 C 294.839844 467.765625 322.75 483.476562 331.480469 488.640625 C 332.835938 489.5 334.109375 490.460938 335.304688 491.527344 C 336.09375 492.097656 336.722656 492.8125 337.195312 493.664062 C 337.65625 494.796875 338.246094 496.210938 337.933594 497.246094 C 336.902344 500.667969 335.289062 503.796875 331.722656 505.359375 C 329.683594 506.246094 327.609375 507.144531 325.652344 508.230469 C 319.128906 511.859375 311.757812 513.046875 304.75 515.058594 C 288.28125 519.78125 271.863281 519.746094 256.429688 510.984375 C 250.839844 507.800781 245.515625 504.285156 241.046875 499.585938 C 235.28125 493.585938 229.007812 488.167969 222.226562 483.335938 C 212.5 476.257812 203.351562 468.335938 190.910156 463.582031 Z M 299.5625 364.960938 C 300.851562 363.585938 302.398438 364.078125 303.980469 364.355469 C 310.265625 365.46875 316.609375 366.5625 322.980469 366.117188 C 330.332031 365.601562 337.679688 366.390625 345.042969 365.464844 C 349.746094 364.875 354.625 365.34375 359.386719 365.679688 C 375.894531 366.808594 391.449219 371.171875 405.816406 379.542969 C 410.238281 382.117188 414.914062 384.25 418.84375 387.636719 C 427.828125 395.363281 435.894531 404.03125 444.25 412.40625 C 445.921875 413.996094 446.957031 415.933594 447.347656 418.210938 C 447.960938 421.769531 447.171875 423.886719 442.796875 422.84375 C 440.542969 422.304688 438.378906 422.539062 436.140625 422.636719 C 429.75 422.945312 423.332031 423.613281 417.015625 423.019531 C 413.082031 422.652344 409.40625 423.015625 405.625 423.5 C 397.617188 424.53125 389.542969 424.34375 381.804688 422.425781 C 369.632812 419.414062 358.257812 414.257812 347.648438 407.492188 C 339.511719 402.300781 332.308594 395.910156 325.152344 389.535156 C 316.34375 381.671875 308.074219 373.203125 299.550781 364.972656 Z M 212.839844 371.734375 C 212.449219 376.105469 211.617188 379.527344 211.9375 382.839844 C 213.214844 396.203125 212.640625 409.699219 215.183594 423.003906 C 211.410156 414.484375 206.347656 406.871094 200.882812 399.484375 C 198.023438 395.628906 195.28125 391.679688 192.59375 387.703125 C 189.90625 383.726562 187.613281 379.34375 186.828125 374.640625 C 184.726562 362.015625 181.824219 349.445312 182.792969 336.480469 C 183.550781 326.285156 183.898438 316.109375 187.671875 306.316406 C 191.835938 295.511719 195.867188 284.742188 203.335938 275.65625 C 205.570312 272.933594 207.496094 269.9375 210.679688 268.125 C 211.695312 267.542969 212.589844 267.765625 213.109375 268.589844 C 214.121094 270.195312 215.386719 271.851562 215.714844 273.636719 C 216.414062 277.472656 217.910156 281 219.226562 284.585938 C 220.4375 287.886719 222.074219 291.117188 222.710938 294.515625 C 223.699219 299.957031 225.722656 305.085938 228.082031 309.875 C 231.21875 316.234375 231.738281 322.777344 231.851562 329.515625 C 232.175781 347.785156 229.011719 365.777344 227.335938 383.890625 C 227.300781 384.207031 227.289062 384.546875 227.242188 384.847656 C 226.007812 390.804688 224.921875 396.796875 223.464844 402.699219 C 222.5625 406.371094 221.9375 410.257812 219.148438 413.273438 C 217.800781 411.375 218.402344 409.519531 218.5625 407.59375 C 219.6875 394.222656 223.671875 381.25 224.03125 367.746094 C 224.292969 357.855469 226.335938 348.015625 224.507812 338.078125 C 224.339844 337.164062 224.582031 336.175781 224.621094 335.222656 C 225.03125 324.742188 222.015625 315.003906 218.171875 305.449219 C 217.90625 304.84375 217.492188 304.367188 216.933594 304.019531 C 216.398438 303.777344 215.84375 303.691406 215.261719 303.761719 C 215.105469 303.765625 214.804688 304.324219 214.855469 304.578125 C 215.277344 306.746094 215.410156 309.0625 216.289062 311.039062 C 220.542969 320.632812 221.398438 330.898438 221.925781 341.074219 C 222.539062 352.859375 221.261719 364.691406 219.902344 376.417969 C 219.230469 382.359375 219.019531 388.550781 215.9375 394.554688 C 213.203125 387.21875 216.746094 379.515625 212.828125 371.742188 Z M 315.632812 258.234375 C 314.644531 253.410156 313.722656 249.992188 313.28125 246.503906 C 312.714844 241.964844 311.070312 237.816406 309.121094 233.777344 C 306.484375 228.28125 302.953125 223.359375 299.066406 218.648438 C 289.09375 206.578125 279.167969 194.476562 271.625 180.625 C 270.015625 177.847656 268.042969 175.359375 265.714844 173.152344 C 261.878906 169.359375 257.125 169.195312 252.773438 172.367188 C 251.492188 173.328125 250.296875 174.382812 249.179688 175.535156 C 248.621094 176.085938 248.238281 176.152344 247.847656 175.34375 C 247.753906 175.015625 247.808594 174.710938 248.003906 174.429688 C 249.617188 172.441406 251.125 170.355469 252.902344 168.574219 C 256.335938 165.167969 260.117188 165 264.105469 167.875 C 268.277344 170.886719 271.773438 174.621094 274.996094 178.648438 C 280.578125 185.644531 285.953125 192.808594 291.683594 199.664062 C 299.046875 208.546875 305.425781 218.09375 310.8125 228.300781 C 312.339844 231.125 313.410156 234.113281 314.023438 237.265625 C 315.050781 242.566406 314.894531 248.074219 316.96875 253.214844 C 317.332031 254.148438 316.378906 255.597656 315.625 258.246094 Z M 179.363281 348.773438 C 179.003906 347.246094 178.59375 345.730469 178.292969 344.191406 C 176.808594 336.324219 176.132812 328.382812 176.261719 320.378906 C 176.394531 306.339844 179.03125 293.117188 187.515625 281.515625 C 189.839844 278.445312 191.949219 275.238281 193.835938 271.882812 C 197.550781 265 203.300781 261.851562 212.230469 261.363281 C 204.957031 266.316406 201.105469 272.480469 197.019531 278.613281 C 191.632812 286.714844 188.117188 295.566406 184.648438 304.488281 C 181.949219 311.394531 180.425781 318.554688 180.074219 325.960938 C 179.707031 333.550781 179.144531 341.105469 179.351562 348.785156 Z M 444.648438 407.492188 C 441.691406 404.542969 439.125 402.152344 436.753906 399.582031 C 431.078125 393.457031 425.203125 387.347656 418.28125 382.863281 C 410.539062 377.882812 402.597656 372.914062 393.679688 370.007812 C 388.816406 368.421875 383.960938 366.796875 379.101562 365.203125 C 378.800781 365.101562 378.398438 365.203125 378.152344 365.0625 C 376.71875 364.21875 374.53125 364.867188 373.714844 362.816406 C 375.265625 362.570312 376.835938 362.019531 378.359375 362.132812 C 389.300781 362.9375 399.824219 365.691406 410.082031 369.4375 C 413.09375 370.546875 415.925781 372.003906 418.582031 373.800781 C 429.988281 381.507812 438.230469 391.996094 444.523438 404.105469 C 444.882812 404.824219 444.613281 405.859375 444.648438 407.492188 Z M 377.539062 126.710938 C 378.671875 127.410156 378.652344 128.695312 378.835938 129.894531 C 380.234375 139.144531 378.703125 148.320312 377.769531 157.449219 C 376.683594 168.046875 372.371094 177.78125 367.632812 187.160156 C 365.5 191.390625 363.832031 196.003906 360.460938 199.570312 C 359.835938 200.234375 359.398438 200.316406 358.988281 199.585938 C 358.8125 199.339844 358.730469 199.066406 358.738281 198.765625 C 359.214844 196.914062 359.679688 195.054688 360.269531 193.238281 C 367.378906 171.417969 372.039062 148.9375 377.539062 126.710938 Z M 240.453125 239.488281 C 244.289062 241.953125 244.949219 246.046875 246.527344 249.386719 C 252.664062 262.445312 260.027344 274.695312 269.628906 285.464844 C 276.203125 292.832031 283.238281 299.785156 290.039062 306.980469 C 290.628906 307.605469 291.375 308.792969 291.148438 309.335938 C 290.507812 310.839844 289.53125 309.5 289.015625 309.082031 C 281.875 303.210938 274.710938 297.347656 267.726562 291.289062 C 265.34375 289.148438 263.207031 286.78125 261.316406 284.191406 C 254.875 275.796875 249.578125 266.730469 245.433594 256.996094 C 243.171875 251.546875 241.011719 245.804688 240.453125 239.488281 Z M 388.148438 428.269531 C 391.367188 427.925781 392.976562 427.433594 394.480469 427.652344 C 402.464844 428.839844 410.410156 427.421875 418.304688 426.988281 C 429.808594 426.355469 441.175781 427.015625 452.59375 427.851562 C 453.066406 427.875 453.492188 428.03125 453.867188 428.320312 C 454.246094 428.609375 454.507812 428.976562 454.65625 429.425781 C 454.75 429.648438 454.796875 429.878906 454.792969 430.121094 C 454.785156 430.363281 454.730469 430.589844 454.625 430.808594 C 454.519531 431.027344 454.375 431.210938 454.191406 431.367188 C 454.003906 431.519531 453.792969 431.628906 453.5625 431.691406 C 451.480469 432.359375 449.574219 433.449219 447.210938 433.441406 C 436.078125 433.417969 424.976562 433.238281 413.941406 431.832031 C 408.273438 431.117188 402.644531 430.121094 396.894531 430.667969 C 394.265625 430.925781 391.859375 430.222656 388.160156 428.28125 Z M 203.082031 476.9375 C 203.171875 476.53125 203.324219 476.148438 203.535156 475.789062 C 203.648438 475.667969 204.070312 475.65625 204.253906 475.765625 C 213.097656 482.136719 221.941406 488.503906 230.738281 494.9375 C 231.734375 495.753906 232.59375 496.699219 233.308594 497.769531 C 235.777344 501.1875 238.761719 504.0625 242.269531 506.398438 C 242.800781 506.746094 243.207031 507.277344 243.71875 507.65625 C 244.453125 508.195312 244.445312 508.660156 243.570312 509.066406 C 243.285156 509.203125 242.988281 509.234375 242.683594 509.15625 C 232.484375 505.5625 224.078125 499.0625 216.273438 491.929688 C 211.328125 487.433594 207.367188 481.886719 203.082031 476.9375 Z M 232.527344 388.199219 C 230.203125 383.21875 231.238281 378.753906 232.019531 374.488281 C 233.808594 364.714844 234.746094 354.886719 235.472656 344.992188 C 235.730469 341.53125 235.339844 337.933594 236.339844 332.210938 C 241.441406 352.65625 241.324219 370.398438 232.527344 388.199219 Z M 273.355469 414.675781 C 270.851562 414.21875 266.816406 413.507812 262.792969 412.738281 C 261.757812 412.542969 261.335938 411.304688 262.101562 410.691406 C 264.054688 409.101562 266.066406 407.59375 268.054688 406.050781 C 271.457031 403.398438 275.132812 403.769531 278.894531 405.058594 C 281.542969 405.964844 282.355469 409.003906 280.566406 411.253906 C 279.109375 413.097656 277.300781 414.242188 273.355469 414.675781 Z M 264.234375 433.433594 C 263.609375 433.402344 262.996094 433.296875 262.398438 433.113281 C 257.402344 430.894531 256.597656 426.019531 255.292969 421.546875 C 255.171875 421.125 256.332031 419.984375 257.085938 419.726562 C 259.628906 418.847656 262.078125 419.925781 264.492188 420.574219 C 267.285156 421.328125 268.449219 423.527344 268.832031 426.207031 C 269.210938 428.890625 268.199219 431.171875 265.953125 432.777344 C 265.402344 433.070312 264.828125 433.292969 264.222656 433.441406 Z M 160.929688 435.703125 C 161.792969 440.859375 161.691406 441.566406 159.621094 444.800781 C 158.238281 446.960938 155.582031 447.09375 154.039062 445.074219 C 150.992188 441.085938 150.878906 435.054688 153.777344 430.78125 C 154.839844 429.214844 157.390625 429.164062 158.785156 430.527344 C 160.273438 431.984375 160.660156 433.8125 160.929688 435.703125 Z M 326.378906 166.617188 C 332.019531 175.34375 336.980469 182.734375 339.714844 191.304688 C 340.277344 193.0625 342.265625 194.308594 341.570312 196.503906 C 339.0625 196.300781 338.3125 194.082031 337.179688 192.453125 C 335.308594 189.875 333.648438 187.167969 332.199219 184.332031 C 329.726562 179.246094 326.695312 174.304688 326.378906 166.617188 Z M 370.425781 259.289062 C 368.910156 259.449219 367.960938 259.59375 367.007812 259.632812 C 366.367188 259.722656 365.746094 259.652344 365.140625 259.421875 C 364.015625 258.867188 363.023438 258.132812 362.164062 257.21875 C 361.230469 256.0625 361.757812 253.171875 362.941406 251.855469 C 363.355469 251.347656 363.871094 250.984375 364.488281 250.765625 C 365.101562 250.546875 365.730469 250.5 366.371094 250.632812 C 368.851562 251.160156 371.371094 251.570312 373.550781 253.058594 C 375.042969 254.074219 375.019531 257.039062 373.371094 257.9375 C 372.273438 258.539062 371.089844 258.992188 370.425781 259.289062 Z M 168.769531 440.53125 C 166.492188 436.039062 168.214844 432.390625 172.011719 429.328125 C 173.25 428.328125 175.503906 429.105469 175.828125 430.601562 C 176.996094 436.070312 175.007812 440.496094 171.246094 444.320312 C 170.726562 444.878906 169.003906 444.386719 168.902344 443.628906 C 168.777344 442.691406 168.8125 441.746094 168.769531 440.53125 Z M 375.410156 297.277344 C 374.765625 297.628906 374.507812 297.496094 374.597656 296.835938 C 374.636719 296.574219 374.59375 296.265625 374.71875 296.054688 C 379.988281 286.90625 385.574219 277.953125 392.214844 269.742188 C 392.65625 269.195312 393.109375 267.636719 394.242188 268.988281 C 394.503906 269.304688 394.320312 270.273438 394.011719 270.726562 C 389.925781 277.21875 385.851562 283.710938 381.621094 290.101562 C 380.039062 292.5 378.074219 294.632812 376.246094 296.863281 C 376.089844 297.085938 375.703125 297.144531 375.410156 297.277344 Z M 371.675781 234.175781 C 371.617188 234.824219 371.816406 235.597656 371.507812 236.042969 C 370.171875 238.035156 368.585938 239.796875 366.742188 241.332031 C 364.898438 242.871094 362.878906 244.113281 360.679688 245.070312 C 360.234375 245.261719 359.484375 244.851562 358.921875 244.621094 C 358.777344 244.558594 358.71875 244.09375 358.753906 243.824219 C 359.773438 237.847656 363.796875 234.546875 369.027344 232.324219 C 370.171875 231.8125 371.730469 232.957031 371.675781 234.175781 Z M 370.9375 57.519531 C 371.121094 59.703125 371.699219 61.304688 370.566406 62.734375 C 370.378906 62.972656 370.019531 63.320312 369.832031 63.265625 C 368.601562 62.90625 369.476562 64.332031 369.21875 63.089844 C 368.632812 60.304688 368.191406 57.46875 367.753906 54.675781 C 367.71875 54.4375 367.917969 54.164062 368.011719 53.90625 C 368.574219 54.148438 369.390625 54.234375 369.648438 54.660156 C 370.15625 55.578125 370.585938 56.53125 370.9375 57.519531 Z M 366.789062 46.066406 C 365.1875 42.808594 364.867188 39.3125 362.945312 36.375 C 362.832031 36.199219 363.320312 35.621094 363.53125 35.230469 C 363.792969 35.402344 364.042969 35.585938 364.28125 35.789062 C 367.363281 38.695312 366.941406 42.496094 366.789062 46.066406 Z M 366.789062 46.066406 "/>
</g>
</g>
</g>
<g clip-path="url(#clip4)" clip-rule="nonzero">
<g clip-path="url(#clip5)" clip-rule="nonzero">
<g clip-path="url(#clip6)" clip-rule="nonzero">
<path style=" stroke:none;fill-rule:nonzero;fill:rgb(59.609985%,26.669312%,27.839661%);fill-opacity:1;" d="M 338.148438 157.242188 C 337.53125 151.835938 336.570312 146.515625 334.457031 141.445312 C 333.859375 139.964844 333.5 138.425781 333.378906 136.828125 C 332.222656 123.136719 334.457031 110.082031 341.445312 98.101562 C 344.824219 92.304688 348.597656 86.742188 352.113281 81.023438 C 352.222656 80.769531 352.261719 80.5 352.234375 80.222656 C 352.203125 79.945312 352.105469 79.691406 351.945312 79.464844 C 351.414062 79.070312 350.832031 78.964844 350.199219 79.144531 C 347.847656 80.371094 346.308594 82.503906 345.007812 84.683594 C 342.210938 89.34375 339.691406 94.167969 336.953125 98.839844 C 333.566406 104.785156 331.609375 111.167969 331.082031 117.984375 C 330.332031 126.496094 329.933594 135.3125 332.804688 143.628906 C 334.152344 147.542969 335.28125 151.523438 336.1875 155.5625 C 336.242188 155.792969 336.335938 156.003906 336.464844 156.199219 C 336.59375 156.398438 336.753906 156.566406 336.945312 156.703125 C 337.132812 156.84375 337.339844 156.945312 337.566406 157.011719 C 337.792969 157.078125 338.023438 157.105469 338.257812 157.089844 Z M 338.148438 157.242188 "/>
</g>
</g>
</g>
<g clip-path="url(#clip7)" clip-rule="nonzero">
<g clip-path="url(#clip8)" clip-rule="nonzero">
<g clip-path="url(#clip9)" clip-rule="nonzero">
<path style=" stroke:none;fill-rule:nonzero;fill:rgb(59.609985%,26.669312%,27.839661%);fill-opacity:1;" d="M 305.515625 273.425781 C 305.742188 273.347656 305.949219 273.234375 306.136719 273.082031 C 306.324219 272.933594 306.480469 272.757812 306.609375 272.554688 C 306.734375 272.351562 306.824219 272.132812 306.878906 271.898438 C 306.929688 271.664062 306.941406 271.429688 306.914062 271.191406 C 305.792969 263.296875 305.347656 255.324219 302.261719 247.730469 C 300.351562 243.054688 299.015625 238.132812 296.839844 233.542969 C 296.746094 233.34375 296.273438 233.109375 296.148438 233.183594 C 295.867188 233.367188 295.683594 233.621094 295.601562 233.949219 C 295.003906 236.261719 295.730469 238.5625 296.679688 240.445312 C 301.484375 250.023438 303.605469 260.285156 305.046875 270.765625 C 305.222656 271.710938 305.445312 272.644531 305.722656 273.5625 Z M 305.515625 273.425781 "/>
</g>
</g>
</g>
<g clip-path="url(#clip10)" clip-rule="nonzero">
<g clip-path="url(#clip11)" clip-rule="nonzero">
<g clip-path="url(#clip12)" clip-rule="nonzero">
<path style=" stroke:none;fill-rule:nonzero;fill:rgb(59.609985%,26.669312%,27.839661%);fill-opacity:1;" d="M 407.175781 312.09375 C 414.375 310.734375 417.496094 305.058594 420.167969 299.261719 C 421.1875 297.046875 420.636719 294.21875 419.117188 291.972656 C 418.699219 291.503906 418.175781 291.300781 417.550781 291.367188 C 417.003906 291.613281 416.65625 292.027344 416.503906 292.609375 C 416.398438 293.238281 416.433594 293.855469 416.609375 294.46875 C 417.515625 299.007812 415.46875 302.460938 412.707031 305.78125 C 410.917969 307.914062 407.777344 308.945312 407.367188 312.21875 Z M 407.175781 312.09375 "/>
</g>
</g>
</g>
<g clip-path="url(#clip13)" clip-rule="nonzero">
<g clip-path="url(#clip14)" clip-rule="nonzero">
<g clip-path="url(#clip15)" clip-rule="nonzero">
<path style=" stroke:none;fill-rule:nonzero;fill:rgb(59.609985%,26.669312%,27.839661%);fill-opacity:1;" d="M 407.359375 312.210938 C 401.304688 314.933594 397.484375 317.65625 393.316406 322.238281 L 393.121094 322.058594 C 399.261719 321.25 403.304688 317.167969 407.257812 312.953125 C 407.398438 312.804688 407.222656 312.363281 407.191406 312.058594 Z M 407.359375 312.210938 "/>
</g>
</g>
</g>
<g clip-path="url(#clip16)" clip-rule="nonzero">
<g clip-path="url(#clip17)" clip-rule="nonzero">
<g clip-path="url(#clip18)" clip-rule="nonzero">
<path style=" stroke:none;fill-rule:nonzero;fill:rgb(59.609985%,26.669312%,27.839661%);fill-opacity:1;" d="M 227.714844 463.640625 C 232.355469 465.148438 237.382812 463.25 242.476562 463.609375 C 247.738281 464 252.894531 464.96875 257.945312 466.511719 C 262.992188 468.054688 267.808594 470.136719 272.390625 472.757812 C 275.449219 474.476562 278.558594 476.125 281.726562 477.644531 C 282.484375 478.015625 283.554688 477.785156 284.453125 477.71875 C 284.789062 477.667969 285.023438 477.484375 285.160156 477.175781 C 285.3125 475.917969 286.257812 477.273438 285.28125 476.441406 C 285.074219 476.203125 284.84375 475.988281 284.59375 475.796875 C 276.496094 471.289062 268.453125 466.761719 259.585938 463.753906 C 248.726562 460.082031 237.769531 459.402344 226.519531 461.042969 C 220.511719 461.910156 214.59375 463.480469 208.460938 463.386719 C 207.914062 463.550781 207.5625 463.90625 207.414062 464.457031 C 207.546875 465.085938 207.839844 465.621094 208.300781 466.066406 C 210.179688 468.164062 212.878906 468.257812 215.355469 468.621094 C 218.800781 469.128906 222.3125 469.242188 225.796875 469.550781 C 233.105469 470.203125 240.34375 471.292969 247.390625 473.390625 C 247.597656 473.449219 247.921875 473.1875 248.160156 472.988281 C 248.65625 472.574219 248.523438 472.070312 247.78125 471.609375 C 245.277344 470.054688 242.4375 469.648438 239.617188 469.117188 C 235.242188 468.292969 230.894531 467.324219 226.554688 466.316406 C 225.910156 466.085938 225.5 465.640625 225.320312 464.976562 C 225.265625 463.851562 226.621094 463.28125 227.714844 463.640625 Z M 227.714844 463.640625 "/>
</g>
</g>
</g>
<g clip-path="url(#clip19)" clip-rule="nonzero">
<g clip-path="url(#clip20)" clip-rule="nonzero">
<g clip-path="url(#clip21)" clip-rule="nonzero">
<path style=" stroke:none;fill-rule:nonzero;fill:rgb(59.609985%,26.669312%,27.839661%);fill-opacity:1;" d="M 289.207031 506.351562 C 288.738281 504.816406 287.4375 504.894531 286.1875 504.710938 C 277.023438 503.335938 268.234375 500.664062 259.628906 497.253906 C 252.960938 494.617188 247.570312 490.148438 241.996094 485.914062 C 239.449219 483.996094 236.957031 481.972656 233.511719 482.070312 C 233.199219 482.113281 232.902344 482.210938 232.621094 482.363281 C 231.730469 482.738281 231.691406 483.210938 232.488281 483.773438 C 232.714844 483.996094 232.964844 484.183594 233.242188 484.34375 C 236.042969 485.355469 238.089844 487.488281 240.0625 489.488281 C 245.34375 494.902344 252.242188 497.820312 258.835938 500.59375 C 266.367188 503.761719 274.714844 504.980469 282.746094 506.910156 C 284.945312 507.4375 287.183594 506.921875 289.320312 506.164062 Z M 289.207031 506.351562 "/>
</g>
</g>
</g>
<g clip-path="url(#clip22)" clip-rule="nonzero">
<g clip-path="url(#clip23)" clip-rule="nonzero">
<g clip-path="url(#clip24)" clip-rule="nonzero">
<path style=" stroke:none;fill-rule:nonzero;fill:rgb(59.609985%,26.669312%,27.839661%);fill-opacity:1;" d="M 289.328125 506.15625 C 289.492188 506.429688 289.621094 506.90625 289.832031 506.949219 C 298.992188 508.8125 308.050781 508.515625 316.910156 505.355469 C 317.332031 505.207031 317.703125 504.371094 317.714844 503.851562 C 317.71875 503.5625 316.945312 503.179688 316.472656 503.003906 C 316.28125 502.933594 315.953125 503.34375 315.65625 503.4375 C 310.761719 505.09375 305.738281 505.753906 300.582031 505.410156 C 296.734375 505.121094 292.933594 505.441406 289.183594 506.371094 Z M 289.328125 506.15625 "/>
</g>
</g>
</g>
<g clip-path="url(#clip25)" clip-rule="nonzero">
<g clip-path="url(#clip26)" clip-rule="nonzero">
<g clip-path="url(#clip27)" clip-rule="nonzero">
<path style=" stroke:none;fill-rule:nonzero;fill:rgb(59.609985%,26.669312%,27.839661%);fill-opacity:1;" d="M 344.859375 397.714844 C 343.953125 396.4375 343.167969 395.042969 342.125 393.910156 C 338.472656 389.964844 334.734375 386.125 331.011719 382.210938 C 329.953125 381.101562 328.027344 380.117188 328.382812 378.5 C 328.914062 376.058594 331.429688 376.898438 333.144531 376.609375 C 337.828125 375.804688 342.539062 375.113281 347.246094 374.425781 C 351.957031 373.742188 356.644531 373.210938 361.445312 373.667969 C 363.589844 373.867188 365.820312 373.160156 368.015625 372.867188 L 367.914062 373.015625 C 365.722656 370.015625 362.464844 370.351562 359.371094 370.425781 C 357.453125 370.554688 355.550781 370.8125 353.667969 371.195312 C 348.453125 372.046875 343.214844 372.332031 337.941406 372.042969 C 332.671875 371.753906 327.492188 370.90625 322.40625 369.492188 C 319.964844 368.8125 317.445312 368.40625 314.949219 367.921875 C 314.703125 367.871094 314.390625 368.097656 314.117188 368.261719 C 313.359375 368.699219 313.351562 369.203125 313.960938 369.84375 C 318.355469 374.46875 322.515625 379.378906 327.199219 383.65625 C 331.878906 387.9375 336.695312 392.1875 340.894531 397.015625 C 341.3125 397.515625 341.824219 397.890625 342.425781 398.136719 C 343.03125 398.382812 343.65625 398.472656 344.304688 398.40625 Z M 344.859375 397.714844 "/>
</g>
</g>
</g>
<g clip-path="url(#clip28)" clip-rule="nonzero">
<g clip-path="url(#clip29)" clip-rule="nonzero">
<g clip-path="url(#clip30)" clip-rule="nonzero">
<path style=" stroke:none;fill-rule:nonzero;fill:rgb(59.609985%,26.669312%,27.839661%);fill-opacity:1;" d="M 368.019531 372.875 C 370.175781 375.667969 373.632812 375.53125 376.523438 376.238281 C 387.449219 378.917969 397.71875 382.871094 406.722656 389.761719 C 407.703125 390.515625 408.945312 390.929688 410.097656 391.433594 C 410.253906 391.503906 410.636719 391.238281 410.804688 391.054688 C 410.972656 390.867188 411.15625 390.402344 411.089844 390.347656 C 406.742188 386.613281 402.273438 383.066406 397.125 380.453125 C 388.796875 376.21875 379.746094 374.453125 370.722656 372.589844 C 369.859375 372.414062 368.859375 372.867188 367.917969 373.027344 Z M 368.019531 372.875 "/>
</g>
</g>
</g>
<g clip-path="url(#clip31)" clip-rule="nonzero">
<g clip-path="url(#clip32)" clip-rule="nonzero">
<g clip-path="url(#clip33)" clip-rule="nonzero">
<path style=" stroke:none;fill-rule:nonzero;fill:rgb(59.609985%,26.669312%,27.839661%);fill-opacity:1;" d="M 344.300781 398.445312 C 344.75 399.265625 345.007812 400.332031 345.679688 400.859375 C 352.964844 406.570312 360.941406 410.96875 369.945312 413.359375 C 370.386719 413.480469 371.015625 412.964844 371.53125 412.75 C 371.257812 412.296875 371.09375 411.582031 370.726562 411.460938 C 361.292969 408.398438 353.164062 402.902344 344.871094 397.71875 Z M 344.300781 398.445312 "/>
</g>
</g>
</g>
<g clip-path="url(#clip34)" clip-rule="nonzero">
<g clip-path="url(#clip35)" clip-rule="nonzero">
<g clip-path="url(#clip36)" clip-rule="nonzero">
<path style=" stroke:none;fill-rule:nonzero;fill:rgb(59.609985%,26.669312%,27.839661%);fill-opacity:1;" d="M 398.636719 418.773438 C 400.863281 421.765625 404.367188 420.648438 407.234375 421.132812 C 410.527344 421.675781 414.003906 421.109375 417.398438 420.976562 C 418.683594 420.929688 417.089844 421.171875 417.855469 420.152344 C 418.027344 419.96875 417.476562 419.160156 417.152344 418.722656 C 416.917969 418.476562 416.632812 418.363281 416.296875 418.382812 C 411.59375 418.800781 406.894531 418.769531 402.199219 418.292969 C 401 418.183594 399.742188 418.726562 398.511719 418.964844 Z M 398.636719 418.773438 "/>
</g>
</g>
</g>
<g clip-path="url(#clip37)" clip-rule="nonzero">
<g clip-path="url(#clip38)" clip-rule="nonzero">
<g clip-path="url(#clip39)" clip-rule="nonzero">
<path style=" stroke:none;fill-rule:nonzero;fill:rgb(59.609985%,26.669312%,27.839661%);fill-opacity:1;" d="M 398.527344 418.980469 C 398.410156 418.6875 398.363281 418.21875 398.160156 418.125 C 393.828125 416.222656 389.210938 415.621094 384.546875 415.332031 C 384.113281 415.304688 383.636719 415.960938 383.179688 416.304688 C 383.390625 416.546875 383.640625 416.734375 383.929688 416.875 C 388.769531 418.023438 393.492188 420.058594 398.65625 418.78125 Z M 398.527344 418.980469 "/>
</g>
</g>
</g>
<g clip-path="url(#clip40)" clip-rule="nonzero">
<g clip-path="url(#clip41)" clip-rule="nonzero">
<g clip-path="url(#clip42)" clip-rule="nonzero">
<path style=" stroke:none;fill-rule:nonzero;fill:rgb(59.609985%,26.669312%,27.839661%);fill-opacity:1;" d="M 208.488281 405.027344 C 208.660156 404.753906 208.777344 404.457031 208.847656 404.140625 C 208.953125 400.429688 206.796875 397.371094 205.339844 394.3125 C 201.960938 387.214844 201.0625 379.628906 199.75 372.101562 C 197.972656 361.9375 198.703125 351.835938 200.507812 341.6875 C 201.730469 334.742188 202.960938 327.878906 205.410156 321.210938 C 205.5625 320.78125 205.140625 320.003906 204.769531 319.585938 C 204.617188 319.445312 203.726562 319.75 203.382812 320.074219 C 202.917969 320.527344 202.589844 321.066406 202.390625 321.6875 C 201.433594 324.738281 200.273438 327.761719 199.675781 330.882812 C 198.546875 336.828125 197.40625 342.824219 196.902344 348.851562 C 196.433594 353.9375 196.320312 359.03125 196.570312 364.132812 C 196.933594 370.527344 198.449219 376.585938 199.484375 382.800781 C 200.503906 388.894531 203.265625 394.308594 204.800781 400.167969 C 205.265625 401.914062 206.765625 403.359375 207.828125 404.917969 C 207.921875 405.058594 208.261719 404.996094 208.488281 405.027344 Z M 208.488281 405.027344 "/>
</g>
</g>
</g>
</g>
</svg>
