<svg id="instagram_6_" data-name="instagram (6)" xmlns="http://www.w3.org/2000/svg" width="25.073" height="25.078" viewBox="0 0 25.073 25.078">
  <path id="Tracé_117" data-name="Tracé 117" d="M25.459,7.373a9.164,9.164,0,0,0-.583-3.042A6.424,6.424,0,0,0,21.206.661,9.187,9.187,0,0,0,18.164.078C16.822.015,16.4,0,12.991,0S9.16.015,7.822.073A9.166,9.166,0,0,0,4.78.656a6.119,6.119,0,0,0-2.224,1.45A6.174,6.174,0,0,0,1.111,4.326,9.188,9.188,0,0,0,.528,7.368C.464,8.71.449,9.137.449,12.541s.015,3.831.073,5.168a9.163,9.163,0,0,0,.583,3.042,6.423,6.423,0,0,0,3.669,3.669A9.188,9.188,0,0,0,7.817,25c1.337.059,1.764.073,5.168.073s3.831-.015,5.168-.073a9.161,9.161,0,0,0,3.042-.583,6.414,6.414,0,0,0,3.669-3.669,9.194,9.194,0,0,0,.583-3.042c.059-1.337.073-1.764.073-5.168S25.517,8.71,25.459,7.373ZM23.2,17.612a6.874,6.874,0,0,1-.431,2.327,4.16,4.16,0,0,1-2.381,2.381,6.9,6.9,0,0,1-2.327.431c-1.323.059-1.719.073-5.065.073s-3.748-.015-5.066-.073A6.87,6.87,0,0,1,5.6,22.32a3.859,3.859,0,0,1-1.44-.936,3.9,3.9,0,0,1-.936-1.44A6.9,6.9,0,0,1,2.8,17.617c-.059-1.323-.073-1.72-.073-5.066S2.737,8.8,2.8,7.486a6.87,6.87,0,0,1,.431-2.327,3.812,3.812,0,0,1,.941-1.44,3.893,3.893,0,0,1,1.44-.936,6.9,6.9,0,0,1,2.327-.431c1.323-.059,1.72-.073,5.066-.073s3.748.015,5.066.073a6.874,6.874,0,0,1,2.327.431,3.856,3.856,0,0,1,1.44.936,3.9,3.9,0,0,1,.936,1.44A6.9,6.9,0,0,1,23.2,7.486c.059,1.323.073,1.719.073,5.066S23.259,16.289,23.2,17.612Zm0,0" transform="translate(-0.449 0)" fill="#984346"/>
  <path id="Tracé_118" data-name="Tracé 118" d="M131.391,124.5a6.442,6.442,0,1,0,6.442,6.442A6.444,6.444,0,0,0,131.391,124.5Zm0,10.621a4.179,4.179,0,1,1,4.179-4.179A4.18,4.18,0,0,1,131.391,135.121Zm0,0" transform="translate(-118.85 -118.401)" fill="#984346"/>
  <path id="Tracé_119" data-name="Tracé 119" d="M365.457,90.106a1.5,1.5,0,1,1-1.5-1.5A1.5,1.5,0,0,1,365.457,90.106Zm0,0" transform="translate(-344.715 -84.261)" fill="#984346"/>
</svg>
