<svg xmlns="http://www.w3.org/2000/svg" width="76.417" height="34.974" viewBox="0 0 76.417 34.974">
  <g id="Groupe_44" data-name="Groupe 44" transform="translate(-913.85 -84.182)">
    <g id="Groupe_43" data-name="Groupe 43" transform="translate(740.966 -157.912)">
      <g id="Groupe_40" data-name="Groupe 40" transform="translate(172.884 242.094)">
        <g id="Groupe_39" data-name="Groupe 39" transform="translate(0 0)">
          <path id="Tracé_151" data-name="Tracé 151" d="M172.884,277.068v-.491h3.579a3.106,3.106,0,0,0,1.759-.487q.739-.491.739-2.452V245.57q0-1.959-.739-2.475a2.989,2.989,0,0,0-1.759-.515h-3.579v-.487h13.375L196.4,268.787l8.327-26.693h12.051v.487h-2.058a2.861,2.861,0,0,0-1.787.543q-.712.538-.711,2.643V273.4q0,2.1.711,2.643a2.874,2.874,0,0,0,1.787.538h2.058v.491H201.1v-.491h.491a4.57,4.57,0,0,0,2.325-.463q.761-.467.763-2.278V243.9l-10.386,33.163h-2.353l-12.491-32.92V273.4q0,2.1.954,2.643a5.5,5.5,0,0,0,2.671.538h1.96v.491Z" transform="translate(-172.884 -242.094)" fill="#984346"/>
        </g>
      </g>
      <g id="Groupe_42" data-name="Groupe 42" transform="translate(219.515 242.094)">
        <g id="Groupe_41" data-name="Groupe 41" transform="translate(0 0)">
          <path id="Tracé_152" data-name="Tracé 152" d="M344.406,277.068q14.01,0,14.011-9.4a7.732,7.732,0,0,0-3.139-6.713q-3.135-2.254-8.912-2.353v-.1q5.14-.29,7.859-2.152a6.367,6.367,0,0,0,2.718-5.632,7.116,7.116,0,0,0-3.527-6.419q-3.523-2.2-10.479-2.2H328.631v.487h2.007a2.826,2.826,0,0,1,1.787.59,3.174,3.174,0,0,1,.763,2.549V273.4q0,2.1-.734,2.643a2.987,2.987,0,0,1-1.815.538h-2.007v.491Zm-3.481-34.487h1.764q3.284,0,4.655,1.815t1.371,6.124q0,4.309-1.371,6.147t-4.556,1.834h-1.862Zm0,16.411h3.331q3.186,0,4.557,2.012t1.371,6.76q0,4.8-1.371,6.807t-4.655,2.007h-3.233Z" transform="translate(-328.631 -242.094)" fill="#984346"/>
        </g>
      </g>
    </g>
  </g>
</svg>
