<svg xmlns="http://www.w3.org/2000/svg" width="826.347" height="460.892" viewBox="0 0 826.347 460.892">
  <g id="Groupe_3" data-name="Groupe 3" transform="translate(-123.425 -135.762)">
    <path id="Tracé_59" data-name="Tracé 59" d="M280.288,404c-.634-.25-.706-.884-.947-1.4-.009-.089-.027-.17-.036-.25-.161-1.849,1.572-2.76,2.233-4.207l5.914-6.181c1.992-1.608,4.216-2.939,5.869-4.949,1.974-.893,3.5-2.456,5.27-3.644,1.947-1.313,3.886-2.617,5.824-3.93,5.869-3.377,11.621-6.976,17.74-9.906,3.278-1.563,6.619-2.992,9.942-4.484.447-.616.652-1.813,1.8-.768a174.654,174.654,0,0,1,24.538-7.664c.366-1.286,1.117-.724,1.822-.375.652-1.51,1.751-.6,2.707-.5,2.367-.331,4.725-.661,7.093-.983.759-.563,1.626-.322,2.457-.339.518-.036,1.036-.063,1.554-.089.17-.616.554-.75,1.17-.679a55.321,55.321,0,0,0,12.4,0c.625-.071,1,.081,1.161.7.393.027.777.045,1.17.072m-8.307,4.493c-.75,0-1.5.009-2.251.009-1.661.724-3.394.241-5.1.331-.831.036-1.661.08-2.492.116-.715.536-1.527.331-2.323.34-1.5-.2-2.894.491-4.368.554-.277.509-.527,1.036-.84,1.527a1.758,1.758,0,0,1-1.822.938,1.455,1.455,0,0,1-1.349-1.67l-.893.107c-.054,1.3-.545,2.349-1.965,2.457-1.018.08-1.626-.554-1.608-1.635a102.318,102.318,0,0,0-15.194,4.511c-.527,2.742-2.725,3.4-4.985,3.93a7.6,7.6,0,0,0-3.957,1.67c-1.045,1-2.18.634-2.7-.866a1.835,1.835,0,0,0-1.3.59c-.188,1.813-.5,3.457-3.01,2.876-.482-.116-.715.357-.974.732-1.179,1.76-2.564,1.706-4.047.393a3.6,3.6,0,0,0-1.8.956c.339,1.706.045,2.671-2.055,3.055-1.3.232-2.331,1.778-3.627,2.474-1.688.893-3.243,2.975-5.52,1.081a33.825,33.825,0,0,0-5.824,3.868,12.257,12.257,0,0,0-3.118,2.287c-.134.08-.268.17-.4.25a65.944,65.944,0,0,0-8.924,7.459,6.516,6.516,0,0,0-2.242,2.224q-1.581,1.782-3.18,3.564c-.286.268-.572.545-.866.822m118.734-22.7a21.615,21.615,0,0,0,4.583-9.3m-59.117,10.2c.643-.616,1.286-1.233,1.93-1.858a11.132,11.132,0,0,0,3.466-3.055c.179-.17.366-.348.554-.518-.322-3.243.384-3.859,3.484-3.055a91.816,91.816,0,0,1,9.862-7.325c1.778-1.134,3.269-1.108,4.582.643,1.9,3.207,1.393,4.618-2.206,5.824-2.823.947-4.457,3.457-6.753,5.092-.518.366-.911,1.09-1.572,1.027-1.081-.089-1.474.322-1.894,1.286-.554,1.286-1.715,1.179-2.832.6a1.347,1.347,0,0,0-.911.831c.366,3.4-.295,3.993-3.564,3.18a4.937,4.937,0,0,0-1.8,1.706c.411,3.618-.545,4.511-3.966,3.671a137.4,137.4,0,0,0-11.175,11.175c-9.594,9.755-18.678,19.956-27.656,30.845.831-.134,1.188-.161,1.536-.25a159.853,159.853,0,0,1,63.485-3.814c4.645.679,4.645.625,5.422-4.029,1.233-7.432-1.17-12.479-7.164-15.159a3.506,3.506,0,0,0-2.966-.107,106.2,106.2,0,0,1-23.788,6.566,26.931,26.931,0,0,1-8.879.223,5.08,5.08,0,0,1-4.288-3.466c-.6-1.947.473-3.457,1.831-4.716a30.841,30.841,0,0,1,2.644-2.019c3.877-1.974,8.138-2.456,12.327-3.269.9-.616,1.912-.3,2.876-.339h8.048c1.411.1,2.876-.384,4.243.339l1.331.134c.554-3.1,2.751-1.438,4.118-1.17,1.126.223,1.688.509,2.626-.527s2.153-.652,2.68.84a107.9,107.9,0,0,0,10.693-5.521,7.816,7.816,0,0,0,.339-.813c.813-2.849,1.411-3.118,4.02-1.822.634-.447,1.259-.893,1.885-1.34-.259-2.742,1.956-4.386,4.815-3.573q2.506-2.291,4.993-4.582m-55.8,1.429c-5.065,4.788-9.969,9.737-14.766,14.784a15.279,15.279,0,0,1-3.546,3.877q-1.594,1.635-3.171,3.269a11.614,11.614,0,0,1-3.082,3.448c-.465.482-.938.974-1.4,1.465a11.274,11.274,0,0,1-3.064,3.466c-.17.179-.348.366-.518.554a14.939,14.939,0,0,1-3.037,3.582,14.294,14.294,0,0,1-3.144,3.493c-.625.768-1.259,1.536-1.885,2.3a37.34,37.34,0,0,1-5.261,6.235,11.2,11.2,0,0,1-7.084,5.083,6.521,6.521,0,0,1-3.189,1.161c-1.751.92-3.493,1.84-5.243,2.76q-4.087,2.841-8.156,5.7c-3.055,2.769-4.85,6.083-4.475,10.326.313,1.036.634,2.072.947,3.1a9.024,9.024,0,0,0,1.715,2.26c2.474,1.706,1.653,3.287.045,4.94-1.054,1.867-2.1,3.743-3.153,5.619-.75,1.313-.92,2.671.518,3.511,1.465.849,2.671.25,3.5-1.224,1.206-2.135,2.608-4.172,3.68-6.369.938-1.9,2.081-2.367,4.011-1.51a15.394,15.394,0,0,0,3.457.84c8.441,1.536,16.9,1.027,25.315-.018,16.383-2.037,31.961-6.682,46.227-15.159,7.477-4.457,14.114-9.915,18.741-17.455.634-1.036,1.349-.965,2.242-.706,2.93.831,5.869,1.626,8.772,2.528,1.536.473,2.9.447,3.528-1.206.652-1.715-.429-2.671-1.947-3.144-2.689-.831-5.378-1.688-8.111-2.358-1.429-.348-1.93-.733-1.367-2.3a21.815,21.815,0,0,0,1.108-10.326,15.555,15.555,0,0,0-7.9-11.854c5.431-2.51,10.335-5.243,15.2-8.048h.009a5.512,5.512,0,0,0,2.841.3q18.973.054,37.928.063c-2.885,3.68-5.788,7.352-8.665,11.05-8.048,10.344-15.695,20.956-21.465,32.783-2.323,4.752-4.377,9.621-4.449,15.052-.072,5.663,2.787,8.665,8.45,9.058,5.306.375,10.112-1.429,14.882-3.323,11.005-4.386,21.3-10.2,31.533-16.106.741-.429,1.385-1.143,2.439-1.081-.027.4-.027.759-.063,1.125-.357,3.823,1.135,5.8,4.967,6.173,3.368.322,6.4-1.036,9.335-2.51,11.345-5.717,21.439-13.354,31.711-20.715.607-.438,1.143-1.126,2.09-1.036.045,1.027-.607,1.608-.992,2.287a35.328,35.328,0,0,0-4.448,10.407c-1.429,7.039,1.858,11.514,9,12.122a27.7,27.7,0,0,0,9.058-1c11.175-2.787,21.581-7.5,31.783-12.738.634-.322,1.215-.974,2.2-.732-2.171,3.207-4.565,6.074-6.146,9.469-.7,1.5-.822,2.9.509,4.064,1.286,1.108,2.68.706,3.921-.116,1.974-1.322,3.895-2.725,5.833-4.109,10.648-7.6,21.224-15.329,32.944-21.278a25.973,25.973,0,0,1,8.575-3.01c1.724-.214,2.224.268,1.93,2.09-.929,5.726-2.894,11.228-3.591,17-.447,3.645,1.608,6.467,5.226,6.959a26.675,26.675,0,0,0,9.29-.724c9.379-2.072,17.91-6.262,26.4-10.585.607-.313,1.134-.92,1.92-.75-.429,1.465-.893,2.8-1.206,4.172-1.679,7.146,1.563,11.648,8.87,12.3a46.288,46.288,0,0,0,12.658-.67c14.167-2.644,27.3-8.093,40-14.712.759-.393,1.527-.768,2.492-1.251a3.564,3.564,0,0,1-1.117,2.331c-3.591,4.931-7.057,9.951-10.317,15.105a54.2,54.2,0,0,0-4.886,9.254c-1.152,2.957-.956,4.806.6,5.672,2.349,1.313,3.752-.447,5.181-1.813,7.566-7.262,15.034-14.65,22.7-21.8,6.852-6.4,13.9-12.586,21.912-17.562a20.582,20.582,0,0,1,4.636-2.144c1.349-.42,2.01.018,1.67,1.563a38.732,38.732,0,0,1-2.081,6.342,45.943,45.943,0,0,0-2.85,8.433c-1.286,6.387,1.849,10.7,8.272,11.389a30.219,30.219,0,0,0,11.014-1.259c12.443-3.287,23.958-8.808,35.32-14.694.742-.384,1.492-.741,2.537-1.268-.536,1.715-1.036,3.028-1.349,4.377-1.331,5.672.9,9.6,6.467,11.371a23.645,23.645,0,0,0,11.7.616,138.181,138.181,0,0,0,52.042-21.823,10.864,10.864,0,0,0,1.885-1.545,1.964,1.964,0,0,0,.143-2.653,2.074,2.074,0,0,0-2.546-.857,6.126,6.126,0,0,0-1.528.884,138.046,138.046,0,0,1-44.619,20.259c-4.69,1.224-9.451,2.063-14.337,1.125-4.386-.84-5.788-3.109-4.484-7.361a25.473,25.473,0,0,1,4.055-7.137,2.842,2.842,0,0,1,3.511-1.25c6.315,1.519,11.979.25,16.4-4.815a4.836,4.836,0,0,0,1.134-5.36,5.167,5.167,0,0,0-4.913-3.225,15.279,15.279,0,0,0-9.076,2.564c-2.573,1.626-4.922,3.618-7.5,5.217-13.444,8.307-27.495,15.373-42.582,20.206A35.718,35.718,0,0,1,741.484,450c-3.707-.17-5.244-2.09-4.582-5.708a45.708,45.708,0,0,1,2.671-8.022c1.1-2.912,2.421-5.762,2.573-8.951.179-3.975-2.09-6.012-5.994-5.288-4.752.875-8.62,3.537-12.417,6.289-12.1,8.763-22.618,19.321-33.292,29.692-.545.536-.947,1.322-1.894,1.438-.2-.983.563-1.51.974-2.144,5.672-8.736,11.818-17.142,18.3-25.3a11.21,11.21,0,0,1,2.769-2.546c34.784-22.484,65.584-49.594,93.186-80.394,8.683-9.692,17.008-19.715,23.288-31.238a23.288,23.288,0,0,0,2.376-6.226c.474-2.171.277-4.234-1.554-5.7a5.714,5.714,0,0,0-6.128-.6,34.326,34.326,0,0,0-7.682,4.9,234.513,234.513,0,0,0-18.866,16.74,1082.248,1082.248,0,0,0-88.041,98.448,12.345,12.345,0,0,1-3.135,2.8,166.06,166.06,0,0,1-32.926,16.222c-9.04,3.252-18.258,5.94-28.049,5.52-5.243-.223-6.9-2.5-5.5-7.566a18.533,18.533,0,0,1,2.546-5.431,34.822,34.822,0,0,1,11.264-10.63,13.45,13.45,0,0,1,5.011-1.76c1.894-.268,2.385.357,1.688,2.126a10.689,10.689,0,0,1-3.93,4.448c-1.161.884-1.706,1.983-.813,3.269.947,1.349,2.26,1.277,3.528.438a14.126,14.126,0,0,0,5.637-7.021c1.8-4.85-.634-8.129-5.833-7.888-4.538.205-8.272,2.43-11.648,5.136-9.04,7.253-19.384,12.1-29.96,16.517-5.208,2.171-10.621,3.877-16.374,3.957-2.617.036-2.957-.366-2.626-3.019.054-.447.143-.875.223-1.322.956-5.181,2.671-10.21,3.269-15.471.527-4.725-1.813-7-6.521-6.4-5.279.679-9.942,2.992-14.462,5.565a271.726,271.726,0,0,0-25.825,16.722,3.652,3.652,0,0,1-2.323,1.126,14.492,14.492,0,0,1,.723-1.277c7.37-9.674,15.338-18.794,24.672-26.646,1.367-1.143,2.769-2.251,4.118-3.412a2.167,2.167,0,0,0,.518-3.162c-.911-1.268-2.126-1.188-3.35-.473a11.278,11.278,0,0,0-1.233.947,136.712,136.712,0,0,0-16.731,16.061,25.564,25.564,0,0,1-4.663,4.127,140.867,140.867,0,0,1-40.286,18.642,25.461,25.461,0,0,1-10.344,1.117c-3.144-.411-4.591-2.189-4.163-5.342a22.787,22.787,0,0,1,2.76-7.95c2.242-4.136,5.19-7.8,7.593-11.818.822-1.385,1.42-2.93.125-4.332-1.411-1.536-3.046-.9-4.466-.009-2.456,1.536-4.842,3.2-7.218,4.859-.688.491-1.117.741-1.8-.089-2.394-2.9-5.654-3.439-9.12-2.841-7.718,1.34-14.319,5.154-20.679,9.487-16.249,11.077-33.123,21.028-51.372,28.477a26.591,26.591,0,0,1-10.353,2.43c-4.341-.045-5.565-1.483-5.083-5.815.036-.3.089-.59.134-.884,1.206-7.593,5.11-14.042,8.763-20.59a8.062,8.062,0,0,1,2.9-2.975,463.785,463.785,0,0,0,38.956-27.191c6.735-5.261,13.426-10.594,20.134-15.891,1.108,2.9,2.233,5.8,3.305,8.709a1.683,1.683,0,0,0,1.876,1.188c2.671-.036,5.351-.027,8.022,0a1.826,1.826,0,0,0,2.072-1.51c2.215-7.227,4.591-14.408,6.771-21.653.724-2.394,1.822-4.7,2.046-7.244q5-4.583,10-9.174c10.237-9.4,19.947-19.33,29.317-29.585.018,18.044.063,36.1,0,54.15a28.311,28.311,0,0,1-.974,6.315,6.425,6.425,0,0,1-3.841,4.556c-3.734,1.742-7.628,1.617-11.568,1.536a1.8,1.8,0,0,0,.009,2.662q34.61-.04,69.211-.063c.67,0,1.34.009,2.01,0,.938-.018,1.885-.107,1.813-1.393-.054-1.161-.983-1.135-1.8-1.143-2.984-.027-5.958.009-8.933-.045-6.789-.134-10.076-3.457-10.165-10.246-.072-1.054.295-2.162-.366-3.144v-1.411a4.007,4.007,0,0,0,.375-2.59q.014-61.9,0-123.807a4.015,4.015,0,0,0-.375-2.591c0-.616,0-1.242.009-1.858.6-.84.313-1.8.348-2.707.089-6.7,3.35-10.094,9.8-10.228,2.153.009,4.306.1,6.458-.009,1.581-.071,3.26.527,4.752-.473.259-1.867-.732-2.18-2.358-2.18q-25.659.067-51.31-.018c-2.046-.009-2.975.563-3.6,2.59-7.736,24.985-15.588,49.925-23.341,74.91-.9,2.894-2.153,5.708-2.492,8.763q-10.224,8.709-20.438,17.41-6.565-17.3-13.131-34.6-12.662-33.457-25.28-66.942a2.666,2.666,0,0,0-2.876-2.108q-29.223.067-58.447-.009c-1.7-.009-2.322.563-2.153,2.171.652.7,1.51.5,2.314.509q8.013,0,16.043-.018c6.074.456,9.263,3.645,9.8,9.79a4.8,4.8,0,0,1,.4,2.823q.014,66.674,0,133.357a4.734,4.734,0,0,1-.4,2.823c-.134,6.155-3.332,9.531-9.442,9.754-3.412.125-6.825.027-10.237.027-.009-.339-.027-.679-.036-1.018.322-.295.625-.607.965-.875,6.574-5.244,12.559-10.961,15.454-19.17,1.429-.205.875-1.018.545-1.769M949.357,207.4c-.991-1.536-2.349-1.34-3.671-.456a156.11,156.11,0,0,1-21.456,11.818c-6.28,2.939-12.7,5.458-19.67,6.173-5.637.572-5.779.357-4.591-5.217,1.09-5.083,2.626-10.067,3.154-15.275.33-3.189-1.367-5.333-4.583-5.529a13.385,13.385,0,0,0-4.207.348,49.578,49.578,0,0,0-12.461,5.315,283.867,283.867,0,0,0-25.807,16.758c-.545.393-1.027,1.045-1.84.9-.17-.741.322-1.063.616-1.456,8.013-10.5,16.758-20.313,27.138-28.576a18.822,18.822,0,0,0,1.688-1.456,2.1,2.1,0,0,0,.205-3.019,2.161,2.161,0,0,0-3-.5,12.807,12.807,0,0,0-1.617,1.17,134.843,134.843,0,0,0-17.008,16.409,13.124,13.124,0,0,1-5.047,3.537c-9.031,3.645-18.339,4.154-27.816,2.439a57.39,57.39,0,0,1-17.482-6.253,12.508,12.508,0,0,0,1.563-1.215c1.17-1.286.554-3.752-1.063-3.645-3.189.2-6.619.84-9.049,2.778-2.278,1.813-4.4,3.645-7.182,4.565-15.8,5.217-31.917,9.4-47.8,14.319-.527.161-1.054.643-1.67.223.25-3.5-.822-4.761-4.395-5.324-2.475-.384-4.9.1-7.316.4-4.047.518-8.048,1.519-12.158,1.483-2.787-.027-3.269-.911-2.144-3.475a16.11,16.11,0,0,1,4.029-5c4.922-4.672,10.4-8.406,17.267-9.594.777-.134,1.724-.5,2.26.339.482.777-.036,1.581-.411,2.3a11.432,11.432,0,0,1-3.466,3.725c-1.286.956-2.064,2.09-.9,3.564,1.134,1.438,2.483.974,3.743.08a14.507,14.507,0,0,0,4.582-5.386c1.161-2.287,2.215-4.645.456-7.128-1.661-2.358-4.145-2.3-6.646-2.126a9.347,9.347,0,0,0-1.1.17c-6.86,1.34-12.533,4.913-17.624,9.513a25.735,25.735,0,0,1-4.1,3.055,254.764,254.764,0,0,1-34.328,16.972c-4.681,1.894-9.4,3.779-14.417,4.556-1.911.3-4.18.956-5.592-1.027-1.394-1.965-.375-3.993.447-5.922.179-.4.42-.786.625-1.179a61.027,61.027,0,0,1,7.361-10.344c2.358-2.778,4.859-5.44,7.3-8.147a2.207,2.207,0,0,0,.321-3.019,2.105,2.105,0,0,0-2.537-.884,5.237,5.237,0,0,0-1.9,1.519c-2.742,2.707-4.994,5.887-8.29,8.066a143.435,143.435,0,0,1-39.483,18.276A26.747,26.747,0,0,1,617.5,228.33c-3.269-.42-4.511-2.126-4.2-5.342a21.015,21.015,0,0,1,3.385-9.111c2.2-3.528,4.565-6.959,6.78-10.478.929-1.474,1.778-3.162.188-4.672-1.536-1.465-3.216-.688-4.7.268-2.3,1.483-4.547,3.082-6.842,4.609-.474.313-.893,1.126-1.626.223-3.18-3.93-7.477-3.886-11.639-2.617a63.188,63.188,0,0,0-29.934,19.33,11.291,11.291,0,0,0-2.841,6.2,4.9,4.9,0,0,0,4.565,5.717,10.5,10.5,0,0,0,3.761-.268c5.5-1.376,10.282-4.243,15.007-7.2,7.825-4.886,15.347-10.228,22.778-15.695.608-.447,1.117-1.17,2.063-1.009.215,1.009-.527,1.563-.911,2.233-2.072,3.627-3.966,7.3-4.636,11.505-.724,4.556,1.251,10.031,7.879,10.934a9.355,9.355,0,0,0,5.788.027,35.881,35.881,0,0,0,4.3-.67,173.9,173.9,0,0,0,32.756-13.265,8.3,8.3,0,0,1,2.867-1.492,6.616,6.616,0,0,1-1.519,2.733c-.6.375-.357,1.072-.589,1.608-2.046,4.734-1.626,9.228,3.332,12.318-1.036.018-2.073.054-3.117.054q-27.16.013-54.329-.018c-1.572-.009-2.653.214-2.43,2.108.616.768,1.492.554,2.287.554,2.823.018,5.646,0,8.477-.009,4.368.384,8,2.117,9.531,6.423a23.47,23.47,0,0,1,1.17,7.852q-.027,64.905-.018,129.8c0,.965-.054,1.938-.08,2.9-.554.67-.348,1.474-.375,2.233-.429,3.653-1.742,6.726-5.422,8.254a14.119,14.119,0,0,1-5.851,1.161c-2.6-.063-5.2-.009-7.8-.009-.974,0-1.822.143-1.822,1.4s.92,1.117,1.724,1.143c.67.018,1.34,0,2,0l70.694.054c2.832-.179,5.7.456,8.5-.366l3.109-.08c1.054-.08,2.162.295,3.144-.366a81.961,81.961,0,0,0,24.4-5.467,44.861,44.861,0,0,0,15.668-10c6.217-6.378,8.986-14.364,10.067-23.037q0-4.877-.009-9.746c-1.59-13.783-8.173-24.1-20.849-30.291-8.692-4.252-18-5.9-27.486-6.878-1.447-.75-2.993-.241-4.484-.366a8.065,8.065,0,0,1-3.073-.214,5.879,5.879,0,0,1,2.635-.268c.9-.045,1.858.241,2.689-.357,1.688-.188,3.385-.3,5.056-.572,7.691-1.233,15.15-3.118,22.153-6.771,10.88-5.681,15.873-14.828,16.659-26.7a4.692,4.692,0,0,0,0-3.948c-.179-1.545-.25-3.109-.545-4.636-1.831-9.433-6.271-17.178-14.659-22.323a53.09,53.09,0,0,0,21.68-16.972,4.952,4.952,0,0,1,2.8-1.644q15.047-4.5,30.094-9c4.788-1.429,9.567-2.867,14.766-4.422-.777,1.117-1.286,1.84-1.787,2.573a23.163,23.163,0,0,0-4.029,9.817c-.456,3.1-.143,6.092,2.537,8.075,2.733,2.01,5.681,1.242,8.406-.259a21.061,21.061,0,0,0,7.646-7.646,30.379,30.379,0,0,0,4.833-18.526,63.573,63.573,0,0,0,22.126,7.888,59.482,59.482,0,0,0,23.743-1.188c-.759,1.045-1.242,1.688-1.715,2.34-2.546,3.475-5.288,6.825-7.262,10.692-.777,1.528-1.34,3.153.134,4.5s3.028.724,4.457-.286q2.734-1.929,5.458-3.877c10.719-7.637,21.34-15.418,33.149-21.358a27.55,27.55,0,0,1,8.37-2.93c1.465-.214,2.162.232,1.867,1.8-.241,1.313-.465,2.635-.732,3.939-.938,4.654-2.537,9.183-2.877,13.953-.241,3.314,1.5,5.52,4.717,6.289a18.665,18.665,0,0,0,8.406-.331c14.828-3.26,27.879-10.442,40.5-18.553C949.607,209.848,950.242,208.767,949.357,207.4Zm-343.981,1.054c-8.763,6.235-17.356,12.738-27.022,17.58a18.718,18.718,0,0,1-6.44,1.912c-1.1.009-1.6-.652-1.17-1.983a10.818,10.818,0,0,1,2.814-4.234A64.831,64.831,0,0,1,598.3,205.971a13.169,13.169,0,0,1,6.36-.661,2.457,2.457,0,0,1,2.108,1.465C607.127,207.838,605.957,208.044,605.376,208.455Zm97.358,125.29a109.184,109.184,0,0,1,.018,41.43c-2.483,13.131-10.951,20.152-24.333,20.313-4.761.063-9.531-.08-14.292.08-2.215.08-2.93-.509-2.912-2.832.116-12.8.054-25.6.054-38.393s.036-25.6-.036-38.4c-.018-1.992.464-2.742,2.591-2.662,6.315.232,12.649-.339,18.946.509C693.462,315.236,700.492,322.24,702.734,333.745ZM696.1,291.529c-2.242,11.354-9.4,17.866-20.974,19.188-3.8.438-7.575.161-11.353.384-1.948.116-2.555-.491-2.546-2.483.089-11.684.045-23.359.045-35.034,0-11.532.045-23.064-.045-34.587-.009-1.992.6-2.528,2.537-2.519a80.439,80.439,0,0,1,12.89.7c11.89,1.983,17.464,8.254,19.786,20.7A88.527,88.527,0,0,1,696.1,291.529ZM716.526,242.1c-.554.089-1.26.366-1.572-.348-.205-.482.322-.8.67-1.018a88.39,88.39,0,0,1,18.258-8.968C728.853,236.468,723.681,240.97,716.526,242.1Zm23.029-17.767a145.234,145.234,0,0,0-16.249,6.655c-4.752,2.331-9.451,4.752-13.077,8.727a1.137,1.137,0,0,0-.1-.214,1.385,1.385,0,0,0-.143-.179,2.583,2.583,0,0,0-.045.706c-6.029-2.439-12.372-3.573-18.776-4.466s-12.863-1.018-19.3-1.358c.759-.214,1.51-.438,2.26-.67h.009c14.212-4.3,27.522-10.7,40.581-17.669a7.337,7.337,0,0,1,.8-.331c-.107,5.029,1.786,6.959,6.86,7.164,5.628.223,11.023-1.447,16.552-2.019,1.081-.107,2.76-1.027,3.091.393C742.342,222.479,741.145,223.792,739.555,224.337Zm63.279-9a26.3,26.3,0,0,1-6.905,12.729,9.732,9.732,0,0,1-2.867,2.063c-2.93,1.3-4.234.331-3.895-2.858a16.863,16.863,0,0,1,1.554-5.538c2.171-4.556,8.129-10.746,12.577-12.97A16.09,16.09,0,0,1,802.834,215.333ZM714.588,546.5c-2.447-.018-4.9-.1-7.343.036-1.161.063-3.278-.706-3.287.563,0,1.483,2.055.321,3.144.688a1.037,1.037,0,0,0,.438,0c1.331-.2,1.867.313,1.8,1.715-.1,2.072-.027,4.154-.018,6.235,0,2.153-.009,4.306.009,6.458,0,.464-.17,1.17.58,1.2.8.027.616-.706.625-1.17.018-3.341.009-6.682.018-10.022,0-4.163,0-4.154,4.18-4.422.5-.036,1.393.313,1.3-.67C715.955,546.272,715.133,546.513,714.588,546.5ZM691.354,186.552a2.1,2.1,0,0,0-2.992.384,52.029,52.029,0,0,0-3.957,5.324,2.126,2.126,0,0,0,1.921,3.252c.518-.045,1.1-.018,1.438-.456,1.492-1.912,3.019-3.805,4.377-5.815C692.828,188.231,692.283,187.2,691.354,186.552Zm-6.86,374.915q.067-6.579,0-13.149c0-.589.393-1.617-.491-1.67-1.161-.072-.741,1.063-.75,1.7-.036,4.011-.018,8.021-.018,12.032-.152.063-.313.116-.474.179q-4.623-6.5-9.254-12.988c-.375-.527-.706-1.286-1.536-.947-.724.295-.4,1.045-.411,1.581-.027,4.163-.062,8.325.027,12.488.018.92-.652,2.608.6,2.635s.607-1.653.634-2.537c.08-3.805.036-7.611.036-11.693a5.661,5.661,0,0,1,.652.563c2.921,4.118,5.824,8.254,8.763,12.363.447.625.75,1.706,1.751,1.4C684.949,563.146,684.493,562.137,684.493,561.467Zm-10.96,34.078c-1.921-5.047-3.832-10.094-5.771-15.141-.152-.393-.348-.867-.92-.8-.536.053-.67.5-.831.929-1.9,4.976-3.814,9.951-5.7,14.936-.125.34-.554.831.179,1.054.554.161.831-.206,1-.634a14.138,14.138,0,0,0,1.018-2.7c.393-2.2,2.055-1.911,3.412-1.661,1.84.339,4.475-1.51,5.4,1.742a19.026,19.026,0,0,0,.857,2.287,1.852,1.852,0,0,0,.59.893c.375.205.893.232.911-.456C673.622,595.831,673.586,595.688,673.533,595.545Zm-8.5-5.377c-1.09.036-1.268-.34-.875-1.3.893-2.188,1.7-4.413,2.733-7.11,1.143,2.984,2.126,5.547,3.216,8.406C668.129,590.159,666.574,590.114,665.029,590.168Zm-13.292-27.709c-1.93-5.056-3.85-10.112-5.8-15.168-.152-.411-.42-.84-.974-.732-.5.107-.625.554-.786.982-1.876,4.922-3.779,9.835-5.645,14.757-.134.348-.509.884.107,1.135.634.259.929-.232,1.126-.751a24.105,24.105,0,0,1,1.206-3.108c1.313-2.376,3.573-.768,5.369-1.09.992-.17,2.456-.67,2.921,1.108a22.127,22.127,0,0,0,1.027,2.707,2.87,2.87,0,0,0,.5.956,1.1,1.1,0,0,0,.8.179c.116-.018.205-.331.268-.456A4.471,4.471,0,0,0,651.737,562.458Zm-9.782-5.476c.974-2.6,1.93-5.136,3.109-8.289,1.188,3.073,2.162,5.592,3.2,8.289Zm-2.072,22.707c-.777-.1-.706.608-.706,1.09-.018,4.9-.009,9.8,0,14.694,0,.42-.036.974.6.974.652.009.581-.563.581-.974.018-2.448.009-4.9.009-7.352s.009-4.9,0-7.343C640.366,580.351,640.419,579.752,639.883,579.689Zm-21.1-17.5c-.724-1.376-1.465-2.76-2.3-4.064-.617-.965-.768-1.5.464-2.206,1.974-1.117,2.474-3.109,2.055-5.217a4.7,4.7,0,0,0-4.2-3.984,58.7,58.7,0,0,0-6-.232c-1.108-.062-1.411.447-1.394,1.447.036,2.3.009,4.6.009,6.9v6.682a1.854,1.854,0,0,0,0,.223c.107.607-.295,1.608.607,1.661.992.054.625-.983.652-1.563.062-1.116,0-2.224.036-3.341.009-.491-.143-1.036.438-1.385,1.394-.849,5.4.161,6.217,1.6q1.152,2.023,2.3,4.064c.268.473.661.947,1.224.67C619.677,563.066,618.981,562.566,618.784,562.19Zm-7.405-6.485c-3.162-.027-2.635.509-2.689-3.9.063-4.636-.482-3.966,2.8-4,4.413-.045,6.244,1.135,6.289,3.9C617.82,554.544,615.953,555.741,611.379,555.705Zm6.976,39.429c-.732-1.376-1.474-2.751-2.3-4.073-.581-.911-.625-1.4.464-2.046a4.636,4.636,0,0,0,2.09-5.422,4.544,4.544,0,0,0-4.136-3.787c-1.259-.134-2.51-.232-3.769-.357a.431.431,0,0,1-.009.107,6.536,6.536,0,0,1-1.108-.009c-2.117-.384-2.626.572-2.546,2.564.152,3.707-.009,7.432.08,11.148.027,1.072-.634,3.055.563,3.055,1.367-.009.474-1.938.679-3.01.188-.991-.348-2.153.322-3.01.706-.9,5.413-.107,6.021.938.858,1.474,1.679,2.966,2.51,4.457.3.545.7,1.161,1.358.759S618.561,595.527,618.356,595.134Zm-7.37-6.378c-3.082-.027-2.555.509-2.608-3.948.054-4.574-.491-3.93,2.823-3.957,4.35-.045,6.2,1.17,6.208,3.948C617.418,587.622,615.551,588.792,610.986,588.756Zm-7.727-59.474c-.759-1.358-1.492-2.733-2.314-4.064-.6-.974-.92-1.608.438-2.394,1.956-1.117,2.448-3.135,1.992-5.244a4.675,4.675,0,0,0-4.055-3.886c-1.929-.33-3.859-.116-5.779-.259-1.456-.107-1.769.545-1.724,1.831.08,2.233.027,4.457.027,6.691-.009,1.786-.089,3.573.027,5.351.063,1.018-.536,2.939.518,2.876,1.438-.071.474-1.912.688-2.966.2-1-.339-2.162.3-3.037s5.485-.089,6.065.911c.938,1.6,1.84,3.216,2.751,4.833a.837.837,0,0,0,1.117.464C603.9,530.086,603.465,529.64,603.259,529.282Zm-9.129-6.61c-.8.018-1.036-.42-1.027-1.108v-2.9c-.018-4-.018-4.011,3.993-3.922,2.09.045,4.038.348,4.85,2.7a3.734,3.734,0,0,1-2.5,4.922C597.694,522.869,595.9,522.61,594.13,522.672ZM587.868,141.29a13.012,13.012,0,0,0-7.959,1.528c-7.084,3.421-13.328,8.129-19.286,13.185a500.259,500.259,0,0,0-36.5,34.48c-.491.59-.992,1.179-1.492,1.769a2.685,2.685,0,0,1,1.018-2.26c1.938-3.252,3.886-6.5,5.806-9.763a47.862,47.862,0,0,0,5.476-12.39c2.054-8.1-1.938-12.631-10.264-11.666-.214.027-.438.063-.661.1-5.127.661-9.612,2.984-14.033,5.458-2.412,1.349-4.743,2.841-7.45,4.475.411-1.045.679-1.715.947-2.385,1.858-4.8,3.493-9.656,3.609-14.873.161-6.923-4.314-11.184-11.193-10.844a30.94,30.94,0,0,0-9.942,2.242c-12.157,4.806-21,13.81-29.585,23.172a2.658,2.658,0,0,0-.384.554,2.3,2.3,0,0,0,3.341,2.992,11.319,11.319,0,0,0,1.706-1.751c5.637-6.289,11.63-12.166,18.786-16.713,4.69-2.984,9.665-5.279,15.275-5.842,5.413-.545,7.575,1.617,7.28,7.075-.384,7.1-3.5,13.292-6.423,19.554a14.818,14.818,0,0,1-4.243,5.333,243.348,243.348,0,0,0-43.663,46.012,38.08,38.08,0,0,0-4.279,7.3c-.715,1.7-1.117,3.493.465,4.967,1.5,1.393,3.216.911,4.806.17a31.174,31.174,0,0,0,7.646-5.369,201.4,201.4,0,0,0,36.4-44.932,42.5,42.5,0,0,1,15.865-15.4c1.8-1.027,3.582-2.126,5.422-3.091a30.939,30.939,0,0,1,11.157-3.671c4.511-.465,5.94,1.1,5.083,5.485-.893,4.609-3.1,8.665-5.413,12.64-6.423,11-13.837,21.331-21.3,31.64-2.573,3.546-5.011,7.2-7.53,10.8a2.175,2.175,0,0,0,.4,3.323,2.212,2.212,0,0,0,3.341-.411c.474-.563.947-1.143,1.42-1.715a531.876,531.876,0,0,1,54.15-56.553c7.253-6.5,14.65-12.881,23.207-17.687a16.637,16.637,0,0,1,7.1-2.465c1.867-.125,2.608.706,2.323,2.546a21.651,21.651,0,0,1-1.9,5.922c-4.127,8.709-9.54,16.624-15.293,24.315q-19.8,26.463-41.859,51.1a7.9,7.9,0,0,0-1.894,3.243,2.443,2.443,0,0,0,2.662,3.153c1.786-.223,5.538-3.7,5.663-5.512a3.727,3.727,0,0,1,1.081-2.322c13.917-16.016,27.5-32.292,39.947-49.487,5.324-7.361,10.344-14.909,14.078-23.225a19.415,19.415,0,0,0,2.153-8.352A5.828,5.828,0,0,0,587.868,141.29Zm-102.548,45.7c-10.541,15.186-21.519,29.978-36.588,41.144,9.826-15.793,22.519-29.1,36.044-41.707.42-.482.822-.983,1.26-1.456.232-.25.509-.456,1.224-1.09A8.092,8.092,0,0,1,485.321,186.989ZM586.144,546.638c-1.1-.053-.688,1.108-.7,1.751-.045,2.894.018,5.8-.027,8.692-.036,2.617-1.233,4.422-3.234,5.038-3.671,1.143-6.7-1.072-6.78-5.038-.054-3.118,0-6.235-.009-9.352,0-.518.045-1.161-.688-1.152-.8.009-.581.724-.59,1.188-.027,1.554-.009,3.117-.009,4.672h-.018c0,1.563-.027,3.118.009,4.681.072,3.921,2.608,6.574,6.315,6.619,3.662.054,6.253-2.608,6.315-6.583.054-2.894.036-5.788-.027-8.683C586.7,547.827,587.189,546.692,586.144,546.638Zm-.545,48.755c-1.42-.027-2.832-.018-4.243-.018-4.984,0-4.94,0-4.806-4.975.027-1.26.384-1.7,1.652-1.644,2.153.08,4.315.018,6.467.009.536,0,1.117-.018,1.018-.786-.08-.652-.643-.482-1.045-.491-1.108-.027-2.224-.009-3.341-.009-4.94,0-4.877,0-4.761-4.984.036-1.447.572-1.733,1.858-1.679,2.224.089,4.457.045,6.691,0,.5-.009,1.367.33,1.331-.634-.027-.688-.715-.625-1.233-.625-2.823,0-5.646.036-8.468-.018-1.126-.018-1.393.491-1.376,1.483.036,2.3.009,4.609.009,6.914,0,2.376-.009,4.761.009,7.137.009.616-.214,1.483.831,1.492,3.2.027,6.4.018,9.594,0,.357,0,.786-.054.777-.563C586.555,595.349,586.019,595.4,585.6,595.393Zm-13.524-65.575c-.071-.214-.116-.438-.2-.643q-2.787-7.289-5.583-14.56c-.179-.465-.268-1.1-.929-1.1-.768,0-.858.706-1.063,1.242-1.778,4.645-3.564,9.281-5.3,13.944-.2.509-1,1.286-.063,1.67.893.375,1.143-.67,1.215-1.215.456-3.609,2.769-4.234,5.833-3.8a6.959,6.959,0,0,0,1.778,0c1.009-.134,1.483.348,1.778,1.242.366,1.125.813,2.233,1.26,3.332a.748.748,0,0,0,.884.5C572.048,530.363,572.182,530.167,572.075,529.818Zm-4.8-5.753c-1.617-.027-3.242-.009-5.154-.009,1.063-2.787,2.037-5.369,3.189-8.406,1.063,2.76,1.9,5.029,2.814,7.262C568.511,523.86,568.163,524.083,567.278,524.066ZM554.853,595.4c-.6-.036-1.188-.027-1.787-.027h-8.745c.795-1.081,1.26-1.733,1.751-2.376q4.341-5.641,8.7-11.291c.411-.536.875-1.1.509-1.8-.357-.661-1.072-.33-1.617-.339-2.823-.036-5.646-.045-8.468,0-.634.009-1.8-.429-1.724.7.063,1.045,1.188.527,1.831.545,2.653.054,5.315.018,8.5.018-1.563,2.046-2.8,3.689-4.064,5.324-2.135,2.76-4.279,5.511-6.387,8.29-.491.643-1.411,1.912-.027,2.01,3.832.295,7.709.116,11.568.1a.576.576,0,0,0,.634-.491C555.594,595.581,555.237,595.429,554.853,595.4Zm-.313-32.685a3.7,3.7,0,0,0-.116-.42c-1.885-4.922-3.779-9.826-5.654-14.748-.2-.5-.34-1.054-1-.983-.616.071-.724.652-.911,1.143-1.653,4.359-3.341,8.719-4.958,13.1-.313.84-1.385,2.18-.509,2.519,1.376.536,1.134-1.3,1.653-2.072.59-.893.339-2.564,1.572-2.715a48.492,48.492,0,0,1,6.449-.072c.706,0,.732.643.92,1.09.438,1.1.831,2.224,1.277,3.323a.79.79,0,0,0,1.045.563C554.674,563.325,554.63,563.021,554.54,562.717Zm-9.871-5.663c1.018-2.68,1.983-5.235,3.162-8.343,1.179,3.064,2.135,5.556,3.216,8.343Zm-7.218-35.088c-1.063-.715-.438-1.036.018-1.635a4.046,4.046,0,0,0-2.51-6.628c-1.84-.4-3.707-.125-5.547-.268-1.34-.107-1.813.33-1.787,1.724.089,3.716.036,7.423.036,11.139,0,4.189,0,4.189,4.154,4.154.884,0,1.778,0,2.671-.009a4.707,4.707,0,0,0,2.966-8.477Zm-8.388-6.78c0-.107.152-.241.259-.322,1.036-.75,6.432.107,7.191,1.135a3.021,3.021,0,0,1-1.376,4.609,9.4,9.4,0,0,1-3.26.3c-.813-.223-2.448.554-2.7-.411C528.752,518.831,529.046,516.973,529.064,515.186Zm6.307,13.846a26.621,26.621,0,0,1-5.333.241c-.741.018-1.081-.322-1.072-1.063.018-.893,0-1.787,0-2.671,0-3.35,0-3.359,3.439-3.341a18.986,18.986,0,0,1,2.671.089,3.092,3.092,0,0,1,2.876,3.144A3.133,3.133,0,0,1,535.371,529.032Zm-13,66.361c-3.019-.045-6.038-.018-9.424-.018.572-.84.911-1.376,1.3-1.885q4.489-5.842,8.986-11.675c.4-.518.956-1.072.643-1.778-.357-.8-1.179-.464-1.8-.473-2.832-.027-5.654-.027-8.486,0-.59.009-1.563-.322-1.518.732.036.867.92.518,1.438.527,2.787.036,5.583.009,8.4.009a2.89,2.89,0,0,1-1,1.9c-2.975,3.9-5.985,7.78-8.977,11.675-.411.518-.992,1.027-.652,1.76.322.7,1.045.4,1.59.411,3.2.027,6.4.036,9.6-.009.554-.009,1.608.429,1.554-.634C523.972,595,522.954,595.4,522.374,595.393Zm-.715-48.9c-2.519-.018-5.056-.125-7.566.045-1.1.072-3.055-.911-3.144.706-.062,1.108,1.992.545,3.046.5,1.679-.063,2.43.348,2.269,2.188s-.036,3.716-.036,5.565c0,2.153-.009,4.306.009,6.458.009.563-.187,1.429.6,1.456,1.081.036.661-.965.67-1.527.045-3.269.018-6.53.018-9.8,0-4.091,0-4.082,4.082-4.3.518-.027,1.376.313,1.4-.581C523.043,546.353,522.222,546.5,521.659,546.5Zm-32.846,8.772c-1.84-.59-3.707-1.063-5.538-1.644-1.385-.438-2.43-1.277-2.278-2.876a3.076,3.076,0,0,1,2.68-2.894c2.251-.375,4.493-.384,6,1.813.313.447.563,1,1.161.464.545-.482.071-.956-.214-1.358-1.3-1.813-3.18-2.323-5.261-2.376-3.073,0-5.288,1.59-5.61,4.02-.3,2.322,1.054,3.877,4.252,4.815,1.563.464,3.153.84,4.69,1.376a2.648,2.648,0,0,1,2.019,2.626,2.9,2.9,0,0,1-1.992,2.689,6.941,6.941,0,0,1-7.611-1.358c-.393-.411-.715-1.224-1.349-.661-.715.634.1,1.215.5,1.617,2.269,2.3,5.065,2.6,8.048,1.876,2.028-.5,3.493-1.671,3.68-3.912C492.19,557.17,490.841,555.911,488.813,555.268Zm2.7,25.664c-.009-.518.268-1.376-.7-1.3-.884.072-.6.893-.6,1.42-.036,2.3-.018,4.609-.018,6.905,0,2.376-.018,4.761.018,7.137,0,.527-.286,1.349.6,1.411.965.063.688-.786.7-1.3Q491.538,588.068,491.511,580.931Zm-25.726-1.117a39.243,39.243,0,0,0-6.226-.268c-1.215-.054-1.269.7-1.26,1.59.018,2.3,0,4.609,0,6.914s-.018,4.6.018,6.905c.009.527-.277,1.429.527,1.456,1.054.027.607-.974.652-1.545a14.917,14.917,0,0,0,.009-2.894c-.187-1.617.518-2.036,2.028-1.965a21.512,21.512,0,0,0,4.216-.241,4.7,4.7,0,0,0,4.038-4.833A4.86,4.86,0,0,0,465.785,579.815Zm-.348,8.736a12.889,12.889,0,0,1-1.769.205c-4.145.143-4.145.134-4.145-4.011,0-4.252,0-4.252,4.708-3.9,2.742.205,4.243,1.554,4.216,3.9C468.429,586.746,467.562,588.176,465.436,588.551Zm-6.762-26.208c-1.411-.027-2.823-.018-4.234-.018-4.859,0-4.788,0-4.77-4.815.009-1.554.581-1.876,1.956-1.8,2.01.089,4.02.027,6.021.009.491,0,1.152.143,1.206-.625.054-.858-.661-.625-1.117-.643-1.036-.045-2.081-.018-3.126-.018-5.324,0-5.3,0-4.922-5.253.08-1.045.393-1.429,1.456-1.4,2.376.054,4.752.036,7.137,0,.456-.009,1.2.268,1.268-.482.08-.911-.706-.777-1.268-.777-2.751-.018-5.5.036-8.254-.027-1.17-.027-1.581.393-1.545,1.545.054,2.3.018,4.609.018,6.914,0,2.376.009,4.761-.009,7.137,0,.795.027,1.474,1.134,1.465,3.046-.036,6.1-.009,9.147-.018.429-.009.983,0,.929-.643C459.657,562.28,459.094,562.342,458.674,562.342Zm-30.952-.17c-.777-1.438-1.536-2.885-2.412-4.27-.563-.884-.509-1.313.464-1.885a4.654,4.654,0,0,0,2.171-5.4,4.571,4.571,0,0,0-4.3-3.886c-1.179-.116-2.367-.214-3.546-.322a.307.307,0,0,1-.009.089c-.813,0-1.635.027-2.448-.009s-1.242.259-1.242,1.143c.018,4.976.009,9.96.018,14.945,0,.357,0,.8.5.84.581.063.759-.348.768-.831.018-1.34,0-2.68.027-4.011.009-.5-.152-1.072.34-1.447,1.1-.831,5.413.125,6.119,1.349.822,1.42,1.635,2.832,2.43,4.261.277.491.661.965,1.206.7C428.571,563.075,427.937,562.566,427.722,562.172Zm-7.459-6.467c-3.028-.027-2.5.545-2.555-4,0-3.912,0-3.912,2.867-3.912,4.377,0,6.182,1.179,6.155,4.011S424.891,555.75,420.264,555.705ZM357.1,207.258a2.083,2.083,0,0,0-2.76-.724,11.141,11.141,0,0,0-1.662,1.1,137.522,137.522,0,0,1-42.43,19.741,23.68,23.68,0,0,1-9.263.965c-3.287-.42-4.529-2.01-4.261-5.288a18.921,18.921,0,0,1,2.457-7.575,93.87,93.87,0,0,1,5.985-9.4,14.908,14.908,0,0,0,2.59-4.654,2.622,2.622,0,0,0-2.867-3.43,5.955,5.955,0,0,0-2.85,1.188c-2.233,1.474-4.431,3.01-6.628,4.529-.563.393-.956.822-1.626,0-2.984-3.662-7.066-3.761-11.032-2.617A60.65,60.65,0,0,0,252.3,220.737a30.179,30.179,0,0,1-6.86,6.181c-1.126.724-2.251,1.447-3.4,2.117-8.013,4.618-16.481,6.923-25.833,5.788-11.514-1.394-22.171-5.44-32.73-9.889-.581-.25-1.3-.331-1.67-1.027a3.181,3.181,0,0,1,.491-.447c16.374-9.513,30.121-22.225,43.27-35.65a7.536,7.536,0,0,1,3-1.8,129.01,129.01,0,0,0,33.3-17.321c6.807-5.011,13.078-10.576,17.955-17.562,2.028-2.9,3.564-6.03,3.627-9.665a5.315,5.315,0,0,0-4.717-5.556c-3.457-.581-6.44.715-9.281,2.4a66.593,66.593,0,0,0-11.193,8.826c-11.532,10.8-21.653,22.939-32.721,34.186a8.248,8.248,0,0,1-3.707,2.3,128.876,128.876,0,0,1-55.624,4.038c-2.34-.339-3.734.277-3.787,1.894-.072,2.1,1.492,2.474,3.126,2.716a132.363,132.363,0,0,0,48.773-2.019c.67-.152,1.349-.456,2.037-.027-.107.295-.125.473-.214.563-11.854,11.452-24.163,22.3-38.822,30.148a3.011,3.011,0,0,1-3.091-.1c-6.887-3.332-13.873-6.467-21.037-9.165-5.8-2.188-11.7-3.886-18.035-3.359-5.762.491-10.139,3.555-11.38,8.156-1.26,4.627.9,9.487,5.637,12.792a23.6,23.6,0,0,0,9.5,3.636c12.39,2.251,24.083-.357,35.365-5.4a3.771,3.771,0,0,1,3.493-.045c9.71,4.341,19.554,8.29,29.969,10.648,10.88,2.457,21.528,2.439,31.8-2.59a92.91,92.91,0,0,0,8.888-5.092c.554-.348,1.108-1.143,1.84-.116,1.813,2.5,4.413,2.483,7.066,2a32.985,32.985,0,0,0,9.862-4.029c8.942-4.922,17.2-10.907,25.467-16.856,1.563-1.117,3.109-2.251,4.85-3.519.366,1.4-.393,1.956-.768,2.626-2.153,3.761-4.136,7.557-4.672,11.952-.643,5.208,1.787,8.861,6.86,10.13a17.535,17.535,0,0,0,7.968.116c17.892-3.913,34.025-11.818,49.175-21.9a4.132,4.132,0,0,0,.849-.724A2.04,2.04,0,0,0,357.1,207.258Zm-94.231-58.214a43.129,43.129,0,0,1,10.174-7.548c1.688-.84,3.921-2.063,5.378-.616,1.367,1.367,0,3.511-.7,5.181a28.434,28.434,0,0,1-5.869,8.352c-10.2,10.871-22.68,18.366-36.213,24.288a8.408,8.408,0,0,1-1.5.277C243.851,168.686,252.882,158.414,262.869,149.043ZM152.407,228.875a41.662,41.662,0,0,1-15.882-1.3,15.2,15.2,0,0,1-5.824-3.144c-1.983-1.8-3.2-4.082-2.474-6.753.732-2.7,2.975-3.921,5.61-4.466a22.668,22.668,0,0,1,9.076.134c5.52,1.117,22.046,7.709,27.352,10.943A59.665,59.665,0,0,1,152.407,228.875ZM289.6,207.91c-9.022,6.387-17.839,13.1-27.763,18.08a21.75,21.75,0,0,1-6.342,1.947,1.258,1.258,0,0,1-1.34-.607c-.4-.849.375-1.179.866-1.572a150.046,150.046,0,0,0,14.632-13.033c4.163-4.323,9.451-6.19,15.069-7.4a5.7,5.7,0,0,1,4.734.6C290.23,206.5,290.82,207.052,289.6,207.91ZM405.837,365.849c-.187-.25-.366-.5-.554-.75m-6.208-4.02a42.336,42.336,0,0,0-10.5-1.831m22.636,7.2a12.571,12.571,0,0,0-4.565-6.851,26.3,26.3,0,0,0-8.5-3.752m-4.868-1.045a6.1,6.1,0,0,0,3,.527" transform="translate(0)" fill="none"/>
    <path id="Tracé_60" data-name="Tracé 60" d="M800.4,360.7c-1.59-13.783-8.174-24.1-20.849-30.291-8.691-4.252-18-5.9-27.486-6.878-1.465-.456-3.019.161-4.484-.366a8.065,8.065,0,0,1-3.073-.215,5.882,5.882,0,0,1,2.635-.268c.849-.491,1.831.054,2.689-.357,1.688-.188,3.386-.3,5.056-.572,7.691-1.233,15.15-3.117,22.153-6.771,10.88-5.681,15.873-14.828,16.659-26.7a10.486,10.486,0,0,0,0-3.948c-.179-1.545-.25-3.109-.545-4.636-1.831-9.433-6.271-17.178-14.658-22.323-.893-.893-1.956-.447-2.93-.286a14.72,14.72,0,0,1-4.377.3c-2.564-.348-3.68-1.751-3.457-4.315a3.474,3.474,0,0,0-.134-1.715,1.159,1.159,0,0,0-.1-.214,1.409,1.409,0,0,0-.143-.179,2.583,2.583,0,0,0-.045.706c-6.029-2.439-12.372-3.573-18.777-4.466s-12.863-1.018-19.3-1.358c.759-.214,1.51-.438,2.26-.67a19.691,19.691,0,0,1-2.144-.313c-2.18-.072-4.332.652-6.539.2a1.833,1.833,0,0,0-1.93.8c-1.036.018-2.072.054-3.117.054q-27.16.013-54.329-.018c-1.572-.009-2.653.214-2.43,2.108.616.652,1.394.295,2.1.331,2.885.152,5.788-.241,8.665.214,4.368.384,8,2.117,9.531,6.423a23.468,23.468,0,0,1,1.17,7.852q-.027,64.905-.018,129.8c0,.965-.054,1.938-.081,2.9-.411.7.107,1.545-.375,2.233-.429,3.654-1.742,6.726-5.422,8.254a14.12,14.12,0,0,1-5.851,1.161c-2.6-.063-5.2-.009-7.8-.009-.974,0-1.822.143-1.822,1.4s.92,1.116,1.724,1.143c.67.018,1.34,0,2,0l70.694.054c2.814-.554,5.681.107,8.5-.366l3.109-.08c1.009-.518,2.135.071,3.145-.366a81.965,81.965,0,0,0,24.4-5.467,44.859,44.859,0,0,0,15.668-10c6.217-6.378,8.986-14.364,10.067-23.038Q800.411,365.568,800.4,360.7Zm-81.761-75.472c0-11.532.045-23.064-.045-34.587-.009-1.992.6-2.528,2.537-2.519a80.449,80.449,0,0,1,12.89.7c11.89,1.983,17.464,8.254,19.786,20.7a88.529,88.529,0,0,1-.34,33.659c-2.242,11.353-9.4,17.865-20.974,19.187-3.8.438-7.575.161-11.354.384-1.947.116-2.555-.491-2.546-2.483C718.685,308.578,718.641,296.9,718.641,285.227Zm41.484,101.592c-2.483,13.131-10.951,20.152-24.333,20.313-4.761.063-9.531-.08-14.292.08-2.215.08-2.93-.509-2.912-2.832.116-12.8.054-25.6.054-38.393s.036-25.6-.036-38.4c-.018-1.992.464-2.742,2.59-2.662,6.315.232,12.649-.339,18.946.509,10.692,1.447,17.722,8.45,19.964,19.956A109.183,109.183,0,0,1,760.124,386.819Z" transform="translate(-57.372 -11.644)" fill="#882836"/>
    <path id="Tracé_61" data-name="Tracé 61" d="M892.947,447.565a2.074,2.074,0,0,0-2.546-.857,6.132,6.132,0,0,0-1.528.884,138.046,138.046,0,0,1-44.619,20.26c-4.69,1.224-9.451,2.063-14.337,1.125-4.386-.84-5.788-3.108-4.484-7.361a25.477,25.477,0,0,1,4.055-7.137A2.842,2.842,0,0,1,833,453.229c6.315,1.519,11.979.25,16.4-4.815a4.836,4.836,0,0,0,1.134-5.36,5.166,5.166,0,0,0-4.913-3.225,15.279,15.279,0,0,0-9.076,2.564c-2.573,1.626-4.922,3.618-7.5,5.217-13.443,8.307-27.495,15.373-42.582,20.206a35.716,35.716,0,0,1-12.479,2.072c-3.707-.17-5.244-2.09-4.583-5.708a45.7,45.7,0,0,1,2.671-8.021c1.1-2.912,2.421-5.762,2.573-8.951.179-3.975-2.09-6.012-5.994-5.288-4.752.875-8.62,3.537-12.417,6.289-12.1,8.763-22.618,19.322-33.292,29.692-.545.536-.947,1.322-1.894,1.438-.2-.983.563-1.509.974-2.144,5.672-8.736,11.818-17.142,18.3-25.3a11.218,11.218,0,0,1,2.769-2.546c34.784-22.484,65.584-49.594,93.186-80.395,8.683-9.692,17.008-19.714,23.288-31.238a23.283,23.283,0,0,0,2.376-6.226c.473-2.171.277-4.234-1.554-5.7a5.713,5.713,0,0,0-6.128-.6,34.314,34.314,0,0,0-7.682,4.9,234.5,234.5,0,0,0-18.866,16.74,1082.288,1082.288,0,0,0-88.041,98.448,12.35,12.35,0,0,1-3.136,2.8,166.068,166.068,0,0,1-32.926,16.222c-9.04,3.252-18.258,5.94-28.049,5.52-5.243-.223-6.9-2.5-5.5-7.566a18.536,18.536,0,0,1,2.546-5.431,34.822,34.822,0,0,1,11.264-10.63,13.453,13.453,0,0,1,5.011-1.76c1.894-.268,2.385.357,1.688,2.126a10.69,10.69,0,0,1-3.93,4.449c-1.161.884-1.706,1.983-.813,3.269.947,1.349,2.26,1.277,3.529.438a14.128,14.128,0,0,0,5.637-7.021c1.8-4.85-.634-8.129-5.833-7.888-4.538.206-8.272,2.43-11.648,5.136-9.04,7.253-19.384,12.1-29.96,16.517-5.208,2.171-10.621,3.877-16.374,3.957-2.617.036-2.957-.366-2.626-3.019.053-.447.143-.875.223-1.322.956-5.181,2.671-10.21,3.269-15.471.527-4.725-1.813-7-6.521-6.4-5.279.679-9.942,2.992-14.462,5.565A271.7,271.7,0,0,0,585.233,461.5a3.652,3.652,0,0,1-2.323,1.125,14.522,14.522,0,0,1,.724-1.277c7.37-9.674,15.338-18.794,24.672-26.646,1.367-1.143,2.769-2.251,4.118-3.412a2.167,2.167,0,0,0,.518-3.162c-.911-1.269-2.126-1.188-3.35-.474a11.287,11.287,0,0,0-1.233.947,136.685,136.685,0,0,0-16.731,16.061,25.575,25.575,0,0,1-4.663,4.127,140.868,140.868,0,0,1-40.286,18.642,25.46,25.46,0,0,1-10.344,1.117c-3.144-.411-4.591-2.189-4.162-5.342a22.786,22.786,0,0,1,2.76-7.95c2.242-4.136,5.19-7.8,7.593-11.818.822-1.385,1.42-2.93.125-4.332-1.411-1.536-3.046-.9-4.466-.009-2.456,1.536-4.841,3.2-7.218,4.859-.688.491-1.117.742-1.8-.089-2.394-2.9-5.654-3.439-9.12-2.84-7.718,1.34-14.319,5.154-20.679,9.487-16.249,11.076-33.122,21.028-51.372,28.477a26.59,26.59,0,0,1-10.353,2.43c-4.341-.045-5.565-1.483-5.083-5.815.036-.3.089-.589.134-.884,1.206-7.593,5.109-14.042,8.763-20.59a8.063,8.063,0,0,1,2.9-2.975,463.766,463.766,0,0,0,38.956-27.191c6.735-5.261,13.426-10.594,20.134-15.891,1.2.205,1.938-.625,2.716-1.269,6.244-5.11,12.363-10.38,18.473-15.641a11.452,11.452,0,0,0,2.9-3.6q5-4.583,10-9.174c10.237-9.4,19.947-19.33,29.317-29.585.938.045,1.447-.59,2-1.2a73.909,73.909,0,0,0,6.3-8.316,22.847,22.847,0,0,0,3.984-8.352,6.973,6.973,0,0,0-5.306-8.441,10.483,10.483,0,0,0-6.9.545c-.009.009-.027.009-.036.018-.179.053-.348.1-.527.152a1.761,1.761,0,0,0,.563.518c-7.807,3.1-14.516,8.022-21.3,12.827-.616.429-1.063,1.3-2.046,1.072a4.694,4.694,0,0,0,1.224-1.572c-.313.232-.634.464-.956.715h-.009c-.134.089-.25.188-.384.286a7.9,7.9,0,0,0-2.939,3.323q-10.223,8.71-20.438,17.41c-1.125-.125-1.715.724-2.456,1.313-4.011,3.207-7.468,7-11.228,10.478a142.45,142.45,0,0,0-12.363,12.541c-.045.045-.08.1-.125.143l-.295.295a2.189,2.189,0,0,0,.75.277q-15.329,15.878-29.719,32.586a1.61,1.61,0,0,0-.482-.59,3.514,3.514,0,0,1-.375.572c-.608.777-1.447,1.429-1.286,2.608-2.885,3.68-5.788,7.352-8.665,11.05-8.048,10.344-15.695,20.956-21.465,32.783-2.323,4.752-4.377,9.621-4.449,15.052-.071,5.663,2.787,8.665,8.45,9.058,5.306.375,10.112-1.429,14.882-3.323,11.005-4.386,21.3-10.2,31.532-16.106.741-.429,1.385-1.143,2.439-1.081-.027.4-.027.759-.063,1.125-.357,3.823,1.135,5.8,4.967,6.173,3.368.322,6.4-1.036,9.335-2.51,11.344-5.717,21.439-13.354,31.711-20.715.607-.438,1.143-1.126,2.09-1.036.045,1.027-.608,1.608-.992,2.287a35.325,35.325,0,0,0-4.448,10.407c-1.429,7.039,1.858,11.514,9,12.122a27.7,27.7,0,0,0,9.058-1c11.175-2.787,21.581-7.5,31.783-12.738.634-.322,1.215-.974,2.2-.733-2.17,3.207-4.565,6.074-6.146,9.469-.7,1.5-.822,2.9.509,4.065,1.286,1.108,2.68.706,3.922-.116,1.974-1.322,3.895-2.724,5.833-4.109,10.648-7.6,21.224-15.329,32.944-21.278a25.969,25.969,0,0,1,8.575-3.01c1.724-.215,2.224.268,1.93,2.09-.929,5.726-2.894,11.228-3.591,17-.447,3.644,1.608,6.467,5.226,6.959a26.675,26.675,0,0,0,9.29-.724c9.379-2.072,17.91-6.262,26.4-10.585.607-.313,1.134-.92,1.921-.75-.429,1.465-.893,2.8-1.206,4.172-1.679,7.146,1.563,11.648,8.87,12.3a46.286,46.286,0,0,0,12.658-.67c14.167-2.644,27.3-8.093,40-14.712.759-.393,1.528-.768,2.492-1.25a3.563,3.563,0,0,1-1.116,2.331c-3.591,4.931-7.057,9.951-10.317,15.105a54.142,54.142,0,0,0-4.886,9.254c-1.152,2.957-.956,4.806.6,5.672,2.349,1.313,3.752-.447,5.181-1.813,7.566-7.262,15.034-14.65,22.7-21.8,6.852-6.4,13.9-12.586,21.912-17.562a20.573,20.573,0,0,1,4.636-2.144c1.349-.42,2.01.018,1.67,1.563a38.724,38.724,0,0,1-2.081,6.342,45.951,45.951,0,0,0-2.85,8.432c-1.286,6.387,1.849,10.7,8.272,11.389a30.217,30.217,0,0,0,11.014-1.259c12.443-3.287,23.958-8.808,35.32-14.694.742-.384,1.492-.742,2.537-1.269-.536,1.715-1.036,3.028-1.349,4.377-1.331,5.672.9,9.6,6.467,11.371a23.645,23.645,0,0,0,11.7.616,138.179,138.179,0,0,0,52.042-21.823,10.859,10.859,0,0,0,1.885-1.545A1.964,1.964,0,0,0,892.947,447.565Zm-48.773-3.144c.607-.081,1.456-.384,1.813.339.393.8-.268,1.411-.821,1.894-2.787,2.439-6.057,2.823-10.2,2.3C838.091,446.61,840.816,444.859,844.175,444.421Zm-37.768-69.184c11.72-12.586,23.645-24.958,36.437-36.472a86.025,86.025,0,0,1,10.139-8.03,11.041,11.041,0,0,1,2.162-1.125c.661-.241,1.394-.724,2.09-.054.608.59.17,1.251.062,1.885a16.476,16.476,0,0,1-2.09,5.378C849.48,347,842.04,355.925,834.313,364.58a478.2,478.2,0,0,1-80.868,72.31c-.241.17-.5.313-.75.474l-.08-.643C769.783,415.559,787.845,395.184,806.407,375.237ZM563.4,330.109a10.15,10.15,0,0,1,3.475-1.393c.2,4.181-.313,8.379.277,12.55a119.75,119.75,0,0,1-9.96,11.416c-8.441,8.906-17.151,17.526-26.441,25.557q4.663-14.967,9.317-29.952c.223-.7.348-1.429.527-2.153A127.684,127.684,0,0,1,563.4,330.109Zm-25.958,18.616c-.67,3.752-2.108,7.28-3.2,10.9-1.876,6.262-3.886,12.479-6.056,19.411-1.6-4.171-2.93-7.745-4.341-11.282-.706-1.787-1.072-3.734-2.358-5.261C526.625,357.7,531.842,352.986,537.443,348.725Zm-68.8,68.889c1.724.688,3.52.25,5.288.313a1.113,1.113,0,0,0,1.278-1.206,1.143,1.143,0,0,0-1.224-1.277c-1.117-.054-2.233-.08-3.341-.116,5.672-6.994,11.836-13.542,17.964-20.134,2.376-2.555,4.859-5,7.3-7.494,2.206,5.083,3.922,10.344,5.824,15.543-11.005,9.558-22.6,18.357-34.418,26.87-5.011,3.6-10.112,7.057-15.194,10.559a2.93,2.93,0,0,1-2.3.929C455.878,433.255,462.033,425.26,468.643,417.614Zm55.526,31.22c-8.066,5.806-16.124,11.648-24.842,16.472a20.845,20.845,0,0,1-7.146,2.8c-2.537.134-2.957-.429-2.233-2.314a10.294,10.294,0,0,1,2.671-3.8c7.11-6.61,14.891-12.22,24.1-15.588a13.908,13.908,0,0,1,6.566-.849c1.09.143,2.171.563,2.438,1.626C525.955,448.11,524.785,448.387,524.169,448.834Z" transform="translate(-32.497 -19.893)" fill="#404e4e"/>
    <path id="Tracé_62" data-name="Tracé 62" d="M616.051,258.9c-.473.858.054,1.84-.348,2.707-.009.616-.009,1.242-.009,1.858a5.749,5.749,0,0,1,.152,2.206q.013,62.292,0,124.576a5.749,5.749,0,0,1-.152,2.206v1.411c.438,1.009-.143,2.144.366,3.144.089,6.789,3.376,10.112,10.165,10.246,2.974.054,5.949.018,8.933.045.822.009,1.751-.018,1.8,1.143.072,1.286-.875,1.376-1.813,1.393-.67.009-1.34,0-2.01,0q-34.61.027-69.211.063a2.455,2.455,0,0,1-.009-2.662c3.939.08,7.834.205,11.568-1.536a6.425,6.425,0,0,0,3.841-4.556,28.311,28.311,0,0,0,.974-6.315c.063-18.053.018-36.106,0-54.15,2.457-3.26,4.958-6.494,7.37-9.79a26.126,26.126,0,0,0,3.6-6.637c2-5.636-1.715-10.139-7.629-9.263-1.09.161-2.179.411-3.269.616a1.765,1.765,0,0,1-.563-.518c.179-.054.348-.1.527-.152.009-.009.027-.009.036-.018V256.057a9.48,9.48,0,0,0-1.483,3.144q-6.847,21.827-13.676,43.654c-2.671,8.584-5.288,17.2-7.923,25.789.321-.25.643-.482.956-.715a4.7,4.7,0,0,1-1.224,1.572,8.178,8.178,0,0,1-3.064,2.751c.34-3.055,1.59-5.869,2.492-8.763,7.753-24.985,15.606-49.925,23.341-74.91.625-2.028,1.554-2.6,3.6-2.591q25.66.121,51.31.018c1.626,0,2.617.313,2.358,2.18-2.466.634-4.984.107-7.468.277a23.015,23.015,0,0,0-3.332.089c-.134.036-.277.072-.411.116C619.4,248.8,616.141,252.2,616.051,258.9Z" transform="translate(-45.95 -11.764)" fill="#882836"/>
    <path id="Tracé_63" data-name="Tracé 63" d="M518.9,349.665c-3.877,3.689-7.789,7.343-11.612,11.077-4.743,4.618-9.406,9.308-14.1,13.971a2.191,2.191,0,0,1-.75-.277l.295-.295c.045-.045.08-.1.125-.143-.277-.572-.554-1.134-.777-1.724q-19.71-51.935-39.411-103.879c-1.465-3.859-2.957-7.7-4.44-11.55-.134.036-.268.062-.4.089v1.706q0,67.424-.009,134.839a23.713,23.713,0,0,0,1.018,6.583,8.03,8.03,0,0,0,5.226,5.663,26.192,26.192,0,0,0,8.549,1.554,3.5,3.5,0,0,0,.375-.572,1.6,1.6,0,0,1,.482.59,9.355,9.355,0,0,1-2.144,2.591q-18.96-.027-37.928-.063a5.511,5.511,0,0,1-2.841-.3h-.009c.42-1.992,1.992-2.537,3.689-2.912a1.472,1.472,0,0,1,.536.116c-.223.17-.456.339-.679.5.465.009.938.018,1.4.018,3.412,0,6.825.1,10.237-.027,6.11-.223,9.308-3.6,9.442-9.755a4.734,4.734,0,0,0,.4-2.823q.013-66.674,0-133.357a4.8,4.8,0,0,0-.4-2.823c-.536-6.146-3.725-9.335-9.8-9.79-5.324-.456-10.666-.071-15.989-.214-.786-.027-1.635.277-2.367-.277-.17-1.608.456-2.18,2.153-2.171q29.223.08,58.447.009a2.666,2.666,0,0,1,2.876,2.108q12.6,33.484,25.28,66.942Q512.324,332.38,518.9,349.665Z" transform="translate(-31.332 -11.767)" fill="#882836"/>
    <path id="Tracé_64" data-name="Tracé 64" d="M1002.24,213.5c-.992-1.536-2.349-1.34-3.671-.456a156.109,156.109,0,0,1-21.457,11.818c-6.279,2.939-12.7,5.458-19.67,6.173-5.636.572-5.78.357-4.591-5.217,1.09-5.083,2.626-10.067,3.153-15.275.331-3.189-1.367-5.333-4.582-5.529a13.387,13.387,0,0,0-4.207.348,49.578,49.578,0,0,0-12.461,5.315,283.9,283.9,0,0,0-25.807,16.758c-.545.393-1.027,1.045-1.84.9-.17-.741.322-1.063.616-1.456,8.013-10.5,16.758-20.313,27.138-28.576a18.8,18.8,0,0,0,1.688-1.456,2.1,2.1,0,0,0,.205-3.019,2.161,2.161,0,0,0-3-.5,12.827,12.827,0,0,0-1.617,1.17,134.839,134.839,0,0,0-17.008,16.409,13.123,13.123,0,0,1-5.047,3.537c-9.031,3.645-18.339,4.154-27.817,2.439a57.384,57.384,0,0,1-17.481-6.253,12.511,12.511,0,0,0,1.563-1.215c1.17-1.286.554-3.752-1.063-3.645-3.189.2-6.619.84-9.049,2.778-2.278,1.813-4.395,3.645-7.182,4.565-15.8,5.217-31.917,9.4-47.8,14.319-.527.161-1.054.643-1.67.223.25-3.5-.822-4.761-4.395-5.324-2.474-.384-4.9.1-7.316.4-4.046.518-8.048,1.519-12.158,1.483-2.787-.027-3.269-.911-2.144-3.475a16.11,16.11,0,0,1,4.029-5c4.922-4.672,10.4-8.406,17.267-9.594.777-.134,1.724-.5,2.26.339.482.777-.035,1.581-.411,2.3a11.432,11.432,0,0,1-3.466,3.725c-1.286.956-2.063,2.09-.9,3.564,1.135,1.438,2.483.974,3.743.08a14.509,14.509,0,0,0,4.583-5.387c1.161-2.287,2.215-4.645.456-7.128-1.661-2.358-4.145-2.3-6.646-2.126a9.336,9.336,0,0,0-1.1.17c-6.86,1.34-12.533,4.913-17.624,9.513a25.742,25.742,0,0,1-4.1,3.055,254.761,254.761,0,0,1-34.329,16.972c-4.681,1.894-9.4,3.779-14.417,4.556-1.912.3-4.181.956-5.592-1.027-1.394-1.965-.375-3.993.447-5.922.179-.4.42-.786.625-1.179a61.034,61.034,0,0,1,7.361-10.344c2.358-2.778,4.859-5.44,7.3-8.147a2.206,2.206,0,0,0,.322-3.019,2.105,2.105,0,0,0-2.537-.884,5.24,5.24,0,0,0-1.9,1.519c-2.742,2.707-4.994,5.887-8.29,8.066a143.433,143.433,0,0,1-39.483,18.276,26.745,26.745,0,0,1-10.782,1.313c-3.27-.42-4.511-2.126-4.2-5.342a21.019,21.019,0,0,1,3.386-9.111c2.2-3.528,4.564-6.959,6.78-10.478.929-1.474,1.778-3.162.188-4.672-1.536-1.465-3.216-.688-4.7.268-2.3,1.483-4.547,3.082-6.842,4.609-.473.313-.893,1.125-1.626.223-3.18-3.93-7.477-3.886-11.639-2.617a63.188,63.188,0,0,0-29.934,19.33,11.291,11.291,0,0,0-2.841,6.2,4.9,4.9,0,0,0,4.565,5.717,10.5,10.5,0,0,0,3.76-.268c5.5-1.376,10.282-4.243,15.007-7.2,7.825-4.886,15.346-10.228,22.778-15.695.608-.447,1.117-1.17,2.064-1.009.214,1.009-.527,1.563-.911,2.233-2.072,3.627-3.967,7.3-4.636,11.505-.724,4.556,1.251,10.031,7.879,10.934a21.655,21.655,0,0,0,5.788.027,35.852,35.852,0,0,0,4.3-.67A173.881,173.881,0,0,0,712.3,225.152a8.3,8.3,0,0,1,2.867-1.492,6.613,6.613,0,0,1-1.518,2.733c-.6.375-.357,1.072-.59,1.608-2.046,4.734-1.626,9.228,3.332,12.318a32.274,32.274,0,0,0,8.352-.009c.759-.214,1.51-.438,2.26-.67h.009c14.212-4.3,27.522-10.7,40.581-17.669a7.344,7.344,0,0,1,.795-.331c-.107,5.029,1.787,6.959,6.86,7.164,5.628.223,11.023-1.447,16.552-2.019,1.081-.107,2.76-1.027,3.091.393.33,1.4-.866,2.716-2.456,3.26a145.2,145.2,0,0,0-16.249,6.655c-4.752,2.331-9.451,4.752-13.077,8.727a1.127,1.127,0,0,0-.1-.214,1.373,1.373,0,0,0-.143-.179,2.59,2.59,0,0,0-.044.706c-1.572,4,.134,6.575,4.457,6.744a26.8,26.8,0,0,0,6.727-1.045,53.088,53.088,0,0,0,21.68-16.972,4.952,4.952,0,0,1,2.805-1.644q15.047-4.5,30.094-9c4.788-1.429,9.567-2.867,14.766-4.422-.777,1.117-1.286,1.84-1.787,2.573a23.161,23.161,0,0,0-4.029,9.817c-.456,3.1-.143,6.092,2.537,8.075,2.733,2.01,5.681,1.242,8.406-.259a21.061,21.061,0,0,0,7.646-7.646,30.377,30.377,0,0,0,4.833-18.526,63.574,63.574,0,0,0,22.126,7.888,59.478,59.478,0,0,0,23.743-1.188c-.759,1.045-1.241,1.688-1.715,2.34-2.546,3.475-5.288,6.825-7.262,10.692-.777,1.527-1.34,3.153.134,4.5s3.028.724,4.458-.286q2.734-1.93,5.458-3.877c10.719-7.637,21.34-15.418,33.149-21.358a27.548,27.548,0,0,1,8.37-2.93c1.465-.214,2.162.232,1.867,1.8-.241,1.313-.464,2.635-.732,3.939-.938,4.654-2.537,9.183-2.876,13.953-.241,3.314,1.5,5.52,4.716,6.289a18.666,18.666,0,0,0,8.406-.33c14.828-3.26,27.879-10.442,40.5-18.553C1002.49,215.951,1003.124,214.871,1002.24,213.5Zm-343.981,1.054c-8.763,6.235-17.356,12.738-27.021,17.58a18.722,18.722,0,0,1-6.44,1.912c-1.1.009-1.6-.652-1.17-1.983a10.818,10.818,0,0,1,2.814-4.234,64.829,64.829,0,0,1,24.744-15.757,13.17,13.17,0,0,1,6.36-.661,2.456,2.456,0,0,1,2.108,1.465C660.01,213.942,658.84,214.147,658.259,214.558Zm111.15,33.65c-.554.089-1.259.366-1.572-.348-.206-.482.321-.8.67-1.018a88.394,88.394,0,0,1,18.258-8.969C781.736,242.571,776.564,247.073,769.409,248.208Zm86.308-26.771a26.3,26.3,0,0,1-6.905,12.729,9.735,9.735,0,0,1-2.867,2.064c-2.93,1.3-4.234.331-3.895-2.858a16.868,16.868,0,0,1,1.554-5.538c2.171-4.556,8.129-10.746,12.577-12.97A16.09,16.09,0,0,1,855.717,221.436Z" transform="translate(-52.883 -6.103)" fill="#404e4e"/>
    <path id="Tracé_65" data-name="Tracé 65" d="M305.164,418.074l5.869-4.949A9.836,9.836,0,0,0,305.164,418.074Zm56.249-6.816,3.43-3.082A4.361,4.361,0,0,0,361.413,411.258Zm16.57-28.906h-.009c0,.009-.009.009-.009.018h.027a.009.009,0,0,1,.009-.009C377.992,382.361,377.992,382.352,377.983,382.352Zm46.37,3.359a26.3,26.3,0,0,0-8.5-3.752l-1.626-.456a.567.567,0,0,1-.241-.063,6.1,6.1,0,0,1-3-.527,9.137,9.137,0,0,1-2.876-.232c-.045-.009-.08-.027-.125-.036a1.013,1.013,0,0,1-.295-.116c-.393-.027-.777-.045-1.17-.071q-7.356-.013-14.73-.018c-.518.027-1.036.054-1.554.089a4.306,4.306,0,0,1-2.457.339c-2.367.321-4.725.652-7.093.983a.726.726,0,0,1-.143.071,6.185,6.185,0,0,1-2.546.447,2.658,2.658,0,0,1-1.84.357,174.648,174.648,0,0,0-24.538,7.664,3.375,3.375,0,0,1-1.8.768c-3.323,1.492-6.664,2.921-9.942,4.484-6.119,2.93-11.872,6.53-17.74,9.906-1.938,1.313-3.877,2.617-5.824,3.93-1.769,1.188-3.3,2.751-5.27,3.645-1.653,2.01-3.877,3.341-5.869,4.949l-5.913,6.181c-.661,1.447-2.394,2.358-2.233,4.207.009.08.027.161.036.25.241.518.313,1.152.947,1.4l2.644-.143c.295-.277.581-.554.866-.822q1.594-1.782,3.18-3.564a6.517,6.517,0,0,1,2.242-2.224,65.938,65.938,0,0,1,8.924-7.459c.134-.08.268-.17.4-.25a12.256,12.256,0,0,1,3.118-2.287A33.815,33.815,0,0,1,325.2,409.5a87.554,87.554,0,0,1,11.2-6.61,3.6,3.6,0,0,1,1.8-.956,43.178,43.178,0,0,1,8.031-4,1.835,1.835,0,0,1,1.3-.59,76.02,76.02,0,0,1,11.639-4.734,102.339,102.339,0,0,1,15.195-4.511l3.573-.822.893-.107a13.614,13.614,0,0,1,4.011-.8c1.474-.063,2.867-.75,4.368-.554a.876.876,0,0,1,.286-.116,4.375,4.375,0,0,1,2.037-.223c.831-.036,1.662-.08,2.492-.116a5.068,5.068,0,0,1,.5-.116,19.34,19.34,0,0,1,4.6-.215c.75,0,1.5-.009,2.251-.009,2.3-.036,4.627-.277,6.905.339a42.34,42.34,0,0,1,10.5,1.831c2.528.634,4.9,1.519,6.208,4.02.188.25.366.5.554.75a6.046,6.046,0,0,1,.679,5.02v.009a2.224,2.224,0,0,1-.268.983,21.616,21.616,0,0,1-4.582,9.3,6.064,6.064,0,0,1-2.162,2.555q-2.492,2.291-4.993,4.583a12,12,0,0,1-4.815,3.573c-.625.447-1.251.893-1.885,1.34a10.884,10.884,0,0,1-4.359,2.635,107.932,107.932,0,0,1-10.692,5.52c-2.957,2.34-6.155,2.019-9.424.857l-1.331-.134a12.335,12.335,0,0,1-4.243-.339h-8.048a.96.96,0,0,1-.17.063,6.161,6.161,0,0,1-2.707.277c-4.189.813-8.45,1.3-12.327,3.27a30.773,30.773,0,0,0-2.644,2.019c-1.358,1.259-2.43,2.769-1.831,4.716a5.08,5.08,0,0,0,4.288,3.466,26.929,26.929,0,0,0,8.879-.223,106.2,106.2,0,0,0,23.788-6.565,3.5,3.5,0,0,1,2.966.107c5.994,2.68,8.4,7.727,7.164,15.159-.777,4.654-.777,4.707-5.422,4.029a159.852,159.852,0,0,0-63.485,3.814c-.348.089-.706.116-1.536.25,8.978-10.889,18.062-21.09,27.656-30.845a137.359,137.359,0,0,1,11.175-11.175l3.966-3.671a4.937,4.937,0,0,1,1.8-1.706c1.188-1.063,2.376-2.117,3.564-3.18a1.347,1.347,0,0,1,.911-.831,91.062,91.062,0,0,1,13.31-10.433c1.268-.831,2.242-1.724,1.947-3.394-1.313-1.751-2.8-1.778-4.583-.643a91.843,91.843,0,0,0-9.862,7.325,11,11,0,0,1-3.484,3.055c-.188.17-.375.348-.554.518a11.136,11.136,0,0,1-3.466,3.055c-.643.625-1.286,1.242-1.929,1.858a11.668,11.668,0,0,1-3.43,3.082c-5.065,4.788-9.969,9.737-14.766,14.784a15.275,15.275,0,0,1-3.546,3.877q-1.594,1.635-3.171,3.269a11.609,11.609,0,0,1-3.082,3.448c-.464.482-.938.974-1.4,1.465a11.274,11.274,0,0,1-3.064,3.466c-.17.179-.348.366-.518.554a14.939,14.939,0,0,1-3.037,3.582,14.29,14.29,0,0,1-3.144,3.493c-.625.768-1.26,1.537-1.885,2.3a37.336,37.336,0,0,1-5.261,6.235,11.2,11.2,0,0,1-7.084,5.083,6.521,6.521,0,0,1-3.189,1.161c-1.751.92-3.493,1.84-5.244,2.76q-4.087,2.841-8.156,5.7c-3.055,2.769-4.85,6.083-4.475,10.326.313,1.036.634,2.072.947,3.1a9.025,9.025,0,0,0,1.715,2.26c2.474,1.706,1.653,3.287.045,4.94-1.054,1.867-2.1,3.743-3.153,5.619-.75,1.313-.92,2.671.518,3.511,1.465.849,2.671.25,3.5-1.224,1.206-2.135,2.608-4.172,3.68-6.369.938-1.9,2.081-2.367,4.011-1.51a15.4,15.4,0,0,0,3.457.84c8.441,1.536,16.9,1.027,25.315-.018,16.383-2.037,31.961-6.682,46.227-15.159,7.477-4.457,14.114-9.915,18.741-17.454.634-1.036,1.349-.965,2.242-.706,2.93.831,5.869,1.626,8.772,2.528,1.536.474,2.9.447,3.528-1.206.652-1.715-.429-2.671-1.947-3.144-2.689-.831-5.378-1.688-8.111-2.358-1.429-.348-1.93-.732-1.367-2.3a21.815,21.815,0,0,0,1.108-10.326,15.555,15.555,0,0,0-7.9-11.854c5.431-2.51,10.335-5.244,15.2-8.048h.009q1.769-1.139,3.537-2.3c.223-.161.456-.33.679-.5l.688-.5c.322-.295.625-.607.965-.875,6.575-5.244,12.559-10.96,15.454-19.17.179-.581.357-1.152.536-1.742v-.018c.045-2.072.089-4.136.125-6.208A12.571,12.571,0,0,0,424.353,385.71Zm-71.837,51.569c2.742-3.305,14.837-5.485,24.011-4.3C368.738,435.4,360.931,437.565,352.516,437.279Zm-53.659,47.263c-1.188,1.778-1.822,1.358-2.787-.009-1.42-2.037-1.4-4.261.214-6.619,1.76-2.564,4.315-4.243,6.914-5.833a38.821,38.821,0,0,1,6.28-3.225c.125,1.1-.6,1.519-.991,2.081C305.28,475.475,301.948,479.924,298.857,484.542Zm88.6-20.027a58.588,58.588,0,0,1-15.275,11.845c-13.426,7.352-27.87,11.4-43.011,13.1-8.29.929-16.606,1.331-24.869-.411-.777-.161-1.536-.384-2.519-.643.563-.866.983-1.545,1.429-2.206,4.538-6.637,9.326-13.086,14.257-19.437a5.782,5.782,0,0,1,2.984-2.171,155.952,155.952,0,0,1,56.562-7.048,122.473,122.473,0,0,1,14.185,1.715A20.1,20.1,0,0,1,387.461,464.515ZM298,430.115a3.248,3.248,0,0,0,2.644-.143A6.431,6.431,0,0,1,298,430.115Z" transform="translate(-17.712 -26.114)" fill="#404e4e"/>
    <path id="Tracé_66" data-name="Tracé 66" d="M357.1,207.258a2.083,2.083,0,0,0-2.76-.724,11.141,11.141,0,0,0-1.662,1.1,137.522,137.522,0,0,1-42.43,19.741,23.68,23.68,0,0,1-9.263.965c-3.287-.42-4.529-2.01-4.261-5.288a18.921,18.921,0,0,1,2.457-7.575,93.87,93.87,0,0,1,5.985-9.4,14.908,14.908,0,0,0,2.59-4.654,2.622,2.622,0,0,0-2.867-3.43,5.955,5.955,0,0,0-2.85,1.188c-2.233,1.474-4.431,3.01-6.628,4.529-.563.393-.956.822-1.626,0-2.984-3.662-7.066-3.761-11.032-2.617A60.65,60.65,0,0,0,252.3,220.737a30.179,30.179,0,0,1-6.86,6.181c-1.126.724-2.251,1.447-3.4,2.117-8.013,4.618-16.481,6.923-25.833,5.788-11.514-1.394-22.171-5.44-32.73-9.889-.581-.25-1.3-.331-1.67-1.027a3.181,3.181,0,0,1,.491-.447c16.374-9.513,30.121-22.225,43.27-35.65a7.536,7.536,0,0,1,3-1.8,129.01,129.01,0,0,0,33.3-17.321c6.807-5.011,13.078-10.576,17.955-17.562,2.028-2.9,3.564-6.03,3.627-9.665a5.315,5.315,0,0,0-4.717-5.556c-3.457-.581-6.44.715-9.281,2.4a66.593,66.593,0,0,0-11.193,8.826c-11.532,10.8-21.653,22.939-32.721,34.186a8.248,8.248,0,0,1-3.707,2.3,128.876,128.876,0,0,1-55.624,4.038c-2.34-.339-3.734.277-3.787,1.894-.072,2.1,1.492,2.474,3.126,2.716a132.363,132.363,0,0,0,48.773-2.019c.67-.152,1.349-.456,2.037-.027-.107.295-.125.473-.214.563-11.854,11.452-24.163,22.3-38.822,30.148a3.011,3.011,0,0,1-3.091-.1c-6.887-3.332-13.873-6.467-21.037-9.165-5.8-2.188-11.7-3.886-18.035-3.359-5.762.491-10.139,3.555-11.38,8.156-1.26,4.627.9,9.487,5.637,12.792a23.6,23.6,0,0,0,9.5,3.636c12.39,2.251,24.083-.357,35.365-5.4a3.771,3.771,0,0,1,3.493-.045c9.71,4.341,19.554,8.29,29.969,10.648,10.88,2.457,21.528,2.439,31.8-2.59a92.91,92.91,0,0,0,8.888-5.092c.554-.348,1.108-1.143,1.84-.116,1.813,2.5,4.413,2.483,7.066,2a32.985,32.985,0,0,0,9.862-4.029c8.942-4.922,17.2-10.907,25.467-16.856,1.563-1.117,3.109-2.251,4.85-3.519.366,1.4-.393,1.956-.768,2.626-2.153,3.761-4.136,7.557-4.672,11.952-.643,5.208,1.787,8.861,6.86,10.13a17.535,17.535,0,0,0,7.968.116c17.892-3.913,34.025-11.818,49.175-21.9a4.132,4.132,0,0,0,.849-.724A2.04,2.04,0,0,0,357.1,207.258Zm-94.231-58.214a43.129,43.129,0,0,1,10.174-7.548c1.688-.84,3.921-2.063,5.378-.616,1.367,1.367,0,3.511-.7,5.181a28.434,28.434,0,0,1-5.869,8.352c-10.2,10.871-22.68,18.366-36.213,24.288a8.408,8.408,0,0,1-1.5.277C243.851,168.686,252.882,158.414,262.869,149.043ZM152.407,228.875a41.662,41.662,0,0,1-15.882-1.3,15.2,15.2,0,0,1-5.824-3.144c-1.983-1.8-3.2-4.082-2.474-6.753.732-2.7,2.975-3.921,5.61-4.466a22.668,22.668,0,0,1,9.076.134c5.52,1.117,22.046,7.709,27.352,10.943A59.665,59.665,0,0,1,152.407,228.875ZM289.6,207.91c-9.022,6.387-17.839,13.1-27.763,18.08a21.75,21.75,0,0,1-6.342,1.947,1.258,1.258,0,0,1-1.34-.607c-.4-.849.375-1.179.866-1.572a150.046,150.046,0,0,0,14.632-13.033c4.163-4.323,9.451-6.19,15.069-7.4a5.7,5.7,0,0,1,4.734.6C290.23,206.5,290.82,207.052,289.6,207.91Z" transform="translate(0)" fill="#404e4e"/>
    <path id="Tracé_67" data-name="Tracé 67" d="M626.066,141.567a13.012,13.012,0,0,0-7.959,1.528c-7.084,3.421-13.328,8.129-19.286,13.185a500.172,500.172,0,0,0-36.5,34.48c-.491.59-.992,1.179-1.492,1.769a2.684,2.684,0,0,1,1.018-2.26c1.938-3.252,3.886-6.5,5.806-9.764a47.855,47.855,0,0,0,5.476-12.39c2.055-8.1-1.938-12.631-10.264-11.666-.214.027-.438.063-.661.1-5.127.661-9.612,2.984-14.033,5.458-2.412,1.349-4.743,2.841-7.45,4.475.411-1.045.679-1.715.947-2.385,1.858-4.8,3.493-9.656,3.609-14.873.161-6.923-4.314-11.184-11.193-10.844a30.939,30.939,0,0,0-9.942,2.242c-12.157,4.806-21,13.81-29.585,23.171a2.668,2.668,0,0,0-.384.554,2.3,2.3,0,0,0,3.341,2.992,11.322,11.322,0,0,0,1.706-1.751c5.637-6.289,11.63-12.166,18.786-16.713,4.69-2.984,9.665-5.279,15.275-5.842,5.413-.545,7.575,1.617,7.28,7.075-.384,7.1-3.5,13.292-6.423,19.554a14.818,14.818,0,0,1-4.243,5.333,243.36,243.36,0,0,0-43.663,46.012,38.09,38.09,0,0,0-4.279,7.3c-.715,1.7-1.117,3.493.465,4.967,1.5,1.393,3.216.911,4.806.17a31.162,31.162,0,0,0,7.646-5.369,201.394,201.394,0,0,0,36.4-44.931,42.493,42.493,0,0,1,15.865-15.4c1.8-1.027,3.582-2.126,5.422-3.091a30.941,30.941,0,0,1,11.157-3.671c4.511-.464,5.94,1.1,5.083,5.485-.893,4.609-3.1,8.665-5.413,12.64-6.423,11-13.837,21.331-21.3,31.64-2.573,3.546-5.011,7.2-7.53,10.8a2.174,2.174,0,0,0,.4,3.323,2.212,2.212,0,0,0,3.341-.411c.474-.563.947-1.143,1.42-1.715a531.876,531.876,0,0,1,54.15-56.553c7.253-6.5,14.65-12.881,23.207-17.687a16.639,16.639,0,0,1,7.1-2.465c1.867-.125,2.609.706,2.322,2.546a21.647,21.647,0,0,1-1.9,5.922c-4.127,8.709-9.54,16.624-15.293,24.315q-19.8,26.463-41.858,51.1a7.9,7.9,0,0,0-1.894,3.243,2.443,2.443,0,0,0,2.662,3.153c1.787-.223,5.538-3.7,5.664-5.511a3.726,3.726,0,0,1,1.081-2.322c13.917-16.016,27.5-32.292,39.947-49.487,5.324-7.361,10.344-14.909,14.078-23.225a19.414,19.414,0,0,0,2.153-8.352A5.828,5.828,0,0,0,626.066,141.567Zm-102.548,45.7C512.978,202.452,502,217.245,486.93,228.411c9.826-15.793,22.519-29.1,36.043-41.707.42-.482.822-.983,1.259-1.456.232-.25.509-.456,1.224-1.09A8.092,8.092,0,0,1,523.519,187.267Z" transform="translate(-38.198 -0.277)" fill="#404e4e"/>
    <path id="Tracé_68" data-name="Tracé 68" d="M536.562,395.38c-.223,2.546-1.322,4.85-2.046,7.244-2.18,7.244-4.556,14.426-6.771,21.653a1.826,1.826,0,0,1-2.072,1.51c-2.671-.027-5.351-.036-8.022,0a1.683,1.683,0,0,1-1.876-1.188c-1.072-2.912-2.2-5.806-3.305-8.709q9.661-8.24,19.339-16.49C533.382,398.06,534.972,396.72,536.562,395.38Z" transform="translate(-41.522 -27.709)" fill="#882836"/>
    <path id="Tracé_75" data-name="Tracé 75" d="M623.445,391.948a4.007,4.007,0,0,1-.375,2.591V265.55a4.016,4.016,0,0,1,.375,2.591Q623.459,330.044,623.445,391.948Z" transform="translate(-53.326 -13.852)" fill="#42685a"/>
    <path id="Tracé_87" data-name="Tracé 87" d="M759.125,195.254c-1.358,2.01-2.885,3.9-4.377,5.815-.339.438-.92.411-1.438.456a2.126,2.126,0,0,1-1.921-3.252,52.017,52.017,0,0,1,3.957-5.324,2.1,2.1,0,0,1,2.993-.384C759.267,193.218,759.812,194.245,759.125,195.254Z" transform="translate(-66.985 -6.014)" fill="#404e4e"/>
    <path id="Tracé_92" data-name="Tracé 92" d="M435.377,248.931q-8.026.013-16.043.018c-.8-.009-1.662.187-2.314-.509,5.181.036,10.362.063,15.543.116A4.925,4.925,0,0,1,435.377,248.931Z" transform="translate(-31.335 -12.026)" fill="#42685a"/>
    <path id="Tracé_93" data-name="Tracé 93" d="M645.651,248.45c-1.492,1-3.171.4-4.752.473-2.153.107-4.306.018-6.458.009.134-.045.277-.08.411-.116,2.474-.634,5-.08,7.485-.259C643.444,248.477,644.552,248.486,645.651,248.45Z" transform="translate(-54.54 -12.027)" fill="#42685a"/>
    <path id="Tracé_94" data-name="Tracé 94" d="M671.774,248.925c-2.832.009-5.655.027-8.478.009-.8,0-1.67.214-2.287-.554,2.724.054,5.458.107,8.182.17A4.447,4.447,0,0,1,671.774,248.925Z" transform="translate(-57.376 -12.02)" fill="#42685a"/>
    <path id="Tracé_95" data-name="Tracé 95" d="M752.934,429.052c-2.8.822-5.672.188-8.5.366C747.235,428.65,750.1,429.159,752.934,429.052Z" transform="translate(-66.279 -31.295)" fill="#42685a"/>
    <path id="Tracé_96" data-name="Tracé 96" d="M681.288,244.6a9.356,9.356,0,0,1-5.788-.027Z" transform="translate(-58.922 -11.613)" fill="#446a5c"/>
    <path id="Tracé_97" data-name="Tracé 97" d="M762.414,332.88c-1.5-.045-3.037.313-4.484-.366C759.422,332.639,760.967,332.129,762.414,332.88Z" transform="translate(-67.72 -20.993)" fill="#42685a"/>
    <path id="Tracé_98" data-name="Tracé 98" d="M809.56,293V289.05A4.693,4.693,0,0,1,809.56,293Z" transform="translate(-73.23 -16.36)" fill="#42685a"/>
    <path id="Tracé_99" data-name="Tracé 99" d="M388.586,382.589a.009.009,0,0,0-.009.009h-.027c0-.009.009-.009.009-.018h.009C388.577,382.58,388.577,382.589,388.586,382.589Z" transform="translate(-28.296 -26.343)" fill="#446a5c"/>
    <path id="Tracé_100" data-name="Tracé 100" d="M388.586,382.589a.009.009,0,0,0-.009.009h-.027c0-.009.009-.009.009-.018h.009C388.577,382.58,388.577,382.589,388.586,382.589Z" transform="translate(-28.296 -26.343)" fill="#446a5c"/>
    <path id="Tracé_101" data-name="Tracé 101" d="M623.43,414.674c-.617-.992-.375-2.081-.366-3.144C623.725,412.513,623.358,413.62,623.43,414.674Z" transform="translate(-53.32 -29.432)" fill="#42685a"/>
    <path id="Tracé_102" data-name="Tracé 102" d="M760.575,428.555c-.983.661-2.091.286-3.145.366C758.422,428.322,759.52,428.555,760.575,428.555Z" transform="translate(-67.666 -31.244)" fill="#42685a"/>
    <path id="Tracé_103" data-name="Tracé 103" d="M760.129,331.575c-.83.6-1.786.313-2.689.357A4.429,4.429,0,0,1,760.129,331.575Z" transform="translate(-67.667 -20.895)" fill="#42685a"/>
    <path id="Tracé_104" data-name="Tracé 104" d="M623.073,263.147a4.225,4.225,0,0,1,.349-2.707C623.386,261.351,623.672,262.307,623.073,263.147Z" transform="translate(-53.321 -13.307)" fill="#42685a"/>
    <path id="Tracé_105" data-name="Tracé 105" d="M565.049,429.162a1.8,1.8,0,0,1-.009-2.662A5.592,5.592,0,0,0,565.049,429.162Z" transform="translate(-47.071 -31.03)" fill="#42685a"/>
    <path id="Tracé_106" data-name="Tracé 106" d="M684.508,415.763c.027-.759-.179-1.563.375-2.233A3.2,3.2,0,0,1,684.508,415.763Z" transform="translate(-59.882 -29.646)" fill="#42685a"/>
    <path id="Tracé_107" data-name="Tracé 107" d="M780.207,251.879a1.384,1.384,0,0,0-.143-.179,2.6,2.6,0,0,0-.045.706c.089-.107.188-.206.286-.313A1.134,1.134,0,0,0,780.207,251.879Z" transform="translate(-70.077 -12.374)" fill="#446a5c"/>
    <path id="Tracé_108" data-name="Tracé 108" d="M468.435,422a3.484,3.484,0,0,1-.375.572c.286.018.572.018.858.018A1.606,1.606,0,0,0,468.435,422Zm29.871-32.712c-.045.044-.08.1-.125.143l-.295.295a2.186,2.186,0,0,0,.75.277C498.53,389.763,498.413,389.531,498.306,389.29Z" transform="translate(-36.782 -27.059)" fill="#446a5c"/>
    <path id="Tracé_109" data-name="Tracé 109" d="M791.478,451.053a.442.442,0,0,1-.08-.643Z" transform="translate(-71.281 -33.582)" fill="#446a5c"/>
    <path id="Tracé_110" data-name="Tracé 110" d="M580.7,323.168c-.179.054-.348.1-.527.152a1.765,1.765,0,0,0,.563.518v-.688C580.731,323.159,580.713,323.159,580.7,323.168ZM557.658,336.88h-.009c-.08.286-.169.572-.259.857a4.7,4.7,0,0,0,1.224-1.572C558.3,336.4,557.98,336.63,557.658,336.88Z" transform="translate(-46.317 -20)" fill="#446a5c"/>
    <path id="Tracé_111" data-name="Tracé 111" d="M548.72,349c-.179.723-.3,1.456-.527,2.153q-4.649,14.98-9.317,29.951-14.029,13.064-29.022,25c-1.9-5.2-3.618-10.46-5.824-15.543,6.182-6.878,12.908-13.22,19.581-19.607,1.974-1.894,4-3.734,6-5.6,1.286,1.527,1.652,3.475,2.358,5.261,1.411,3.537,2.742,7.111,4.341,11.282,2.171-6.932,4.181-13.149,6.057-19.411,1.09-3.618,2.528-7.146,3.2-10.9A13.984,13.984,0,0,1,548.72,349Z" transform="translate(-40.621 -22.759)" fill="#882836"/>
    <path id="Tracé_112" data-name="Tracé 112" d="M583.755,342.051c-.59-4.172-.08-8.37-.277-12.551a1.8,1.8,0,0,1,.911,1.653C584.371,334.8,584.961,338.477,583.755,342.051Z" transform="translate(-49.099 -20.677)" fill="#446a5c"/>
    <path id="Tracé_113" data-name="Tracé 113" d="M480.076,427.854a1.113,1.113,0,0,1-1.277,1.206c-1.769-.063-3.564.375-5.288-.313,1.545-.724,3.287-.3,5.244-.8-1.161-.848-2.644-.3-3.243-1.492,1.108.036,2.224.062,3.341.116A1.143,1.143,0,0,1,480.076,427.854Z" transform="translate(-37.364 -31.026)" fill="#446a5c"/>
    <path id="Tracé_114" data-name="Tracé 114" d="M589.767,332.72a37.788,37.788,0,0,1-6.012,9.21c-.59-4.172-.08-8.37-.277-12.55a6.136,6.136,0,0,1,3.117-.929C590.293,328.012,591.223,329.227,589.767,332.72Z" transform="translate(-49.099 -20.556)" fill="#882836"/>
    <path id="Tracé_115" data-name="Tracé 115" d="M480.076,427.854a1.113,1.113,0,0,1-1.277,1.206c-1.769-.063-3.564.375-5.288-.313.67-.759,1.331-1.528,2-2.287,1.108.036,2.224.062,3.341.116A1.143,1.143,0,0,1,480.076,427.854Z" transform="translate(-37.364 -31.026)" fill="#882836"/>
    <path id="Tracé_116" data-name="Tracé 116" d="M791.387,451.053c-.205.375-.759.813-.884.554-.268-.572.366-.893.8-1.2Z" transform="translate(-71.189 -33.582)" fill="#869f96"/>
  </g>
</svg>
