<svg id="Groupe_23" data-name="Groupe 23" xmlns="http://www.w3.org/2000/svg" width="219.801" height="90.622" viewBox="0 0 219.801 90.622">
  <path id="Tracé_60" data-name="Tracé 60" d="M698.063,275.676a9.593,9.593,0,0,0-5.546-8.057,21.323,21.323,0,0,0-7.311-1.829c-.39-.121-.8.043-1.193-.1a2.144,2.144,0,0,1-.817-.057,1.565,1.565,0,0,1,.7-.071c.226-.131.487.014.715-.1.449-.05.9-.081,1.345-.152a19.036,19.036,0,0,0,5.893-1.8,8.007,8.007,0,0,0,4.431-7.1,2.788,2.788,0,0,0,0-1.05c-.047-.411-.067-.827-.145-1.233a8.462,8.462,0,0,0-3.9-5.938c-.238-.238-.52-.119-.779-.076a3.916,3.916,0,0,1-1.164.081.939.939,0,0,1-.919-1.148.924.924,0,0,0-.036-.456.305.305,0,0,0-.026-.057.375.375,0,0,0-.038-.048.687.687,0,0,0-.012.188,20.845,20.845,0,0,0-4.995-1.188c-1.7-.235-3.421-.271-5.135-.361.2-.057.4-.116.6-.178a5.244,5.244,0,0,1-.57-.083,9.883,9.883,0,0,1-1.739.052.487.487,0,0,0-.513.211c-.276,0-.551.014-.829.014q-7.224,0-14.451,0c-.418,0-.706.057-.646.561.164.173.371.078.558.088a21.941,21.941,0,0,1,2.3.057,2.661,2.661,0,0,1,2.535,1.708,6.243,6.243,0,0,1,.311,2.089q-.007,17.264,0,34.526c0,.257-.014.516-.021.772-.109.185.029.411-.1.594a2.419,2.419,0,0,1-1.442,2.2,3.756,3.756,0,0,1-1.556.309c-.691-.017-1.383,0-2.074,0-.259,0-.485.038-.485.373s.245.3.459.3c.178,0,.356,0,.532,0l18.8.014c.748-.147,1.511.029,2.262-.1l.827-.021c.269-.138.568.019.836-.1a21.8,21.8,0,0,0,6.489-1.454,11.932,11.932,0,0,0,4.168-2.661,10.243,10.243,0,0,0,2.678-6.128Q698.065,276.971,698.063,275.676ZM676.315,255.6c0-3.067.012-6.135-.012-9.2,0-.53.159-.672.675-.67a21.4,21.4,0,0,1,3.429.185c3.162.528,4.645,2.2,5.263,5.505a23.547,23.547,0,0,1-.09,8.953,5.912,5.912,0,0,1-5.579,5.1c-1.01.116-2.015.043-3.02.1-.518.031-.68-.131-.677-.661C676.327,261.812,676.315,258.706,676.315,255.6Zm11.034,27.023a6.1,6.1,0,0,1-6.472,5.4c-1.266.017-2.535-.021-3.8.021-.589.021-.779-.135-.775-.753.031-3.4.014-6.81.014-10.212s.01-6.81-.009-10.215c0-.53.124-.729.689-.708,1.68.062,3.364-.09,5.04.135,2.844.385,4.714,2.248,5.31,5.308A29.042,29.042,0,0,1,687.35,282.623Z" transform="translate(-533.254 -218.942)" fill="#52895f"/>
  <path id="Tracé_61" data-name="Tracé 61" d="M551.6,355.51a.552.552,0,0,0-.677-.228,1.631,1.631,0,0,0-.406.235,36.72,36.72,0,0,1-11.868,5.389,8.557,8.557,0,0,1-3.813.3c-1.167-.223-1.54-.827-1.193-1.958a6.776,6.776,0,0,1,1.079-1.9.756.756,0,0,1,.934-.333,4.123,4.123,0,0,0,4.362-1.281,1.286,1.286,0,0,0,.3-1.426,1.374,1.374,0,0,0-1.307-.858,4.064,4.064,0,0,0-2.414.682c-.684.432-1.309.962-2,1.388A51.43,51.43,0,0,1,523.28,360.9a9.5,9.5,0,0,1-3.319.551c-.986-.045-1.395-.556-1.219-1.518a12.153,12.153,0,0,1,.71-2.134,7.846,7.846,0,0,0,.684-2.381,1.221,1.221,0,0,0-1.594-1.407,8.263,8.263,0,0,0-3.3,1.673,82.121,82.121,0,0,0-8.855,7.9c-.145.143-.252.352-.5.383-.052-.261.15-.4.259-.57,1.509-2.324,3.143-4.56,4.868-6.729a2.984,2.984,0,0,1,.737-.677A122.763,122.763,0,0,0,536.531,334.6a44.7,44.7,0,0,0,6.194-8.309,6.2,6.2,0,0,0,.632-1.656,1.4,1.4,0,0,0-.413-1.516,1.52,1.52,0,0,0-1.63-.159,9.128,9.128,0,0,0-2.043,1.3,62.392,62.392,0,0,0-5.018,4.453A287.883,287.883,0,0,0,510.835,354.9a3.284,3.284,0,0,1-.834.746,44.172,44.172,0,0,1-8.758,4.315,19.524,19.524,0,0,1-7.461,1.468c-1.395-.059-1.837-.665-1.464-2.012a4.931,4.931,0,0,1,.677-1.445,9.262,9.262,0,0,1,3-2.827,3.579,3.579,0,0,1,1.333-.468c.5-.071.634.1.449.566a2.843,2.843,0,0,1-1.046,1.183c-.309.235-.454.527-.216.87a.617.617,0,0,0,.939.116,3.758,3.758,0,0,0,1.5-1.868c.48-1.29-.169-2.162-1.552-2.1a5.35,5.35,0,0,0-3.1,1.366,32.291,32.291,0,0,1-7.969,4.393,11.756,11.756,0,0,1-4.355,1.053c-.7.009-.786-.1-.7-.8.014-.119.038-.233.059-.352.254-1.378.71-2.716.87-4.115.14-1.257-.482-1.863-1.734-1.7a10.537,10.537,0,0,0-3.847,1.48,72.268,72.268,0,0,0-6.869,4.448.971.971,0,0,1-.618.3,3.858,3.858,0,0,1,.192-.34,43.76,43.76,0,0,1,6.563-7.088c.363-.3.737-.6,1.1-.908a.577.577,0,0,0,.138-.841.606.606,0,0,0-.891-.126,3,3,0,0,0-.328.252,36.355,36.355,0,0,0-4.45,4.272,6.8,6.8,0,0,1-1.24,1.1,37.47,37.47,0,0,1-10.716,4.959,6.773,6.773,0,0,1-2.751.3,1.127,1.127,0,0,1-1.107-1.421,6.06,6.06,0,0,1,.734-2.115c.6-1.1,1.38-2.074,2.02-3.144.219-.368.378-.779.033-1.152-.375-.409-.81-.24-1.188,0-.653.409-1.288.851-1.92,1.293-.183.131-.3.2-.48-.024a2.392,2.392,0,0,0-2.426-.756,14.131,14.131,0,0,0-5.5,2.523,74.061,74.061,0,0,1-13.664,7.575,7.073,7.073,0,0,1-2.754.646c-1.155-.012-1.48-.394-1.352-1.547.009-.081.024-.157.036-.235a16.816,16.816,0,0,1,2.331-5.477,2.145,2.145,0,0,1,.772-.791,123.355,123.355,0,0,0,10.362-7.233c1.792-1.4,3.571-2.818,5.356-4.227.318.055.516-.166.722-.337,1.661-1.359,3.288-2.761,4.914-4.16a3.046,3.046,0,0,0,.772-.958l2.659-2.44c2.723-2.5,5.306-5.142,7.8-7.869.249.012.385-.157.532-.318a19.657,19.657,0,0,0,1.675-2.212,6.077,6.077,0,0,0,1.06-2.222,1.855,1.855,0,0,0-1.411-2.245,2.788,2.788,0,0,0-1.837.145s-.007,0-.01,0l-.14.04a.468.468,0,0,0,.15.138,27.694,27.694,0,0,0-5.667,3.412c-.164.114-.283.347-.544.285a1.249,1.249,0,0,0,.326-.418c-.083.062-.169.124-.254.19h0c-.036.024-.067.05-.1.076a2.1,2.1,0,0,0-.782.884q-2.719,2.317-5.436,4.631c-.3-.033-.456.192-.653.349-1.067.853-1.986,1.863-2.987,2.787a37.893,37.893,0,0,0-3.288,3.336c-.012.012-.021.026-.033.038l-.078.078a.583.583,0,0,0,.2.074q-4.077,4.223-7.9,8.668a.428.428,0,0,0-.128-.157.936.936,0,0,1-.1.152c-.162.207-.385.38-.342.694-.767.979-1.54,1.956-2.3,2.939a50.225,50.225,0,0,0-5.71,8.72,9.406,9.406,0,0,0-1.183,4,2.135,2.135,0,0,0,2.248,2.409,8.959,8.959,0,0,0,3.958-.884,65.4,65.4,0,0,0,8.387-4.284c.2-.114.368-.3.649-.287-.007.107-.007.2-.017.3-.1,1.017.3,1.542,1.321,1.642a4.576,4.576,0,0,0,2.483-.668,64.922,64.922,0,0,0,8.435-5.51c.162-.116.3-.3.556-.276.012.273-.162.428-.264.608a9.4,9.4,0,0,0-1.183,2.768,2.42,2.42,0,0,0,2.393,3.224,7.368,7.368,0,0,0,2.409-.266,39.6,39.6,0,0,0,8.454-3.388c.169-.086.323-.259.585-.195a18.969,18.969,0,0,0-1.635,2.519.827.827,0,0,0,.135,1.081.8.8,0,0,0,1.043-.031c.525-.352,1.036-.725,1.551-1.093a69.34,69.34,0,0,1,8.763-5.66,6.908,6.908,0,0,1,2.281-.8c.459-.057.592.071.513.556-.247,1.523-.77,2.987-.955,4.522a1.562,1.562,0,0,0,1.39,1.851,7.1,7.1,0,0,0,2.471-.192,29.734,29.734,0,0,0,7.021-2.816c.162-.083.3-.245.511-.2-.114.39-.238.744-.321,1.11-.447,1.9.416,3.1,2.359,3.272a12.312,12.312,0,0,0,3.367-.178,38.228,38.228,0,0,0,10.64-3.913c.2-.1.406-.2.663-.333a.948.948,0,0,1-.3.62c-.955,1.312-1.877,2.647-2.744,4.018a14.4,14.4,0,0,0-1.3,2.462c-.306.786-.254,1.278.159,1.509.625.349,1-.119,1.378-.482,2.013-1.932,4-3.9,6.037-5.8a38.061,38.061,0,0,1,5.828-4.671,5.472,5.472,0,0,1,1.233-.57c.359-.112.535,0,.444.416a10.3,10.3,0,0,1-.554,1.687,12.221,12.221,0,0,0-.758,2.243,2.311,2.311,0,0,0,2.2,3.029,8.038,8.038,0,0,0,2.93-.335,46.228,46.228,0,0,0,9.395-3.909c.2-.1.4-.2.675-.337-.143.456-.276.805-.359,1.164a2.31,2.31,0,0,0,1.72,3.025,6.29,6.29,0,0,0,3.113.164,36.754,36.754,0,0,0,13.843-5.8,2.891,2.891,0,0,0,.5-.411A.523.523,0,0,0,551.6,355.51Zm-12.973-.836c.161-.021.387-.1.482.09.1.214-.071.375-.219.5a3.2,3.2,0,0,1-2.714.613A5.223,5.223,0,0,1,538.632,354.673Zm-10.046-18.4c3.117-3.348,6.289-6.639,9.692-9.7a22.874,22.874,0,0,1,2.7-2.136,2.936,2.936,0,0,1,.575-.3c.176-.064.371-.192.556-.014.162.157.045.333.017.5a4.383,4.383,0,0,1-.556,1.43,42.653,42.653,0,0,1-5.558,7.385A127.2,127.2,0,0,1,514.5,352.67c-.064.045-.133.083-.2.126l-.021-.171C518.844,347,523.648,341.577,528.586,336.271Zm-64.637-12a2.7,2.7,0,0,1,.924-.371c.052,1.112-.083,2.229.074,3.338a31.847,31.847,0,0,1-2.649,3.037c-2.245,2.369-4.562,4.662-7.033,6.8q1.24-3.981,2.478-7.967c.059-.185.093-.38.14-.573A33.963,33.963,0,0,1,463.949,324.267Zm-6.9,4.952a25.978,25.978,0,0,1-.851,2.9c-.5,1.666-1.034,3.319-1.611,5.163-.425-1.11-.779-2.06-1.155-3a4.666,4.666,0,0,0-.627-1.4C454.166,331.607,455.554,330.352,457.044,329.219Zm-18.3,18.324a4,4,0,0,0,1.407.083.3.3,0,0,0,.34-.321.3.3,0,0,0-.326-.34c-.3-.014-.594-.021-.889-.031,1.509-1.86,3.148-3.6,4.778-5.356.632-.68,1.293-1.331,1.941-1.993.587,1.352,1.043,2.751,1.549,4.134-2.927,2.542-6.011,4.883-9.155,7.147-1.333.958-2.69,1.877-4.042,2.808a.779.779,0,0,1-.611.247C435.348,351.7,436.985,349.577,438.744,347.543Zm14.769,8.3a66.863,66.863,0,0,1-6.608,4.381,5.545,5.545,0,0,1-1.9.744c-.675.036-.786-.114-.594-.615a2.738,2.738,0,0,1,.71-1.01,19.1,19.1,0,0,1,6.411-4.146,3.7,3.7,0,0,1,1.746-.226c.29.038.577.15.649.432C453.988,355.655,453.677,355.728,453.513,355.847Z" transform="translate(-355.563 -277.864)" fill="#fefefe"/>
  <path id="Tracé_62" data-name="Tracé 62" d="M570.476,249.423c-.126.228.014.489-.093.72,0,.164,0,.33,0,.494a1.529,1.529,0,0,1,.04.587q0,16.569,0,33.136a1.529,1.529,0,0,1-.04.587v.375c.116.268-.038.57.1.836a2.427,2.427,0,0,0,2.7,2.725c.791.014,1.582,0,2.376.012.219,0,.466,0,.48.3.019.342-.233.366-.482.371-.178,0-.357,0-.535,0q-9.206.007-18.409.017a.653.653,0,0,1,0-.708,6.677,6.677,0,0,0,3.077-.409,1.709,1.709,0,0,0,1.022-1.212,7.533,7.533,0,0,0,.259-1.68c.017-4.8,0-9.6,0-14.4.653-.867,1.319-1.727,1.96-2.6a6.952,6.952,0,0,0,.958-1.765,1.757,1.757,0,0,0-2.029-2.464c-.29.043-.58.109-.87.164a.47.47,0,0,1-.15-.138l.14-.04s.007,0,.01,0V248.668a2.523,2.523,0,0,0-.394.836q-1.821,5.806-3.638,11.612c-.71,2.283-1.407,4.574-2.108,6.86.085-.067.171-.128.254-.19a1.249,1.249,0,0,1-.326.418,2.174,2.174,0,0,1-.815.732,12.606,12.606,0,0,1,.663-2.331c2.062-6.646,4.151-13.28,6.208-19.925a.826.826,0,0,1,.958-.689q6.825.032,13.648,0c.432,0,.7.083.627.58a10.673,10.673,0,0,1-1.986.074,6.123,6.123,0,0,0-.886.024c-.036.01-.074.019-.109.031C571.367,246.738,570.5,247.641,570.476,249.423Z" transform="translate(-451.664 -219.8)" fill="#52895f"/>
  <path id="Tracé_63" data-name="Tracé 63" d="M444.1,273.581c-1.031.981-2.072,1.953-3.089,2.946-1.262,1.228-2.5,2.476-3.752,3.716a.583.583,0,0,1-.2-.074l.078-.078c.012-.012.021-.026.033-.038-.074-.152-.147-.3-.207-.459q-5.243-13.814-10.483-27.631c-.39-1.026-.786-2.048-1.181-3.072-.036.009-.071.017-.107.024v.454q0,17.934,0,35.866a6.307,6.307,0,0,0,.271,1.751,2.136,2.136,0,0,0,1.39,1.506,6.967,6.967,0,0,0,2.274.413.929.929,0,0,0,.1-.152.427.427,0,0,1,.128.157,2.489,2.489,0,0,1-.57.689q-5.043-.007-10.089-.017a1.466,1.466,0,0,1-.756-.081h0c.112-.53.53-.675.981-.775a.393.393,0,0,1,.143.031c-.059.045-.121.09-.181.133.124,0,.25,0,.373,0,.908,0,1.815.026,2.723-.007a2.361,2.361,0,0,0,2.512-2.595,1.259,1.259,0,0,0,.107-.751q0-17.735,0-35.472a1.278,1.278,0,0,0-.107-.751,2.539,2.539,0,0,0-2.607-2.6c-1.416-.121-2.837-.019-4.253-.057-.209-.007-.435.074-.63-.074-.045-.428.121-.58.573-.577q7.773.021,15.546,0a.709.709,0,0,1,.765.561q3.35,8.906,6.724,17.806Q442.348,268.984,444.1,273.581Z" transform="translate(-347.238 -219.815)" fill="#52895f"/>
  <path id="Tracé_64" data-name="Tracé 64" d="M720.875,198.415c-.264-.409-.625-.356-.977-.121a41.525,41.525,0,0,1-5.707,3.143,16.3,16.3,0,0,1-5.232,1.642c-1.5.152-1.537.1-1.221-1.388a37.454,37.454,0,0,0,.839-4.063,1.217,1.217,0,0,0-1.219-1.471,3.561,3.561,0,0,0-1.119.093,13.186,13.186,0,0,0-3.315,1.414,75.5,75.5,0,0,0-6.864,4.457c-.145.1-.273.278-.489.24-.045-.2.086-.283.164-.387a42.4,42.4,0,0,1,7.218-7.6,5,5,0,0,0,.449-.387.558.558,0,0,0,.055-.8.575.575,0,0,0-.8-.133,3.412,3.412,0,0,0-.43.311,35.868,35.868,0,0,0-4.524,4.365,3.491,3.491,0,0,1-1.342.941,13.122,13.122,0,0,1-7.4.649,15.263,15.263,0,0,1-4.65-1.663,3.329,3.329,0,0,0,.416-.323c.311-.342.147-1-.283-.969a4.3,4.3,0,0,0-2.407.739,6.3,6.3,0,0,1-1.91,1.214c-4.2,1.388-8.49,2.5-12.714,3.809-.14.043-.28.171-.444.059.067-.931-.219-1.266-1.169-1.416a6.936,6.936,0,0,0-1.946.107,23.888,23.888,0,0,1-3.234.394c-.741-.007-.87-.242-.57-.924a4.287,4.287,0,0,1,1.072-1.331,8.868,8.868,0,0,1,4.593-2.552c.207-.036.459-.133.6.09.128.207-.009.421-.109.611a3.041,3.041,0,0,1-.922.991c-.342.254-.549.556-.24.948s.661.259,1,.021a3.86,3.86,0,0,0,1.219-1.433,1.691,1.691,0,0,0,.121-1.9,1.749,1.749,0,0,0-1.768-.565,2.479,2.479,0,0,0-.292.045,9.774,9.774,0,0,0-4.688,2.531,6.85,6.85,0,0,1-1.091.813,67.763,67.763,0,0,1-9.131,4.514,17.429,17.429,0,0,1-3.835,1.212c-.508.081-1.112.254-1.487-.273s-.1-1.062.119-1.575c.048-.107.112-.209.166-.314a16.232,16.232,0,0,1,1.958-2.751c.627-.739,1.292-1.447,1.941-2.167a.587.587,0,0,0,.086-.8.56.56,0,0,0-.675-.235,1.393,1.393,0,0,0-.506.4,15.568,15.568,0,0,1-2.2,2.146,38.153,38.153,0,0,1-10.5,4.861,7.114,7.114,0,0,1-2.868.349,1.127,1.127,0,0,1-1.117-1.421,5.591,5.591,0,0,1,.9-2.424c.584-.939,1.214-1.851,1.8-2.787.247-.392.473-.841.05-1.243s-.855-.183-1.25.071c-.613.394-1.209.82-1.82,1.226-.126.083-.238.3-.432.059a2.65,2.65,0,0,0-3.1-.7,16.808,16.808,0,0,0-7.962,5.142,3,3,0,0,0-.756,1.649,1.3,1.3,0,0,0,1.214,1.521,2.792,2.792,0,0,0,1-.071,14.032,14.032,0,0,0,3.992-1.915c2.081-1.3,4.082-2.721,6.059-4.175.162-.119.3-.311.549-.268.057.268-.14.416-.242.594a9.062,9.062,0,0,0-1.233,3.06,2.385,2.385,0,0,0,2.1,2.908,5.76,5.76,0,0,0,1.54.007,9.533,9.533,0,0,0,1.143-.178,46.25,46.25,0,0,0,8.713-3.528,2.208,2.208,0,0,1,.763-.4,1.759,1.759,0,0,1-.4.727c-.159.1-.1.285-.157.428a2.367,2.367,0,0,0,.886,3.277,8.585,8.585,0,0,0,2.222,0c.2-.057.4-.116.6-.178h0a59.86,59.86,0,0,0,10.794-4.7,1.949,1.949,0,0,1,.211-.088c-.028,1.338.475,1.851,1.825,1.906a30.817,30.817,0,0,0,4.4-.537c.287-.029.734-.273.822.1s-.23.722-.653.867a38.619,38.619,0,0,0-4.322,1.77,11.1,11.1,0,0,0-3.478,2.321.307.307,0,0,0-.026-.057.363.363,0,0,0-.038-.048.689.689,0,0,0-.012.188c-.418,1.064.036,1.749,1.186,1.794a7.129,7.129,0,0,0,1.789-.278,14.121,14.121,0,0,0,5.767-4.514,1.317,1.317,0,0,1,.746-.437l8-2.393c1.274-.38,2.545-.763,3.928-1.176-.207.3-.342.489-.475.684a6.162,6.162,0,0,0-1.072,2.611,2.076,2.076,0,0,0,.675,2.148,1.962,1.962,0,0,0,2.236-.069,5.6,5.6,0,0,0,2.034-2.034A8.08,8.08,0,0,0,683.3,198.5a16.91,16.91,0,0,0,5.885,2.1,15.821,15.821,0,0,0,6.315-.316c-.2.278-.33.449-.456.623a21.388,21.388,0,0,0-1.932,2.844c-.207.406-.356.839.036,1.2s.805.192,1.186-.076q.727-.513,1.452-1.031a68.464,68.464,0,0,1,8.817-5.681,7.328,7.328,0,0,1,2.226-.779c.39-.057.575.062.5.478-.064.349-.124.7-.195,1.048a29.563,29.563,0,0,0-.765,3.711,1.49,1.49,0,0,0,1.255,1.673,4.965,4.965,0,0,0,2.236-.088,33.288,33.288,0,0,0,10.773-4.935C720.941,199.066,721.11,198.779,720.875,198.415Zm-91.5.28a55.586,55.586,0,0,1-7.187,4.676,4.98,4.98,0,0,1-1.713.508c-.292,0-.425-.173-.311-.527a2.877,2.877,0,0,1,.748-1.126,17.243,17.243,0,0,1,6.582-4.191,3.5,3.5,0,0,1,1.692-.176.653.653,0,0,1,.561.39C629.844,198.532,629.533,198.587,629.379,198.7Zm29.565,8.95c-.147.024-.335.1-.418-.093-.055-.128.086-.211.178-.271a23.511,23.511,0,0,1,4.857-2.386A8.925,8.925,0,0,1,658.944,207.646Zm22.957-7.121a7,7,0,0,1-1.837,3.386,2.589,2.589,0,0,1-.763.549c-.779.347-1.126.088-1.036-.76a4.487,4.487,0,0,1,.414-1.473,9.044,9.044,0,0,1,3.345-3.45A4.278,4.278,0,0,1,681.9,200.525Z" transform="translate(-501.184 -179.36)" fill="#fefefe"/>
  <path id="Tracé_65" data-name="Tracé 65" d="M293.575,390.45l1.561-1.316A2.616,2.616,0,0,0,293.575,390.45Zm14.962-1.813.912-.82A1.16,1.16,0,0,0,308.537,388.637Zm4.408-7.689h0s0,0,0,0h.007a0,0,0,0,1,0,0S312.947,380.948,312.944,380.948Zm12.334.893a7,7,0,0,0-2.262-1l-.432-.121a.151.151,0,0,1-.064-.017,1.623,1.623,0,0,1-.8-.14,2.43,2.43,0,0,1-.765-.062c-.012,0-.021-.007-.033-.009a.271.271,0,0,1-.078-.031l-.311-.019-3.918,0c-.138.007-.276.014-.413.024a1.145,1.145,0,0,1-.653.09c-.63.086-1.257.173-1.887.261a.2.2,0,0,1-.038.019,1.645,1.645,0,0,1-.677.119.707.707,0,0,1-.489.1,46.453,46.453,0,0,0-6.527,2.039.9.9,0,0,1-.48.2c-.884.4-1.773.777-2.645,1.193-1.628.779-3.158,1.737-4.719,2.635-.516.349-1.031.7-1.549,1.045a10.152,10.152,0,0,1-1.4.969,9.96,9.96,0,0,1-1.561,1.316L292,392.094c-.176.385-.637.627-.594,1.119,0,.021.007.043.009.067.064.138.083.307.252.373l.7-.038.23-.219q.424-.474.846-.948a1.734,1.734,0,0,1,.6-.592,17.539,17.539,0,0,1,2.374-1.984l.107-.067a3.26,3.26,0,0,1,.829-.608,9,9,0,0,1,1.549-1.029,23.293,23.293,0,0,1,2.98-1.758.957.957,0,0,1,.478-.254,11.484,11.484,0,0,1,2.136-1.064.488.488,0,0,1,.347-.157,20.224,20.224,0,0,1,3.1-1.259,27.224,27.224,0,0,1,4.042-1.2l.95-.219.238-.028a3.621,3.621,0,0,1,1.067-.211,6.611,6.611,0,0,1,1.162-.147.233.233,0,0,1,.076-.031,1.163,1.163,0,0,1,.542-.059l.663-.031a1.343,1.343,0,0,1,.133-.031,5.145,5.145,0,0,1,1.224-.057l.6,0a6.525,6.525,0,0,1,1.837.09,11.263,11.263,0,0,1,2.794.487,2.288,2.288,0,0,1,1.651,1.069c.05.067.1.133.147.2a1.608,1.608,0,0,1,.181,1.335v0a.592.592,0,0,1-.071.261,5.75,5.75,0,0,1-1.219,2.473,1.613,1.613,0,0,1-.575.68q-.663.609-1.328,1.219a3.192,3.192,0,0,1-1.281.95c-.166.119-.333.238-.5.356a2.9,2.9,0,0,1-1.16.7,28.71,28.71,0,0,1-2.844,1.468,2.434,2.434,0,0,1-2.507.228l-.354-.036a3.28,3.28,0,0,1-1.129-.09h-2.141a.255.255,0,0,1-.045.017,1.639,1.639,0,0,1-.72.074,12.053,12.053,0,0,0-3.279.87,8.192,8.192,0,0,0-.7.537,1.2,1.2,0,0,0-.487,1.254,1.351,1.351,0,0,0,1.14.922,7.163,7.163,0,0,0,2.362-.059,28.247,28.247,0,0,0,6.327-1.746.932.932,0,0,1,.789.029c1.594.713,2.233,2.055,1.906,4.032-.207,1.238-.207,1.252-1.442,1.072a42.519,42.519,0,0,0-16.886,1.015c-.093.024-.188.031-.409.067,2.388-2.9,4.8-5.61,7.356-8.2a36.536,36.536,0,0,1,2.972-2.972l1.055-.977a1.313,1.313,0,0,1,.48-.454l.948-.846a.358.358,0,0,1,.242-.221,24.225,24.225,0,0,1,3.54-2.775c.337-.221.6-.459.518-.9a.8.8,0,0,0-1.219-.171,24.436,24.436,0,0,0-2.623,1.948,2.925,2.925,0,0,1-.927.813c-.05.045-.1.093-.147.138a2.961,2.961,0,0,1-.922.813c-.171.166-.342.33-.513.494a3.1,3.1,0,0,1-.912.82c-1.347,1.274-2.652,2.59-3.928,3.932a4.062,4.062,0,0,1-.943,1.031q-.424.435-.844.87a3.088,3.088,0,0,1-.82.917c-.124.128-.25.259-.373.39a3,3,0,0,1-.815.922c-.045.048-.093.1-.138.147a3.973,3.973,0,0,1-.808.953,3.8,3.8,0,0,1-.836.929c-.166.2-.335.409-.5.611a9.93,9.93,0,0,1-1.4,1.658,2.979,2.979,0,0,1-1.884,1.352,1.734,1.734,0,0,1-.848.309l-1.395.734q-1.087.756-2.169,1.516a3.194,3.194,0,0,0-1.19,2.747c.083.276.169.551.252.824a2.4,2.4,0,0,0,.456.6c.658.454.44.874.012,1.314-.28.5-.558,1-.839,1.494-.2.349-.245.71.138.934s.71.067.931-.326c.321-.568.694-1.11.979-1.694a.7.7,0,0,1,1.067-.4,4.1,4.1,0,0,0,.919.223,22.139,22.139,0,0,0,6.734,0,31.289,31.289,0,0,0,12.3-4.032,14.065,14.065,0,0,0,4.985-4.643c.169-.276.359-.257.6-.188.779.221,1.561.432,2.333.672.409.126.772.119.939-.321.173-.456-.114-.71-.518-.836-.715-.221-1.43-.449-2.157-.627-.38-.093-.513-.195-.364-.613a5.8,5.8,0,0,0,.295-2.747,4.138,4.138,0,0,0-2.1-3.153c1.445-.668,2.749-1.395,4.044-2.141h0q.47-.3.941-.611c.059-.043.121-.088.181-.133l.183-.133c.086-.078.166-.162.257-.233a11.609,11.609,0,0,0,4.11-5.1c.048-.154.1-.306.143-.463v0c.012-.551.024-1.1.033-1.651A3.344,3.344,0,0,0,325.278,381.842ZM306.17,395.559c.729-.879,3.947-1.459,6.387-1.143A19.153,19.153,0,0,1,306.17,395.559ZM291.9,408.13c-.316.473-.485.361-.741,0a1.434,1.434,0,0,1,.057-1.761,5.708,5.708,0,0,1,1.839-1.552,10.327,10.327,0,0,1,1.67-.858c.033.292-.159.4-.264.554C293.606,405.719,292.72,406.9,291.9,408.13Zm23.568-5.327a15.584,15.584,0,0,1-4.063,3.151,30.628,30.628,0,0,1-11.441,3.483,20.67,20.67,0,0,1-6.615-.109c-.207-.043-.409-.1-.67-.171.15-.23.261-.411.38-.587,1.207-1.765,2.481-3.481,3.792-5.17a1.538,1.538,0,0,1,.794-.577,41.482,41.482,0,0,1,15.045-1.875,32.581,32.581,0,0,1,3.773.456A5.348,5.348,0,0,1,315.465,402.8Zm-23.8-9.15a.864.864,0,0,0,.7-.038A1.71,1.71,0,0,1,291.669,393.653Z" transform="translate(-249.945 -322.304)" fill="#fefefe"/>
  <path id="Tracé_66" data-name="Tracé 66" d="M185.58,154.779a.554.554,0,0,0-.734-.192,2.962,2.962,0,0,0-.442.292,36.579,36.579,0,0,1-11.286,5.251,6.3,6.3,0,0,1-2.464.257,1.124,1.124,0,0,1-1.133-1.407,5.033,5.033,0,0,1,.653-2.015,24.971,24.971,0,0,1,1.592-2.5,3.965,3.965,0,0,0,.689-1.238.7.7,0,0,0-.763-.912,1.584,1.584,0,0,0-.758.316c-.594.392-1.179.8-1.763,1.2-.15.1-.254.219-.432,0a2.569,2.569,0,0,0-2.934-.7,16.132,16.132,0,0,0-8.1,5.225,8.027,8.027,0,0,1-1.825,1.644c-.3.192-.6.385-.905.563a10.816,10.816,0,0,1-6.871,1.54,32.541,32.541,0,0,1-8.706-2.63c-.154-.067-.345-.088-.444-.273a.846.846,0,0,1,.131-.119,55.221,55.221,0,0,0,11.509-9.483,2,2,0,0,1,.8-.48,34.316,34.316,0,0,0,8.858-4.607,20.4,20.4,0,0,0,4.776-4.671,4.61,4.61,0,0,0,.965-2.571,1.414,1.414,0,0,0-1.255-1.478,3.584,3.584,0,0,0-2.469.639,17.714,17.714,0,0,0-2.977,2.348c-3.067,2.873-5.759,6.1-8.7,9.093a2.194,2.194,0,0,1-.986.613,34.28,34.28,0,0,1-14.8,1.074c-.623-.09-.993.074-1.007.5-.019.558.4.658.832.722a35.208,35.208,0,0,0,12.973-.537c.178-.04.359-.121.542-.007-.029.078-.033.126-.057.15a47.1,47.1,0,0,1-10.326,8.019.8.8,0,0,1-.822-.026c-1.832-.886-3.69-1.72-5.6-2.438a10.919,10.919,0,0,0-4.8-.893,2.952,2.952,0,0,0-1.528,5.572,6.276,6.276,0,0,0,2.528.967,15.741,15.741,0,0,0,9.407-1.438,1,1,0,0,1,.929-.012,42.713,42.713,0,0,0,7.972,2.832,12.393,12.393,0,0,0,8.459-.689,24.714,24.714,0,0,0,2.364-1.354c.147-.093.295-.3.489-.031a1.7,1.7,0,0,0,1.879.532,8.773,8.773,0,0,0,2.623-1.072,67.492,67.492,0,0,0,6.774-4.484c.416-.3.827-.6,1.29-.936.1.373-.1.52-.2.7a8.493,8.493,0,0,0-1.243,3.179,2.258,2.258,0,0,0,1.825,2.694,4.664,4.664,0,0,0,2.119.031,38.378,38.378,0,0,0,13.08-5.826,1.1,1.1,0,0,0,.226-.192A.543.543,0,0,0,185.58,154.779Zm-25.065-15.485a11.472,11.472,0,0,1,2.706-2.008c.449-.223,1.043-.549,1.43-.164.364.364,0,.934-.185,1.378a7.563,7.563,0,0,1-1.561,2.222,28.555,28.555,0,0,1-9.632,6.46,2.236,2.236,0,0,1-.4.074C155.457,144.52,157.859,141.787,160.516,139.295Zm-29.382,21.235a11.082,11.082,0,0,1-4.225-.345,4.043,4.043,0,0,1-1.549-.836,1.757,1.757,0,0,1-.658-1.8,1.732,1.732,0,0,1,1.492-1.188,6.03,6.03,0,0,1,2.414.036,37.717,37.717,0,0,1,7.275,2.911A15.871,15.871,0,0,1,131.134,160.529Zm36.491-5.577a58.448,58.448,0,0,1-7.385,4.809,5.785,5.785,0,0,1-1.687.518.334.334,0,0,1-.356-.162c-.107-.226.1-.314.23-.418a39.911,39.911,0,0,0,3.892-3.467,7.434,7.434,0,0,1,4.008-1.967,1.515,1.515,0,0,1,1.259.159C167.793,154.578,167.95,154.725,167.625,154.953Z" transform="translate(-123.425 -135.762)" fill="#fefefe"/>
  <path id="Tracé_67" data-name="Tracé 67" d="M519.826,139.212a3.461,3.461,0,0,0-2.117.406,24.477,24.477,0,0,0-5.13,3.507,133.043,133.043,0,0,0-9.708,9.171c-.131.157-.264.314-.4.47a.714.714,0,0,1,.271-.6c.516-.865,1.034-1.73,1.544-2.6a12.728,12.728,0,0,0,1.457-3.3c.546-2.155-.516-3.36-2.73-3.1-.057.007-.116.017-.176.026a10.427,10.427,0,0,0-3.733,1.452c-.642.359-1.262.756-1.982,1.19.109-.278.181-.456.252-.634a11.679,11.679,0,0,0,.96-3.956,2.634,2.634,0,0,0-2.977-2.885,8.23,8.23,0,0,0-2.645.6c-3.234,1.278-5.586,3.673-7.869,6.163a.71.71,0,0,0-.1.147.611.611,0,0,0,.889.8,3.011,3.011,0,0,0,.454-.466,24.374,24.374,0,0,1,5-4.446,9.286,9.286,0,0,1,4.063-1.554c1.44-.145,2.015.43,1.936,1.882a14.189,14.189,0,0,1-1.708,5.2,3.942,3.942,0,0,1-1.129,1.418,64.732,64.732,0,0,0-11.614,12.239,10.133,10.133,0,0,0-1.138,1.941.987.987,0,0,0,1.4,1.366,8.289,8.289,0,0,0,2.034-1.428,53.569,53.569,0,0,0,9.682-11.951,11.3,11.3,0,0,1,4.22-4.1c.48-.273.953-.565,1.442-.822a8.23,8.23,0,0,1,2.968-.977c1.2-.124,1.58.292,1.352,1.459a10.856,10.856,0,0,1-1.44,3.362c-1.708,2.925-3.681,5.674-5.664,8.416-.684.943-1.333,1.915-2,2.873a.578.578,0,0,0,.107.884.588.588,0,0,0,.889-.109c.126-.15.252-.3.378-.456a141.468,141.468,0,0,1,14.4-15.043,35.377,35.377,0,0,1,6.173-4.7,4.426,4.426,0,0,1,1.889-.656c.5-.033.694.188.618.677a5.757,5.757,0,0,1-.506,1.575,38.227,38.227,0,0,1-4.068,6.468q-5.268,7.039-11.134,13.591a2.1,2.1,0,0,0-.5.862.65.65,0,0,0,.708.839,2.524,2.524,0,0,0,1.507-1.466.991.991,0,0,1,.287-.618c3.7-4.26,7.316-8.589,10.626-13.163a35.337,35.337,0,0,0,3.745-6.178,5.163,5.163,0,0,0,.573-2.222A1.55,1.55,0,0,0,519.826,139.212Zm-27.277,12.156c-2.8,4.039-5.724,7.974-9.732,10.944a55.414,55.414,0,0,1,9.587-11.094c.112-.128.219-.261.335-.387.062-.067.135-.121.326-.29A2.152,2.152,0,0,1,492.549,151.368Z" transform="translate(-396.288 -137.742)" fill="#fefefe"/>
  <path id="Tracé_68" data-name="Tracé 68" d="M518.878,395.38a9.634,9.634,0,0,1-.544,1.927c-.58,1.927-1.212,3.837-1.8,5.759a.486.486,0,0,1-.551.4c-.711-.007-1.423-.01-2.134,0a.448.448,0,0,1-.5-.316c-.285-.775-.584-1.544-.879-2.317l5.144-4.386C518.032,396.093,518.455,395.736,518.878,395.38Z" transform="translate(-420.032 -333.694)" fill="#52895f"/>
  <path id="Tracé_75" data-name="Tracé 75" d="M623.17,299.171a1.066,1.066,0,0,1-.1.689V265.55a1.068,1.068,0,0,1,.1.689Q623.173,282.7,623.17,299.171Z" transform="translate(-504.353 -234.712)" fill="#42685a"/>
  <path id="Tracé_87" data-name="Tracé 87" d="M753.193,192.947c-.361.535-.767,1.038-1.164,1.547-.09.116-.245.109-.383.121a.565.565,0,0,1-.511-.865,13.825,13.825,0,0,1,1.053-1.416.56.56,0,0,1,.8-.1A.5.5,0,0,1,753.193,192.947Z" transform="translate(-601.919 -178.722)" fill="#fcfcfc"/>
  <path id="Tracé_92" data-name="Tracé 92" d="M421.9,248.571q-2.135,0-4.267,0c-.214,0-.442.05-.615-.135,1.378.01,2.756.017,4.134.031A1.31,1.31,0,0,1,421.9,248.571Z" transform="translate(-347.261 -221.668)" fill="#42685a"/>
  <path id="Tracé_93" data-name="Tracé 93" d="M637.422,248.45c-.4.266-.844.107-1.264.126-.573.029-1.145,0-1.718,0,.036-.012.074-.021.109-.031a10.939,10.939,0,0,1,1.991-.069C636.835,248.457,637.13,248.46,637.422,248.45Z" transform="translate(-513.021 -221.675)" fill="#42685a"/>
  <path id="Tracé_94" data-name="Tracé 94" d="M663.873,248.525c-.753,0-1.5.007-2.255,0-.211,0-.444.057-.608-.147.725.014,1.452.029,2.176.045A1.183,1.183,0,0,1,663.873,248.525Z" transform="translate(-533.278 -221.622)" fill="#42685a"/>
  <path id="Tracé_95" data-name="Tracé 95" d="M746.692,429a10.014,10.014,0,0,1-2.262.1A9.745,9.745,0,0,1,746.692,429Z" transform="translate(-596.878 -359.314)" fill="#42685a"/>
  <path id="Tracé_96" data-name="Tracé 96" d="M677.04,244.577a2.489,2.489,0,0,1-1.54-.007Z" transform="translate(-544.326 -218.717)" fill="#446a5c"/>
  <path id="Tracé_97" data-name="Tracé 97" d="M759.123,332.571a2.852,2.852,0,0,1-1.193-.1C758.327,332.507,758.738,332.372,759.123,332.571Z" transform="translate(-607.17 -285.724)" fill="#42685a"/>
  <path id="Tracé_98" data-name="Tracé 98" d="M809.56,290.1v-1.05A1.248,1.248,0,0,1,809.56,290.1Z" transform="translate(-646.533 -252.628)" fill="#42685a"/>
  <path id="Tracé_99" data-name="Tracé 99" d="M388.56,382.582a0,0,0,0,0,0,0h-.007s0,0,0,0h0S388.557,382.582,388.56,382.582Z" transform="translate(-325.556 -323.936)" fill="#446a5c"/>
  <path id="Tracé_100" data-name="Tracé 100" d="M388.56,382.582a0,0,0,0,0,0,0h-.007s0,0,0,0h0S388.557,382.582,388.56,382.582Z" transform="translate(-325.556 -323.936)" fill="#446a5c"/>
  <path id="Tracé_101" data-name="Tracé 101" d="M623.121,412.366a1.443,1.443,0,0,1-.1-.836C623.2,411.791,623.1,412.086,623.121,412.366Z" transform="translate(-504.307 -346.007)" fill="#42685a"/>
  <path id="Tracé_102" data-name="Tracé 102" d="M758.266,428.522c-.261.176-.556.076-.836.1A1.507,1.507,0,0,1,758.266,428.522Z" transform="translate(-606.789 -358.953)" fill="#42685a"/>
  <path id="Tracé_103" data-name="Tracé 103" d="M758.155,331.547c-.221.159-.475.083-.715.1A1.178,1.178,0,0,1,758.155,331.547Z" transform="translate(-606.796 -285.02)" fill="#42685a"/>
  <path id="Tracé_104" data-name="Tracé 104" d="M623.033,261.16a1.124,1.124,0,0,1,.093-.72C623.116,260.682,623.192,260.937,623.033,261.16Z" transform="translate(-504.314 -230.816)" fill="#42685a"/>
  <path id="Tracé_105" data-name="Tracé 105" d="M564.613,427.208a.478.478,0,0,1,0-.708A1.487,1.487,0,0,0,564.613,427.208Z" transform="translate(-459.665 -357.42)" fill="#42685a"/>
  <path id="Tracé_106" data-name="Tracé 106" d="M684.5,414.124c.007-.2-.048-.416.1-.594A.852.852,0,0,1,684.5,414.124Z" transform="translate(-551.181 -347.532)" fill="#42685a"/>
  <path id="Tracé_107" data-name="Tracé 107" d="M780.064,251.748a.376.376,0,0,0-.038-.048.689.689,0,0,0-.012.188c.024-.029.05-.055.076-.083A.311.311,0,0,0,780.064,251.748Z" transform="translate(-624.006 -224.153)" fill="#446a5c"/>
  <path id="Tracé_108" data-name="Tracé 108" d="M468.16,397.991a.928.928,0,0,1-.1.152c.076,0,.152,0,.228,0A.427.427,0,0,0,468.16,397.991Zm7.945-8.7c-.012.012-.021.026-.033.038l-.078.078a.582.582,0,0,0,.2.074C476.165,389.416,476.134,389.354,476.105,389.29Z" transform="translate(-386.174 -329.051)" fill="#446a5c"/>
  <path id="Tracé_109" data-name="Tracé 109" d="M791.343,450.581a.118.118,0,0,1-.021-.171Z" transform="translate(-632.607 -375.649)" fill="#446a5c"/>
  <path id="Tracé_110" data-name="Tracé 110" d="M563.592,323.155l-.14.04a.469.469,0,0,0,.15.138v-.183S563.594,323.152,563.592,323.155Zm-6.13,3.647h0c-.021.076-.045.152-.069.228a1.248,1.248,0,0,0,.326-.418C557.632,326.674,557.547,326.735,557.461,326.8Z" transform="translate(-454.279 -278.626)" fill="#446a5c"/>
  <path id="Tracé_111" data-name="Tracé 111" d="M515.917,349c-.048.192-.081.387-.14.573q-1.237,3.985-2.478,7.967-3.732,3.475-7.72,6.65c-.506-1.383-.962-2.782-1.549-4.134,1.644-1.83,3.433-3.517,5.208-5.215.525-.5,1.064-.993,1.6-1.49a4.666,4.666,0,0,1,.627,1.4c.375.941.73,1.891,1.155,3,.577-1.844,1.112-3.5,1.611-5.163a25.988,25.988,0,0,0,.851-2.9A3.717,3.717,0,0,1,515.917,349Z" transform="translate(-413.597 -298.334)" fill="#52895f"/>
  <path id="Tracé_112" data-name="Tracé 112" d="M583.538,332.838c-.157-1.11-.021-2.226-.074-3.338a.48.48,0,0,1,.242.44A8.936,8.936,0,0,1,583.538,332.838Z" transform="translate(-474.154 -283.467)" fill="#446a5c"/>
  <path id="Tracé_113" data-name="Tracé 113" d="M475.256,426.831a.3.3,0,0,1-.34.321,4,4,0,0,1-1.407-.083,8.555,8.555,0,0,1,1.395-.211c-.309-.226-.7-.081-.862-.4.295.009.592.017.889.031A.3.3,0,0,1,475.256,426.831Z" transform="translate(-390.329 -357.39)" fill="#446a5c"/>
  <path id="Tracé_114" data-name="Tracé 114" d="M585.137,329.523a10.051,10.051,0,0,1-1.6,2.45c-.157-1.11-.021-2.226-.074-3.338a1.632,1.632,0,0,1,.829-.247C585.277,328.271,585.524,328.594,585.137,329.523Z" transform="translate(-474.154 -282.602)" fill="#52895f"/>
  <path id="Tracé_115" data-name="Tracé 115" d="M475.256,426.831a.3.3,0,0,1-.34.321,4,4,0,0,1-1.407-.083c.178-.2.354-.406.532-.608.295.009.592.017.889.031A.3.3,0,0,1,475.256,426.831Z" transform="translate(-390.329 -357.39)" fill="#52895f"/>
  <path id="Tracé_116" data-name="Tracé 116" d="M790.691,450.581c-.055.1-.2.216-.235.147-.071-.152.1-.238.214-.318Z" transform="translate(-631.954 -375.649)" fill="#869f96"/>
</svg>
