<svg id="tripadvisor-logotype_1_" data-name="tripadvisor-logotype (1)" xmlns="http://www.w3.org/2000/svg" width="35.334" height="20.937" viewBox="0 0 35.334 20.937">
  <g id="Groupe_10" data-name="Groupe 10" transform="translate(0 0)">
    <path id="Tracé_120" data-name="Tracé 120" d="M21.653,20.41a18.943,18.943,0,0,1,2.906.68,19.887,19.887,0,0,1,4.716,2.15.723.723,0,0,0,.361.1c1.736.007,3.472,0,5.207.006.14,0,.279.015.418.023,0,.034.005.048,0,.056-.081.125-.163.248-.244.372a10.651,10.651,0,0,0-1.389,2.893.333.333,0,0,0,.037.316,8.856,8.856,0,0,1-7.212,14.008,8.223,8.223,0,0,1-2.114-.271A8.864,8.864,0,0,1,20,38.186c-.158-.168-.306-.343-.474-.533-.632.942-1.255,1.869-1.892,2.821l-1.861-2.781a.473.473,0,0,0-.063.033.289.289,0,0,0-.037.039,8.77,8.77,0,0,1-5.483,3.106,8.567,8.567,0,0,1-3.652-.205,8.866,8.866,0,0,1-6.419-7.18,8.551,8.551,0,0,1,.159-3.5,8.9,8.9,0,0,1,1.377-2.991.345.345,0,0,0,.039-.257A9.885,9.885,0,0,0,.453,24.069c-.134-.213-.295-.409-.443-.613v-.071a.752.752,0,0,0,.088.009q2.665,0,5.33,0a.451.451,0,0,0,.229-.074,19.142,19.142,0,0,1,3.976-1.929,21.6,21.6,0,0,1,3.086-.836,24.721,24.721,0,0,1,3.069-.4A26.04,26.04,0,0,1,21.653,20.41ZM19.425,32.143a7.051,7.051,0,1,0,6.9-7.024A7.062,7.062,0,0,0,19.425,32.143ZM8.846,25.092a7.043,7.043,0,1,0,7.059,7.074A7.052,7.052,0,0,0,8.846,25.092Zm.35-1.84A9,9,0,0,1,17.67,30.94a8.964,8.964,0,0,1,8.339-7.648,20.056,20.056,0,0,0-7.856-1.637A21.755,21.755,0,0,0,9.2,23.252Z" transform="translate(0 -20.082)" fill="#f8f2e7"/>
    <path id="Tracé_121" data-name="Tracé 121" d="M65.986,41.31a4.368,4.368,0,1,1-4.378,4.364A4.353,4.353,0,0,1,65.986,41.31Zm2.848,4.364a2.855,2.855,0,0,0-5.711-.011,2.855,2.855,0,1,0,5.711.011Z" transform="translate(-39.523 -33.7)" fill="#f8f2e7"/>
    <path id="Tracé_122" data-name="Tracé 122" d="M16.573,41.31a4.368,4.368,0,1,1-4.383,4.359A4.352,4.352,0,0,1,16.573,41.31Zm2.845,4.354a2.857,2.857,0,0,0-5.714.009,2.857,2.857,0,1,0,5.714-.009Z" transform="translate(-7.82 -33.7)" fill="#f8f2e7"/>
    <path id="Tracé_123" data-name="Tracé 123" d="M71.232,49.443A1.447,1.447,0,1,1,69.781,50.9,1.448,1.448,0,0,1,71.232,49.443Z" transform="translate(-44.766 -38.918)" fill="#f8f2e7"/>
    <path id="Tracé_124" data-name="Tracé 124" d="M21.781,49.407a1.461,1.461,0,1,1,0,2.922,1.461,1.461,0,1,1,0-2.922Z" transform="translate(-13.036 -38.895)" fill="#f8f2e7"/>
  </g>
</svg>
